<?xml version="1.0" encoding="UTF-8"?>
<svg id="Layer_2" xmlns="http://www.w3.org/2000/svg" viewBox="0 0 1512 248.22">
  <defs>
    <style>
      .cls-1 {
        fill: none;
      }

      .cls-2 {
        fill: #010101;
      }

      .cls-3 {
        fill: #035494;
      }

      .cls-4 {
        fill: #fff;
      }

      .cls-5 {
        fill: rgba(121, 182, 227, .85);
      }

      .cls-6 {
        fill: #b5dbf4;
      }

      .cls-7 {
        fill: #172d3f;
      }
    </style>
  </defs>
  <g id="Layer_1-2" data-name="Layer_1">
    <g>
      <path class="cls-5" d="M764.5,42H0v184s712.03,0,712.03,0l52.47-184Z"/>
      <rect class="cls-4" x="146.68" y="18.55" width="188.9" height="188.9" transform="translate(77.6 323.17) rotate(-77.22)"/>
      <path class="cls-4" d="M388.77,114.14l3.6-17.18h5.87c1.27,0,2.16.04,2.67.12.84.12,1.56.35,2.14.7.59.35,1.03.82,1.34,1.41.3.59.46,1.24.46,1.94,0,.95-.27,1.78-.8,2.49-.53.7-1.35,1.22-2.46,1.58.88.24,1.57.68,2.06,1.3.5.62.75,1.32.75,2.1,0,1.03-.29,2.01-.88,2.94-.59.92-1.39,1.59-2.43,1.99-1.03.41-2.44.61-4.23.61h-8.1ZM394.44,103.9h2.7c1.21,0,2.08-.09,2.61-.26.53-.17.93-.45,1.2-.84.27-.39.4-.81.4-1.25s-.12-.8-.38-1.08c-.25-.28-.61-.47-1.07-.56-.26-.05-.88-.07-1.86-.07h-2.74l-.86,4.07ZM392.88,111.37h3.41c1.43,0,2.39-.09,2.87-.27.49-.19.88-.49,1.17-.91.3-.42.45-.87.45-1.34,0-.57-.21-1.04-.63-1.41-.42-.38-1.12-.56-2.11-.56h-4.22l-.94,4.49ZM409.7,96.96h3.36l-.63,3.05h-3.36l.63-3.05ZM408.71,101.69h3.36l-2.6,12.45h-3.36l2.6-12.45ZM412.36,110.66l3.26-.52c.29.69.65,1.18,1.08,1.46.43.28,1.02.42,1.76.42s1.38-.17,1.84-.52c.32-.23.48-.52.48-.86,0-.23-.08-.43-.25-.61-.17-.17-.64-.38-1.39-.63-2.03-.67-3.29-1.2-3.77-1.59-.76-.61-1.14-1.41-1.14-2.39s.37-1.83,1.1-2.54c1.02-.99,2.54-1.49,4.56-1.49,1.6,0,2.81.29,3.63.88.82.59,1.34,1.38,1.56,2.38l-3.11.54c-.16-.45-.43-.79-.8-1.02-.5-.3-1.1-.46-1.8-.46s-1.21.12-1.52.35c-.3.23-.46.5-.46.81s.16.57.47.77c.2.12.82.34,1.89.66,1.64.48,2.74.94,3.29,1.41.78.65,1.17,1.43,1.17,2.34,0,1.18-.5,2.2-1.49,3.07-.99.87-2.39,1.3-4.2,1.3s-3.19-.33-4.17-.98c-.98-.66-1.64-1.59-1.99-2.79ZM432.27,114.14l.48-2.27,6.82-7.55h-5.57l.55-2.62h9.76l-.41,2-6.88,7.72h5.99l-.57,2.72h-10.17ZM447.41,101.69h3.36l-1.54,7.37c-.19.88-.28,1.43-.28,1.65,0,.36.13.67.4.93.27.26.61.39,1.02.39.3,0,.59-.05.88-.16.29-.12.59-.29.89-.52.3-.23.58-.5.82-.8.24-.3.47-.69.68-1.17.15-.36.31-.94.48-1.76l1.24-5.93h3.36l-2.6,12.45h-3.14l.35-1.69c-1.38,1.32-2.87,1.98-4.49,1.98-1.02,0-1.83-.29-2.41-.88-.59-.59-.88-1.37-.88-2.35,0-.43.13-1.29.4-2.57l1.45-6.94ZM468.07,104.27l.63-3c2.9-1.27,5.14-2.74,6.73-4.42h2.05l-3.62,17.29h-3.39l2.5-11.91c-.7.45-1.52.87-2.44,1.24-.91.38-1.73.64-2.46.8ZM492.4,101.16l-3.15.26c-.06-.68-.23-1.16-.49-1.43-.26-.27-.61-.41-1.05-.41-.57,0-1.08.23-1.52.68-.63.65-1.14,1.69-1.52,3.14.73-.48,1.5-.72,2.31-.72,1.33,0,2.42.45,3.28,1.36.86.91,1.29,2.14,1.29,3.7,0,1.24-.3,2.42-.9,3.53-.6,1.1-1.35,1.91-2.25,2.41-.9.51-1.85.76-2.85.76s-1.83-.24-2.6-.71c-.77-.48-1.36-1.19-1.78-2.11-.41-.92-.62-2.16-.62-3.7,0-3.07.68-5.68,2.04-7.82,1.36-2.14,3.15-3.21,5.38-3.21,1.28,0,2.3.35,3.06,1.05.76.7,1.22,1.77,1.39,3.21ZM483.76,109.09c0,.91.18,1.57.54,2,.36.43.8.65,1.34.65.66,0,1.22-.3,1.69-.91.63-.82.95-1.92.95-3.3,0-.89-.18-1.55-.53-1.97-.35-.43-.78-.64-1.29-.64-.43,0-.86.16-1.3.49-.44.32-.78.84-1.03,1.55-.24.7-.36,1.42-.36,2.14ZM394.99,142.14h-2.89l-2.5-12.44h3.3l.88,5.43c.24,1.47.39,2.44.43,2.93.06-.13.33-.64.81-1.51.48-.88.78-1.41.89-1.59l3.09-5.25h3.63l-7.65,12.44ZM414.24,136.96h-8.44c0,.13-.01.23-.01.3,0,.83.23,1.5.7,2,.48.51,1.05.76,1.73.76,1.12,0,1.99-.58,2.61-1.73l3.01.5c-.59,1.21-1.37,2.12-2.36,2.73-.98.6-2.07.9-3.29.9-1.67,0-3.03-.53-4.08-1.58-1.05-1.06-1.57-2.46-1.57-4.21s.47-3.22,1.42-4.55c1.29-1.8,3.13-2.7,5.52-2.7,1.52,0,2.73.47,3.63,1.42.9.94,1.35,2.25,1.35,3.95,0,.81-.08,1.54-.23,2.19ZM411.41,134.91c0-.15.01-.26.01-.34,0-.92-.21-1.61-.62-2.07-.41-.46-.97-.69-1.66-.69s-1.32.26-1.88.79c-.55.52-.92,1.3-1.11,2.32h5.26ZM417.9,129.69h3.14l-.5,2.41c1.17-1.81,2.44-2.71,3.81-2.71.48,0,1,.12,1.56.36l-1.29,2.75c-.3-.11-.63-.16-.97-.16-.58,0-1.17.22-1.77.66-.59.44-1.06,1.02-1.39,1.76-.34.73-.67,1.88-1,3.47l-.82,3.9h-3.36l2.6-12.44ZM424.4,138.66l3.26-.52c.29.69.65,1.18,1.08,1.46.43.28,1.02.42,1.76.42s1.38-.17,1.84-.52c.32-.23.48-.52.48-.85,0-.23-.08-.43-.25-.61-.17-.17-.64-.38-1.39-.63-2.03-.67-3.29-1.2-3.77-1.59-.76-.61-1.14-1.41-1.14-2.39s.37-1.83,1.1-2.54c1.02-.99,2.54-1.49,4.56-1.49,1.6,0,2.81.29,3.63.88.82.59,1.34,1.38,1.56,2.38l-3.11.54c-.16-.45-.43-.79-.8-1.02-.5-.3-1.1-.46-1.8-.46s-1.21.12-1.52.35c-.3.23-.46.5-.46.81s.16.57.47.77c.2.12.82.34,1.89.66,1.64.48,2.74.95,3.29,1.41.78.65,1.17,1.43,1.17,2.34,0,1.18-.5,2.2-1.49,3.07-.99.87-2.39,1.3-4.2,1.3s-3.19-.33-4.17-.98c-.98-.66-1.64-1.59-1.99-2.79ZM446.64,137.45l3.27.53c-.54,1.45-1.34,2.56-2.39,3.32-1.05.76-2.28,1.14-3.67,1.14-1.59,0-2.84-.47-3.77-1.42-.93-.94-1.39-2.25-1.39-3.9,0-1.35.28-2.63.84-3.83.56-1.2,1.41-2.15,2.54-2.84,1.13-.69,2.38-1.04,3.73-1.04,1.47,0,2.64.38,3.52,1.15.88.77,1.37,1.77,1.48,3.02l-3.2.34c-.08-.7-.29-1.21-.64-1.54-.34-.33-.8-.49-1.36-.49-.65,0-1.25.24-1.82.73-.56.48-1,1.21-1.3,2.18-.3.96-.45,1.86-.45,2.71,0,.73.18,1.3.54,1.7.36.4.81.6,1.35.6s1.06-.2,1.56-.59c.5-.39.89-.98,1.17-1.76ZM454.97,142.14h-3.36l3.6-17.18h3.36l-1.29,6.12c.76-.59,1.46-1.02,2.12-1.28.66-.26,1.36-.4,2.11-.4,1.01,0,1.8.29,2.39.87s.88,1.34.88,2.27c0,.5-.11,1.27-.33,2.32l-1.52,7.28h-3.36l1.56-7.42c.16-.8.25-1.32.25-1.55,0-.41-.13-.75-.39-1s-.61-.38-1.05-.38c-.56,0-1.1.2-1.62.59-.67.52-1.18,1.15-1.54,1.9-.2.41-.45,1.39-.77,2.92l-1.03,4.93ZM469.82,124.96h3.36l-.63,3.05h-3.36l.63-3.05ZM468.83,129.69h3.36l-2.6,12.44h-3.36l2.6-12.44ZM485.03,136.96h-8.44c0,.13-.01.23-.01.3,0,.83.23,1.5.7,2,.48.51,1.05.76,1.73.76,1.12,0,1.99-.58,2.61-1.73l3.01.5c-.59,1.21-1.37,2.12-2.36,2.73-.98.6-2.07.9-3.29.9-1.67,0-3.03-.53-4.08-1.58-1.05-1.06-1.57-2.46-1.57-4.21s.47-3.22,1.42-4.55c1.29-1.8,3.13-2.7,5.52-2.7,1.52,0,2.73.47,3.63,1.42.9.94,1.35,2.25,1.35,3.95,0,.81-.08,1.54-.23,2.19ZM482.19,134.91c0-.15.01-.26.01-.34,0-.92-.21-1.61-.62-2.07s-.97-.69-1.66-.69-1.32.26-1.88.79c-.55.52-.92,1.3-1.11,2.32h5.26ZM497.76,142.14h-3.19l.28-1.35c-.61.59-1.21,1.01-1.8,1.26-.59.25-1.25.38-1.99.38-1.29,0-2.34-.44-3.14-1.31-.8-.88-1.2-2.18-1.2-3.9,0-1.99.56-3.79,1.69-5.4,1.12-1.61,2.61-2.41,4.46-2.41,1.67,0,2.93.66,3.76,1.99l1.35-6.43h3.36l-3.59,17.18ZM489.99,137.08c0,.89.22,1.59.67,2.09.45.5,1.01.75,1.66.75.61,0,1.18-.21,1.7-.62.53-.42.95-1.06,1.27-1.92.32-.86.48-1.68.48-2.47,0-.9-.24-1.62-.73-2.18-.48-.55-1.04-.83-1.68-.83-.98,0-1.79.55-2.43,1.64-.63,1.09-.95,2.28-.95,3.55ZM513.06,136.96h-8.44c0,.13-.01.23-.01.3,0,.83.23,1.5.7,2,.48.51,1.05.76,1.73.76,1.12,0,1.99-.58,2.61-1.73l3.01.5c-.59,1.21-1.37,2.12-2.36,2.73-.98.6-2.07.9-3.29.9-1.67,0-3.03-.53-4.08-1.58-1.05-1.06-1.57-2.46-1.57-4.21s.47-3.22,1.42-4.55c1.29-1.8,3.13-2.7,5.52-2.7,1.52,0,2.73.47,3.63,1.42.9.94,1.35,2.25,1.35,3.95,0,.81-.08,1.54-.23,2.19ZM510.22,134.91c0-.15.01-.26.01-.34,0-.92-.21-1.61-.62-2.07s-.97-.69-1.66-.69-1.32.26-1.88.79c-.55.52-.92,1.3-1.11,2.32h5.26ZM516.95,129.69h3.19l-.33,1.62c.8-.69,1.54-1.18,2.23-1.46.7-.3,1.43-.45,2.19-.45,1.02,0,1.83.29,2.41.88.59.59.89,1.36.89,2.33,0,.44-.13,1.27-.39,2.48l-1.47,7.04h-3.36l1.48-7.07c.22-1.06.33-1.68.33-1.89,0-.43-.13-.76-.39-1.01-.25-.25-.6-.38-1.05-.38-.49,0-1.04.21-1.64.62-.6.41-1.07.96-1.42,1.64-.25.48-.53,1.47-.84,2.97l-1.07,5.11h-3.36l2.6-12.44ZM541.09,136.96h-8.44c0,.13-.01.23-.01.3,0,.83.24,1.5.7,2,.48.51,1.05.76,1.73.76,1.12,0,1.99-.58,2.61-1.73l3.01.5c-.59,1.21-1.37,2.12-2.36,2.73-.98.6-2.07.9-3.29.9-1.67,0-3.03-.53-4.08-1.58-1.05-1.06-1.57-2.46-1.57-4.21s.47-3.22,1.42-4.55c1.29-1.8,3.13-2.7,5.52-2.7,1.52,0,2.73.47,3.63,1.42.9.94,1.35,2.25,1.35,3.95,0,.81-.08,1.54-.23,2.19ZM538.25,134.91c0-.15.01-.26.01-.34,0-.92-.21-1.61-.62-2.07s-.97-.69-1.66-.69-1.32.26-1.88.79c-.55.52-.92,1.3-1.11,2.32h5.26ZM392.32,170.14h-3.54l3.6-17.18h6.98c1.24,0,2.22.15,2.94.45.73.29,1.3.77,1.72,1.45.42.67.63,1.48.63,2.41,0,.87-.17,1.71-.5,2.53-.34.82-.75,1.48-1.24,1.97-.48.49-1.01.87-1.57,1.12-.56.25-1.32.44-2.27.57-.55.08-1.59.12-3.12.12h-2.26l-1.37,6.55ZM394.28,160.74h1.09c1.87,0,3.11-.12,3.74-.35.62-.23,1.12-.61,1.48-1.12.36-.51.54-1.08.54-1.7,0-.41-.09-.75-.28-1.02-.18-.27-.44-.46-.77-.58-.33-.12-1.07-.19-2.21-.19h-2.53l-1.04,4.96ZM409.52,161.22l-3.28-.28c.38-1.11,1.03-1.98,1.96-2.6.94-.62,2.18-.94,3.71-.94s2.79.32,3.55.97c.77.64,1.15,1.42,1.15,2.35,0,.38-.04.77-.11,1.2-.06.42-.29,1.53-.69,3.33-.33,1.48-.49,2.52-.49,3.12,0,.53.09,1.12.28,1.77h-3.27c-.13-.45-.21-.92-.25-1.41-.49.55-1.06.97-1.7,1.27-.64.29-1.29.43-1.93.43-1.03,0-1.88-.34-2.55-1.01-.67-.68-1.01-1.55-1.01-2.61,0-1.19.37-2.14,1.1-2.85.74-.71,2.06-1.14,3.96-1.29,1.6-.13,2.67-.29,3.21-.48.14-.47.21-.84.21-1.12,0-.36-.14-.66-.43-.9-.29-.24-.72-.36-1.29-.36-.6,0-1.08.12-1.43.38-.34.24-.58.59-.7,1.04ZM412.72,164.34c-.2.05-.47.11-.81.15-1.69.2-2.79.5-3.3.89-.37.28-.55.66-.55,1.14,0,.39.14.72.42,1,.28.27.65.4,1.11.4.51,0,.98-.12,1.43-.36.45-.25.79-.57,1.01-.95.23-.39.43-1,.6-1.82l.09-.45ZM420.55,157.69h3.14l-.5,2.41c1.17-1.8,2.44-2.71,3.81-2.71.48,0,1,.12,1.56.36l-1.29,2.75c-.3-.11-.63-.16-.97-.16-.58,0-1.17.22-1.77.66-.59.44-1.06,1.02-1.39,1.76-.34.73-.67,1.88-1,3.47l-.82,3.9h-3.36l2.6-12.44ZM427.43,170.14l3.6-17.18h3.36l-1.88,8.94,4.38-4.21h4.37l-5,4.52,2.66,7.92h-3.36l-1.71-5.75-2.27,2.02-.79,3.74h-3.36ZM444.26,170.14h-3.36l3.6-17.18h3.36l-1.29,6.12c.76-.59,1.46-1.02,2.12-1.28.66-.26,1.36-.4,2.11-.4,1.01,0,1.8.29,2.39.87s.88,1.34.88,2.27c0,.5-.11,1.27-.33,2.32l-1.52,7.28h-3.36l1.56-7.42c.16-.8.25-1.32.25-1.55,0-.41-.13-.75-.39-1s-.61-.38-1.05-.38c-.56,0-1.1.2-1.62.59-.67.52-1.18,1.15-1.54,1.9-.2.41-.45,1.39-.77,2.92l-1.03,4.93ZM460.26,161.22l-3.28-.28c.38-1.11,1.03-1.98,1.96-2.6.94-.62,2.18-.94,3.71-.94s2.79.32,3.55.97c.77.64,1.15,1.42,1.15,2.35,0,.38-.04.77-.11,1.2-.06.42-.29,1.53-.69,3.33-.33,1.48-.49,2.52-.49,3.12,0,.53.09,1.12.28,1.77h-3.27c-.13-.45-.21-.92-.25-1.41-.49.55-1.06.97-1.7,1.27-.64.29-1.29.43-1.93.43-1.03,0-1.88-.34-2.55-1.01-.67-.68-1.01-1.55-1.01-2.61,0-1.19.37-2.14,1.1-2.85.74-.71,2.06-1.14,3.96-1.29,1.6-.13,2.67-.29,3.21-.48.14-.47.21-.84.21-1.12,0-.36-.14-.66-.43-.9-.29-.24-.72-.36-1.29-.36-.6,0-1.08.12-1.43.38-.34.24-.58.59-.7,1.04ZM463.46,164.34c-.2.05-.47.11-.81.15-1.69.2-2.79.5-3.3.89-.37.28-.55.66-.55,1.14,0,.39.14.72.42,1,.28.27.65.4,1.11.4.51,0,.98-.12,1.43-.36.45-.25.79-.57,1.01-.95.23-.39.43-1,.6-1.82l.09-.45ZM460.03,152.94h2.88l-.6,2.87h-2.88l.6-2.87ZM464.96,152.94h2.88l-.6,2.87h-2.88l.6-2.87ZM471.46,157.69h3.36l-1.54,7.37c-.19.88-.28,1.43-.28,1.65,0,.36.13.67.4.93.27.26.61.39,1.02.39.3,0,.59-.06.88-.16.29-.12.59-.29.89-.52.3-.23.58-.5.82-.8.24-.3.47-.69.68-1.17.15-.36.31-.95.48-1.76l1.24-5.93h3.36l-2.6,12.44h-3.14l.35-1.69c-1.38,1.32-2.87,1.98-4.49,1.98-1.02,0-1.83-.29-2.41-.88s-.88-1.37-.88-2.35c0-.43.13-1.29.4-2.57l1.45-6.94ZM483.12,166.66l3.26-.52c.29.69.65,1.18,1.08,1.46.43.28,1.02.42,1.76.42s1.38-.17,1.84-.52c.32-.23.48-.52.48-.85,0-.23-.08-.43-.25-.61-.17-.17-.64-.38-1.39-.63-2.03-.67-3.29-1.2-3.77-1.59-.76-.61-1.14-1.41-1.14-2.39s.37-1.83,1.1-2.54c1.02-.99,2.54-1.49,4.56-1.49,1.6,0,2.81.29,3.63.88.82.59,1.34,1.38,1.56,2.38l-3.11.54c-.16-.45-.43-.79-.8-1.02-.5-.3-1.1-.46-1.8-.46s-1.21.12-1.52.35c-.3.23-.46.5-.46.81s.16.57.47.77c.2.12.82.34,1.89.66,1.64.48,2.74.95,3.29,1.41.78.65,1.17,1.43,1.17,2.34,0,1.18-.5,2.2-1.49,3.07-.99.87-2.39,1.3-4.2,1.3s-3.19-.33-4.17-.98c-.98-.66-1.64-1.59-1.99-2.79ZM509.03,164.96h-8.44c0,.13-.01.23-.01.3,0,.83.23,1.5.7,2,.48.51,1.05.76,1.73.76,1.12,0,1.99-.58,2.61-1.73l3.01.5c-.59,1.21-1.37,2.12-2.36,2.73-.98.6-2.07.9-3.29.9-1.67,0-3.03-.53-4.08-1.58-1.05-1.06-1.57-2.46-1.57-4.21s.47-3.22,1.42-4.55c1.29-1.8,3.13-2.69,5.52-2.69,1.52,0,2.73.47,3.63,1.42.9.94,1.35,2.25,1.35,3.95,0,.81-.08,1.54-.23,2.19ZM506.19,162.91c0-.15.01-.26.01-.34,0-.92-.21-1.61-.62-2.07s-.97-.69-1.66-.69-1.32.26-1.88.79c-.55.52-.92,1.3-1.11,2.32h5.26ZM512.68,157.69h3.14l-.5,2.41c1.17-1.8,2.44-2.71,3.81-2.71.48,0,1,.12,1.56.36l-1.29,2.75c-.3-.11-.63-.16-.97-.16-.58,0-1.17.22-1.77.66-.59.44-1.06,1.02-1.4,1.76-.34.73-.67,1.88-1,3.47l-.82,3.9h-3.36l2.6-12.44ZM519.06,166.89h3.33l-.68,3.25h-3.33l.68-3.25Z"/>
      <path class="cls-3" d="M387.81,81.61h55v2h-55v-2Z"/>
      <path class="cls-2" d="M226.04,101.28l47.39,11.45c2.29.55,3.72,2.8,3.18,5.04s-2.85,3.64-5.14,3.09l-47.32-11.43-.07-.02c-2.27-.55-3.64-2.85-3.1-5.08.54-2.24,2.8-3.59,5.07-3.04ZM229.12,97.76c-.34,1.42.39,2.7,1.68,3.01l38.55,9.32c1.22.29,2.55-.49,2.89-1.91s-.48-2.72-1.7-3.02l-38.55-9.32c-1.29-.31-2.55.57-2.87,1.91ZM268.73,121.79l-42.75-10.33c-1.36-.33-2.78.54-3.09,1.83-.33,1.36.53,2.78,1.9,3.11l42.75,10.33c1.36.33,2.79-.54,3.11-1.9.31-1.29-.56-2.71-1.92-3.04ZM265.56,127.69l-39.44-9.53-25.86,61.91,20.74-8.86,9.24,16.34,15.76-10.29,14.39,17.35,5.17-66.91ZM234.69,78.04c1.41-5.85-2.67-9.42-5.05-9.99-2.73-.66-5.2.45-6.38,2.92,2.19.21,3.08,1.85,2.74,3.27-.58,2.39-2.27,2.53-3.47,2.24-3.17-.77-3.56-4.05-2.9-6.78.33-1.35,3.86-8.56,12.94-6.36,6.5,1.57,10.33,10.68,8.19,19.53-1.5,6.2-4.3,12.48-4.3,12.48l30.38,7.34c7.7-31.84-4.26-53.44-25.84-58.65-12.48-3.02-30.82,2.24-34.85,18.94-2.63,10.89,2.05,21.66,10.44,23.69,12.37,3.4,16.88-3.56,18.1-8.62Z"/>
      <path class="cls-5" d="M821.11,42h690.89v184h-746l55.11-184Z"/>
      <path class="cls-4" d="M976.79,114l3.6-17.18h12.02l-.61,2.87h-8.48l-.87,4.12h8.32l-.6,2.87h-8.32l-1.52,7.31h-3.54ZM995.07,96.82h3.36l-.63,3.05h-3.36l.63-3.05ZM994.08,101.56h3.36l-2.6,12.45h-3.36l2.6-12.45ZM1000.81,101.56h3.19l-.33,1.62c.8-.69,1.54-1.18,2.23-1.46.69-.3,1.42-.45,2.19-.45,1.02,0,1.83.29,2.41.88.59.59.89,1.36.89,2.33,0,.44-.13,1.27-.39,2.48l-1.46,7.04h-3.36l1.47-7.07c.22-1.05.33-1.68.33-1.89,0-.43-.13-.76-.39-1.01-.25-.25-.6-.38-1.05-.38-.49,0-1.04.21-1.64.62-.6.41-1.07.96-1.42,1.64-.25.49-.53,1.47-.84,2.96l-1.07,5.11h-3.36l2.6-12.45ZM1024.33,114h-3.19l.28-1.35c-.61.59-1.21,1.01-1.8,1.26-.59.25-1.25.38-1.99.38-1.29,0-2.34-.44-3.14-1.31-.8-.88-1.2-2.18-1.2-3.9,0-1.99.56-3.79,1.69-5.4,1.12-1.61,2.61-2.41,4.46-2.41,1.67,0,2.93.66,3.76,1.99l1.35-6.43h3.37l-3.59,17.18ZM1016.56,108.94c0,.89.22,1.59.67,2.09.45.5,1.01.75,1.66.75.61,0,1.18-.21,1.7-.62.53-.42.95-1.06,1.27-1.92.32-.86.48-1.68.48-2.47,0-.9-.25-1.62-.73-2.18-.48-.55-1.04-.83-1.68-.83-.98,0-1.79.55-2.42,1.64s-.95,2.28-.95,3.55ZM1039.62,108.82h-8.44c0,.13-.01.23-.01.3,0,.83.24,1.5.71,2,.47.51,1.05.76,1.73.76,1.12,0,1.99-.58,2.61-1.73l3.02.5c-.59,1.21-1.38,2.12-2.36,2.73-.98.6-2.07.9-3.29.9-1.67,0-3.03-.53-4.08-1.58-1.05-1.06-1.57-2.47-1.57-4.21s.47-3.22,1.42-4.55c1.29-1.8,3.13-2.7,5.52-2.7,1.52,0,2.73.47,3.63,1.42.9.94,1.35,2.25,1.35,3.95,0,.81-.08,1.54-.24,2.19ZM1036.79,106.77c0-.15.01-.26.01-.34,0-.92-.21-1.61-.62-2.07-.42-.46-.97-.69-1.67-.69s-1.32.26-1.87.79c-.55.52-.92,1.3-1.12,2.32h5.27ZM1059.04,114h-3.19l.28-1.35c-.61.59-1.21,1.01-1.8,1.26-.59.25-1.25.38-1.99.38-1.29,0-2.34-.44-3.14-1.31-.8-.88-1.2-2.18-1.2-3.9,0-1.99.56-3.79,1.69-5.4,1.12-1.61,2.61-2.41,4.46-2.41,1.68,0,2.93.66,3.77,1.99l1.34-6.43h3.37l-3.59,17.18ZM1051.27,108.94c0,.89.22,1.59.67,2.09.45.5,1.01.75,1.66.75.61,0,1.18-.21,1.7-.62.53-.42.95-1.06,1.27-1.92.32-.86.48-1.68.48-2.47,0-.9-.24-1.62-.73-2.18-.48-.55-1.04-.83-1.67-.83-.99,0-1.8.55-2.43,1.64s-.95,2.28-.95,3.55ZM1074.33,108.82h-8.43c-.01.13-.02.23-.02.3,0,.83.24,1.5.71,2,.47.51,1.05.76,1.73.76,1.12,0,1.99-.58,2.61-1.73l3.02.5c-.59,1.21-1.37,2.12-2.36,2.73-.98.6-2.07.9-3.29.9-1.67,0-3.03-.53-4.08-1.58-1.05-1.06-1.57-2.47-1.57-4.21s.47-3.22,1.42-4.55c1.29-1.8,3.13-2.7,5.52-2.7,1.52,0,2.73.47,3.63,1.42.9.94,1.35,2.25,1.35,3.95,0,.81-.08,1.54-.24,2.19ZM1071.5,106.77c0-.15.01-.26.01-.34,0-.92-.21-1.61-.62-2.07-.42-.46-.97-.69-1.67-.69s-1.32.26-1.87.79c-.55.52-.92,1.3-1.11,2.32h5.26ZM1079.16,96.82h3.36l-.63,3.05h-3.36l.63-3.05ZM1078.18,101.56h3.36l-2.6,12.45h-3.36l2.6-12.45ZM1084.9,101.56h3.19l-.33,1.62c.8-.69,1.54-1.18,2.23-1.46.69-.3,1.43-.45,2.19-.45,1.02,0,1.83.29,2.41.88.6.59.9,1.36.9,2.33,0,.44-.13,1.27-.39,2.48l-1.47,7.04h-3.36l1.48-7.07c.22-1.05.33-1.68.33-1.89,0-.43-.13-.76-.39-1.01-.25-.25-.6-.38-1.06-.38-.49,0-1.04.21-1.64.62-.6.41-1.07.96-1.41,1.64-.25.49-.54,1.47-.85,2.96l-1.06,5.11h-3.37l2.6-12.45ZM1109.04,108.82h-8.43c-.01.13-.02.23-.02.3,0,.83.24,1.5.71,2,.47.51,1.05.76,1.73.76,1.12,0,1.99-.58,2.62-1.73l3.01.5c-.59,1.21-1.37,2.12-2.36,2.73-.97.6-2.07.9-3.29.9-1.67,0-3.03-.53-4.08-1.58-1.05-1.06-1.57-2.47-1.57-4.21s.47-3.22,1.42-4.55c1.29-1.8,3.13-2.7,5.52-2.7,1.52,0,2.73.47,3.63,1.42.9.94,1.35,2.25,1.35,3.95,0,.81-.08,1.54-.24,2.19ZM1106.21,106.77c.01-.15.01-.26.01-.34,0-.92-.21-1.61-.62-2.07-.42-.46-.97-.69-1.67-.69s-1.32.26-1.87.79c-.55.52-.92,1.3-1.11,2.32h5.26ZM1112.93,101.56h3.19l-.33,1.62c.8-.69,1.54-1.18,2.23-1.46.7-.3,1.43-.45,2.19-.45,1.03,0,1.83.29,2.42.88s.89,1.36.89,2.33c0,.44-.13,1.27-.39,2.48l-1.46,7.04h-3.37l1.48-7.07c.22-1.05.33-1.68.33-1.89,0-.43-.13-.76-.39-1.01-.25-.25-.6-.38-1.05-.38-.5,0-1.04.21-1.65.62-.6.41-1.07.96-1.41,1.64-.25.49-.53,1.47-.85,2.96l-1.06,5.11h-3.37l2.6-12.45ZM993.7,142h-3.54l3.6-17.18h6.98c1.24,0,2.22.15,2.94.44.73.29,1.3.77,1.72,1.45.43.67.64,1.48.64,2.41,0,.87-.17,1.71-.51,2.53-.33.82-.75,1.48-1.24,1.97-.48.49-1.01.87-1.57,1.12-.56.25-1.32.44-2.27.57-.56.08-1.6.12-3.12.12h-2.26l-1.37,6.55ZM995.65,132.6h1.09c1.87,0,3.11-.12,3.74-.35.63-.23,1.12-.61,1.48-1.12.36-.51.54-1.08.54-1.7,0-.41-.1-.75-.28-1.02-.18-.27-.44-.46-.78-.57-.33-.12-1.06-.19-2.21-.19h-2.53l-1.04,4.96ZM1010.9,133.08l-3.28-.28c.37-1.11,1.03-1.98,1.96-2.6s2.17-.94,3.71-.94,2.79.32,3.55.97c.77.64,1.15,1.43,1.15,2.35,0,.38-.04.77-.11,1.2-.06.42-.29,1.53-.69,3.33-.33,1.48-.49,2.52-.49,3.12,0,.53.09,1.12.28,1.77h-3.27c-.13-.45-.21-.92-.24-1.41-.5.55-1.06.97-1.7,1.27-.64.29-1.29.43-1.94.43-1.03,0-1.88-.34-2.55-1.01-.67-.68-1.01-1.55-1.01-2.61,0-1.19.37-2.14,1.1-2.85.74-.71,2.06-1.14,3.96-1.29,1.6-.13,2.67-.29,3.21-.48.14-.47.21-.84.21-1.13,0-.36-.14-.66-.43-.9-.29-.24-.72-.36-1.29-.36-.6,0-1.08.12-1.43.38-.34.24-.58.59-.7,1.04ZM1014.1,136.2c-.2.05-.47.11-.81.15-1.69.2-2.79.5-3.3.89-.37.28-.56.66-.56,1.14,0,.39.15.72.43,1,.28.27.65.4,1.11.4.51,0,.98-.12,1.43-.36.45-.25.79-.57,1.01-.95.22-.39.42-1,.59-1.82l.1-.45ZM1021.93,129.56h3.14l-.51,2.41c1.18-1.8,2.44-2.71,3.81-2.71.49,0,1.01.12,1.56.36l-1.29,2.75c-.3-.11-.63-.16-.97-.16-.58,0-1.17.22-1.77.66-.59.44-1.06,1.02-1.4,1.76-.33.73-.66,1.88-.99,3.47l-.82,3.9h-3.36l2.6-12.44ZM1028.81,142l3.59-17.18h3.37l-1.88,8.94,4.38-4.21h4.38l-5.01,4.52,2.66,7.92h-3.36l-1.71-5.75-2.28,2.02-.78,3.74h-3.36ZM1044.72,129.56h3.19l-.27,1.28c.68-.56,1.31-.96,1.91-1.21.59-.24,1.23-.36,1.91-.36,1.3,0,2.35.45,3.14,1.35.8.9,1.19,2.24,1.19,4.02,0,2.24-.68,4.14-2.05,5.68-1.17,1.32-2.56,1.98-4.16,1.98s-2.89-.67-3.74-2l-1.34,6.46h-3.37l3.59-17.19ZM1046.75,136.69c0,.97.23,1.72.7,2.26.48.53,1.04.8,1.68.8.55,0,1.09-.2,1.6-.6.52-.41.94-1.08,1.28-2,.34-.94.51-1.81.51-2.6,0-.93-.22-1.64-.66-2.13-.45-.5-1.02-.75-1.7-.75-.64,0-1.23.23-1.76.69-.52.45-.93,1.13-1.22,2.01-.29.88-.43,1.66-.43,2.32ZM1056.87,142l3.6-17.18h3.35l-3.58,17.18h-3.37ZM1068.32,133.08l-3.28-.28c.38-1.11,1.03-1.98,1.96-2.6s2.17-.94,3.71-.94,2.79.32,3.55.97c.77.64,1.15,1.43,1.15,2.35,0,.38-.03.77-.1,1.2-.07.42-.3,1.53-.7,3.33-.32,1.48-.49,2.52-.49,3.12,0,.53.1,1.12.28,1.77h-3.27c-.13-.45-.21-.92-.24-1.41-.49.55-1.06.97-1.7,1.27-.64.29-1.29.43-1.94.43-1.03,0-1.88-.34-2.55-1.01-.67-.68-1.01-1.55-1.01-2.61,0-1.19.37-2.14,1.1-2.85.75-.71,2.07-1.14,3.96-1.29,1.61-.13,2.68-.29,3.22-.48.14-.47.21-.84.21-1.13,0-.36-.15-.66-.44-.9-.29-.24-.72-.36-1.29-.36-.6,0-1.07.12-1.43.38-.34.24-.57.59-.7,1.04ZM1071.52,136.2c-.2.05-.47.11-.81.15-1.69.2-2.79.5-3.3.89-.37.28-.55.66-.55,1.14,0,.39.14.72.42,1,.28.27.65.4,1.11.4.51,0,.99-.12,1.43-.36.45-.25.79-.57,1.01-.95.23-.39.42-1,.6-1.82l.09-.45ZM1077.78,132.05l.51-2.5h1.64l.41-1.99,3.86-2.32-.9,4.31h2.05l-.52,2.5h-2.06l-1.09,5.22c-.19.94-.29,1.48-.29,1.62,0,.26.08.46.24.61.17.14.46.21.89.21.15,0,.52-.03,1.12-.08l-.53,2.5c-.58.12-1.17.17-1.78.17-1.19,0-2.05-.23-2.59-.68-.54-.46-.81-1.1-.81-1.91,0-.38.15-1.26.43-2.65l1.05-5h-1.63ZM1084.36,142l.48-2.27,6.83-7.55h-5.57l.55-2.62h9.76l-.41,2-6.88,7.72h5.99l-.57,2.72h-10.18ZM1107.19,124.82h3.37l-.64,3.05h-3.36l.63-3.05ZM1106.21,129.56h3.36l-2.6,12.44h-3.36l2.6-12.44ZM1112.93,129.56h3.19l-.33,1.62c.8-.69,1.54-1.18,2.23-1.46.7-.3,1.43-.45,2.19-.45,1.03,0,1.83.29,2.42.88s.89,1.36.89,2.33c0,.44-.13,1.27-.39,2.48l-1.46,7.04h-3.37l1.48-7.07c.22-1.06.33-1.68.33-1.89,0-.43-.13-.76-.39-1.01-.25-.25-.6-.38-1.05-.38-.5,0-1.04.21-1.65.62-.6.41-1.07.96-1.41,1.64-.25.49-.53,1.47-.85,2.97l-1.06,5.11h-3.37l2.6-12.44ZM1060.86,170l3.59-17.18h5.88c1.27,0,2.16.04,2.67.12.84.12,1.56.35,2.14.7.59.35,1.03.82,1.34,1.41.3.59.45,1.24.45,1.95,0,.95-.26,1.78-.79,2.48-.53.69-1.35,1.22-2.46,1.58.88.24,1.57.68,2.06,1.3.5.62.75,1.32.75,2.1,0,1.03-.29,2.01-.88,2.94-.59.92-1.39,1.59-2.43,1.99-1.03.41-2.44.61-4.23.61h-8.09ZM1066.53,159.76h2.69c1.21,0,2.09-.09,2.62-.26.53-.17.93-.45,1.19-.84.27-.39.4-.81.4-1.25s-.12-.8-.37-1.08c-.25-.28-.61-.47-1.07-.56-.26-.05-.88-.07-1.86-.07h-2.75l-.85,4.07ZM1064.97,167.24h3.41c1.43,0,2.39-.09,2.87-.27.49-.19.88-.49,1.17-.91.3-.42.45-.87.45-1.34,0-.57-.21-1.04-.63-1.41-.43-.38-1.13-.56-2.11-.56h-4.22l-.94,4.49ZM1082.95,161.08l-3.28-.28c.37-1.11,1.02-1.98,1.95-2.6.94-.62,2.18-.94,3.72-.94s2.78.32,3.55.97c.76.64,1.15,1.43,1.15,2.35,0,.38-.04.77-.11,1.2-.06.42-.29,1.53-.69,3.33-.33,1.48-.49,2.52-.49,3.12,0,.53.09,1.12.28,1.77h-3.27c-.13-.45-.22-.92-.25-1.41-.49.55-1.06.97-1.7,1.27-.64.29-1.28.43-1.93.43-1.03,0-1.88-.34-2.55-1.01-.68-.68-1.01-1.55-1.01-2.61,0-1.19.36-2.14,1.1-2.85s2.06-1.14,3.96-1.29c1.6-.13,2.67-.29,3.21-.48.14-.47.21-.84.21-1.12,0-.36-.14-.66-.43-.9s-.72-.36-1.29-.36c-.6,0-1.08.12-1.43.38-.34.24-.58.59-.7,1.04ZM1086.15,164.2c-.21.05-.48.11-.81.15-1.69.2-2.79.5-3.31.89-.36.28-.55.66-.55,1.14,0,.39.14.72.42,1,.28.27.66.4,1.12.4.5,0,.98-.12,1.43-.36.45-.25.79-.57,1-.95.23-.39.43-1,.6-1.82l.1-.45ZM1091.13,166.52l3.25-.52c.29.69.65,1.18,1.08,1.46.43.28,1.02.42,1.76.42s1.38-.17,1.84-.52c.32-.23.48-.52.48-.85,0-.23-.08-.43-.25-.61-.17-.17-.63-.38-1.39-.63-2.03-.67-3.29-1.2-3.77-1.59-.76-.61-1.14-1.41-1.14-2.39s.37-1.83,1.1-2.54c1.02-.99,2.54-1.49,4.56-1.49,1.6,0,2.81.29,3.63.88.82.59,1.34,1.38,1.56,2.38l-3.1.54c-.17-.45-.43-.79-.8-1.02-.5-.3-1.1-.46-1.81-.46s-1.21.12-1.52.35c-.3.23-.46.5-.46.81s.16.57.47.77c.2.12.83.34,1.89.66,1.64.48,2.74.95,3.29,1.41.78.65,1.17,1.43,1.17,2.34,0,1.18-.49,2.2-1.48,3.07-1,.87-2.4,1.3-4.2,1.3s-3.19-.33-4.17-.98c-.98-.66-1.64-1.59-1.99-2.79ZM1117.04,164.82h-8.44c-.01.13-.01.23-.01.3,0,.83.23,1.5.7,2,.48.51,1.05.76,1.73.76,1.12,0,1.99-.58,2.62-1.73l3.01.5c-.59,1.21-1.37,2.12-2.36,2.73-.97.6-2.07.9-3.29.9-1.67,0-3.03-.53-4.08-1.58-1.04-1.06-1.57-2.46-1.57-4.21s.48-3.22,1.42-4.55c1.29-1.8,3.13-2.69,5.52-2.69,1.52,0,2.73.47,3.63,1.42.9.94,1.35,2.25,1.35,3.95,0,.81-.08,1.54-.23,2.19ZM1114.2,162.77c.01-.15.01-.26.01-.34,0-.92-.21-1.61-.62-2.07-.41-.46-.97-.69-1.66-.69s-1.32.26-1.88.79c-.55.52-.92,1.3-1.11,2.32h5.26ZM1118.25,170l3.6-17.18h3.35l-3.58,17.18h-3.37Z"/>
      <path class="cls-3" d="M1069,80h55v2h-55v-2Z"/>
      <path class="cls-7" d="M1368,248.22l-169.42-22.5,183.92-41.72-14.5,64.22Z"/>
      <rect class="cls-3" x="1175.13" y="18.55" width="188.9" height="188.9" transform="translate(6.45 283.61) rotate(-12.78)"/>
      <path class="cls-4" d="M1243.74,184.49l-27.35-120.59,39.22-8.89c14.86-3.37,24.68-4.96,29.47-4.78,7.35.24,14.05,2.87,20.11,7.9,6.04,4.97,10.16,12.25,12.33,21.85,1.68,7.4,1.74,13.93.19,19.59-1.55,5.66-4.09,10.41-7.61,14.27-3.48,3.79-7.27,6.64-11.35,8.54-5.57,2.47-13.89,4.97-24.95,7.48l-15.94,3.61,10.32,45.49-24.44,5.54ZM1245.46,78.75l7.76,34.22,13.37-3.03c9.64-2.18,15.93-4.28,18.89-6.27,2.97-2,5.05-4.55,6.26-7.65,1.26-3.11,1.48-6.45.68-10.01-1-4.39-3.11-7.71-6.35-9.98-3.23-2.26-6.91-3.31-11.03-3.12-3.05.11-8.97,1.17-17.78,3.17l-11.8,2.68Z"/>
      <path class="cls-7" d="M142.72,248.22l169.41-22.5-183.91-41.72,14.5,64.22Z"/>
      <path class="cls-1" d="M211.3,32.68c1.43-5.34,6.9-8.51,12.24-7.08l74.97,20.02c5.34,1.43,8.51,6.91,7.08,12.24l-33.91,126.99c-1.43,5.34-6.91,8.51-12.24,7.08l-65.31-17.44c-10.67-2.85-17.01-13.81-14.16-24.48l31.33-117.33Z"/>
      <polygon class="cls-6" points="821.11 42 844.57 42 844.57 42 764.5 42 712.03 226 766 226 821.11 42"/>
    </g>
  </g>
</svg>