<?xml version="1.0" encoding="UTF-8"?>
<svg id="Layer_2" xmlns="http://www.w3.org/2000/svg" viewBox="0 0 585 248.22">
  <defs>
    <style>
      .cls-1 {
        fill: #035494;
      }

      .cls-2 {
        fill: #fff;
      }

      .cls-3 {
        fill: rgba(121, 182, 227, .85);
      }

      .cls-4 {
        fill: #172d3f;
      }
    </style>
  </defs>
  <g id="Layer_1-2" data-name="Layer_1">
    <g>
      <path class="cls-4" d="M553.5,248.22l-152.5-22.5,150-41,2.5,63.5Z"/>
      <rect class="cls-3" y="42.22" width="401" height="184"/>
      <path class="cls-2" d="M166.94,118l3.6-17.18h12.02l-.61,2.87h-8.48l-.87,4.12h8.32l-.6,2.87h-8.32l-1.52,7.31h-3.54ZM185.22,100.82h3.36l-.63,3.05h-3.36l.63-3.05ZM184.23,105.55h3.36l-2.6,12.45h-3.36l2.6-12.45ZM190.96,105.55h3.19l-.33,1.62c.8-.69,1.54-1.18,2.23-1.46.7-.3,1.43-.44,2.19-.44,1.02,0,1.83.29,2.41.88.59.59.89,1.36.89,2.33,0,.44-.13,1.27-.39,2.49l-1.46,7.04h-3.36l1.48-7.07c.22-1.05.33-1.68.33-1.89,0-.43-.13-.77-.39-1.01-.25-.25-.6-.38-1.05-.38-.49,0-1.04.21-1.64.62-.6.41-1.07.96-1.42,1.64-.25.48-.53,1.47-.84,2.96l-1.07,5.11h-3.36l2.6-12.45ZM214.48,118h-3.19l.28-1.35c-.61.59-1.21,1.01-1.8,1.27-.59.25-1.25.38-1.99.38-1.29,0-2.34-.44-3.14-1.31-.8-.88-1.2-2.18-1.2-3.9,0-1.99.56-3.79,1.69-5.4,1.12-1.61,2.61-2.41,4.46-2.41,1.67,0,2.93.66,3.76,1.99l1.35-6.43h3.36l-3.59,17.18ZM206.71,112.94c0,.89.22,1.59.67,2.09.45.5,1.01.75,1.66.75.61,0,1.18-.21,1.7-.62.53-.42.95-1.06,1.27-1.92.32-.86.48-1.68.48-2.47,0-.9-.24-1.62-.73-2.18-.48-.56-1.04-.83-1.68-.83-.98,0-1.79.55-2.43,1.64-.63,1.09-.95,2.28-.95,3.55ZM229.77,112.82h-8.44c0,.13-.01.23-.01.31,0,.83.23,1.5.7,2,.48.51,1.05.76,1.73.76,1.12,0,1.99-.58,2.61-1.73l3.01.5c-.59,1.21-1.37,2.12-2.36,2.73-.98.6-2.07.9-3.29.9-1.67,0-3.03-.53-4.08-1.58-1.05-1.06-1.57-2.46-1.57-4.21s.47-3.22,1.42-4.55c1.29-1.8,3.13-2.69,5.52-2.69,1.52,0,2.73.47,3.63,1.42.9.94,1.35,2.25,1.35,3.95,0,.81-.08,1.54-.23,2.19ZM226.94,110.77c0-.15.01-.26.01-.34,0-.92-.21-1.61-.62-2.07-.41-.46-.97-.69-1.66-.69s-1.32.26-1.88.78c-.55.52-.92,1.3-1.11,2.32h5.26ZM249.19,118h-3.19l.28-1.35c-.61.59-1.21,1.01-1.81,1.27-.59.25-1.25.38-1.99.38-1.29,0-2.34-.44-3.14-1.31-.8-.88-1.2-2.18-1.2-3.9,0-1.99.56-3.79,1.69-5.4,1.12-1.61,2.61-2.41,4.47-2.41,1.67,0,2.93.66,3.76,1.99l1.35-6.43h3.36l-3.59,17.18ZM241.42,112.94c0,.89.22,1.59.67,2.09.45.5,1.01.75,1.66.75.61,0,1.18-.21,1.7-.62.53-.42.95-1.06,1.27-1.92.32-.86.48-1.68.48-2.47,0-.9-.24-1.62-.73-2.18-.49-.56-1.04-.83-1.68-.83-.98,0-1.79.55-2.43,1.64-.63,1.09-.95,2.28-.95,3.55ZM264.48,112.82h-8.44c0,.13-.01.23-.01.31,0,.83.23,1.5.7,2,.48.51,1.06.76,1.74.76,1.12,0,1.99-.58,2.61-1.73l3.01.5c-.59,1.21-1.37,2.12-2.36,2.73-.98.6-2.07.9-3.29.9-1.67,0-3.03-.53-4.08-1.58-1.05-1.06-1.57-2.46-1.57-4.21s.47-3.22,1.42-4.55c1.29-1.8,3.13-2.69,5.52-2.69,1.52,0,2.74.47,3.63,1.42.9.94,1.35,2.25,1.35,3.95,0,.81-.08,1.54-.24,2.19ZM261.65,110.77c0-.15.01-.26.01-.34,0-.92-.21-1.61-.62-2.07-.41-.46-.97-.69-1.66-.69s-1.32.26-1.88.78c-.55.52-.92,1.3-1.11,2.32h5.26ZM269.31,100.82h3.36l-.63,3.05h-3.36l.63-3.05ZM268.33,105.55h3.36l-2.6,12.45h-3.36l2.6-12.45ZM275.05,105.55h3.19l-.33,1.62c.8-.69,1.54-1.18,2.23-1.46.69-.3,1.42-.44,2.19-.44,1.02,0,1.83.29,2.41.88.59.59.89,1.36.89,2.33,0,.44-.13,1.27-.39,2.49l-1.46,7.04h-3.36l1.48-7.07c.22-1.05.33-1.68.33-1.89,0-.43-.13-.77-.39-1.01-.25-.25-.6-.38-1.05-.38-.49,0-1.04.21-1.64.62-.6.41-1.07.96-1.42,1.64-.25.48-.53,1.47-.84,2.96l-1.07,5.11h-3.36l2.6-12.45ZM299.2,112.82h-8.44c0,.13-.01.23-.01.31,0,.83.23,1.5.7,2,.48.51,1.05.76,1.74.76,1.12,0,1.99-.58,2.61-1.73l3.01.5c-.59,1.21-1.37,2.12-2.36,2.73-.98.6-2.07.9-3.29.9-1.67,0-3.03-.53-4.08-1.58-1.05-1.06-1.57-2.46-1.57-4.21s.47-3.22,1.42-4.55c1.29-1.8,3.13-2.69,5.52-2.69,1.52,0,2.74.47,3.63,1.42.9.94,1.35,2.25,1.35,3.95,0,.81-.08,1.54-.23,2.19ZM296.36,110.77c0-.15.01-.26.01-.34,0-.92-.21-1.61-.62-2.07-.41-.46-.97-.69-1.66-.69s-1.32.26-1.88.78c-.55.52-.92,1.3-1.11,2.32h5.26ZM303.09,105.55h3.19l-.33,1.62c.8-.69,1.54-1.18,2.23-1.46.7-.3,1.43-.44,2.19-.44,1.02,0,1.83.29,2.41.88.59.59.89,1.36.89,2.33,0,.44-.13,1.27-.39,2.49l-1.47,7.04h-3.36l1.48-7.07c.22-1.05.33-1.68.33-1.89,0-.43-.13-.77-.39-1.01-.25-.25-.6-.38-1.06-.38-.49,0-1.04.21-1.64.62-.6.41-1.07.96-1.42,1.64-.25.48-.53,1.47-.84,2.96l-1.07,5.11h-3.36l2.6-12.45ZM170.51,146h-3.54l3.6-17.18h6.98c1.24,0,2.22.15,2.94.45.73.29,1.3.77,1.72,1.45.42.67.63,1.48.63,2.41,0,.87-.17,1.71-.5,2.53-.34.82-.75,1.48-1.24,1.97-.48.49-1.01.87-1.57,1.12-.56.25-1.32.44-2.27.57-.55.08-1.59.12-3.12.12h-2.26l-1.37,6.55ZM172.47,136.6h1.09c1.87,0,3.11-.12,3.74-.35.62-.23,1.12-.61,1.48-1.12.36-.52.54-1.08.54-1.7,0-.41-.09-.75-.28-1.02-.18-.27-.44-.46-.77-.57-.33-.12-1.07-.19-2.21-.19h-2.53l-1.04,4.96ZM187.71,137.08l-3.28-.28c.38-1.11,1.03-1.98,1.96-2.6.94-.62,2.18-.94,3.71-.94s2.79.32,3.55.97c.77.64,1.15,1.43,1.15,2.36,0,.38-.04.77-.11,1.19-.06.42-.29,1.53-.69,3.33-.33,1.48-.49,2.52-.49,3.12,0,.53.09,1.12.28,1.77h-3.27c-.13-.45-.21-.92-.25-1.41-.49.55-1.06.97-1.7,1.26-.64.29-1.29.43-1.93.43-1.03,0-1.88-.34-2.55-1.01-.67-.68-1.01-1.55-1.01-2.61,0-1.19.37-2.14,1.1-2.85.74-.71,2.06-1.14,3.96-1.29,1.6-.13,2.67-.29,3.21-.48.14-.47.21-.84.21-1.12,0-.36-.14-.66-.43-.9-.29-.24-.72-.36-1.29-.36-.6,0-1.08.12-1.43.38-.34.24-.58.59-.7,1.04ZM190.91,140.2c-.2.06-.47.1-.81.15-1.69.2-2.79.5-3.3.89-.37.28-.55.66-.55,1.14,0,.39.14.72.42,1,.28.27.65.4,1.11.4.51,0,.98-.12,1.43-.36.45-.25.79-.57,1.01-.95.23-.39.43-1,.6-1.82l.09-.45ZM198.74,133.55h3.14l-.5,2.42c1.17-1.81,2.44-2.71,3.81-2.71.48,0,1,.12,1.56.36l-1.29,2.75c-.3-.11-.63-.16-.97-.16-.58,0-1.17.22-1.77.66-.59.44-1.06,1.02-1.39,1.76-.34.73-.67,1.88-1,3.47l-.82,3.9h-3.36l2.6-12.45ZM205.62,146l3.6-17.18h3.36l-1.88,8.94,4.38-4.21h4.37l-5,4.52,2.66,7.92h-3.36l-1.71-5.75-2.27,2.02-.79,3.74h-3.36ZM221.54,133.55h3.19l-.27,1.28c.68-.56,1.32-.96,1.91-1.21.59-.24,1.23-.36,1.91-.36,1.3,0,2.35.45,3.14,1.35.8.9,1.2,2.24,1.2,4.02,0,2.24-.68,4.14-2.05,5.68-1.17,1.32-2.56,1.98-4.16,1.98s-2.89-.67-3.74-2l-1.35,6.46h-3.36l3.59-17.19ZM223.56,140.69c0,.97.23,1.72.7,2.26.48.53,1.04.8,1.68.8.55,0,1.09-.2,1.61-.6.52-.41.94-1.07,1.28-2,.34-.94.52-1.8.52-2.6,0-.93-.22-1.64-.67-2.13-.45-.5-1.01-.75-1.7-.75-.64,0-1.23.23-1.76.69-.52.45-.93,1.12-1.22,2.02-.29.88-.43,1.66-.43,2.32ZM233.69,146l3.6-17.18h3.35l-3.59,17.18h-3.36ZM245.14,137.08l-3.28-.28c.37-1.11,1.03-1.98,1.96-2.6.94-.62,2.17-.94,3.71-.94s2.79.32,3.55.97c.77.64,1.15,1.43,1.15,2.36,0,.38-.04.77-.11,1.19-.06.42-.29,1.53-.69,3.33-.33,1.48-.49,2.52-.49,3.12,0,.53.09,1.12.28,1.77h-3.27c-.13-.45-.21-.92-.25-1.41-.49.55-1.06.97-1.7,1.26-.64.29-1.28.43-1.93.43-1.03,0-1.88-.34-2.55-1.01-.67-.68-1.01-1.55-1.01-2.61,0-1.19.37-2.14,1.1-2.85.74-.71,2.06-1.14,3.96-1.29,1.6-.13,2.67-.29,3.21-.48.14-.47.21-.84.21-1.12,0-.36-.14-.66-.43-.9s-.72-.36-1.29-.36c-.6,0-1.08.12-1.43.38-.34.24-.58.59-.7,1.04ZM248.34,140.2c-.2.06-.47.1-.81.15-1.69.2-2.79.5-3.3.89-.37.28-.55.66-.55,1.14,0,.39.14.72.42,1,.28.27.65.4,1.11.4.51,0,.98-.12,1.43-.36.45-.25.79-.57,1.01-.95.23-.39.43-1,.6-1.82l.09-.45ZM254.59,136.05l.51-2.5h1.64l.41-1.99,3.86-2.32-.9,4.31h2.05l-.52,2.5h-2.06l-1.09,5.21c-.19.95-.29,1.48-.29,1.62,0,.26.08.46.25.61.16.14.46.21.89.21.15,0,.52-.03,1.11-.08l-.53,2.5c-.58.12-1.17.18-1.78.18-1.19,0-2.05-.23-2.59-.68-.54-.46-.81-1.1-.81-1.91,0-.38.14-1.27.43-2.65l1.04-5h-1.63ZM261.18,146l.48-2.27,6.82-7.55h-5.57l.55-2.62h9.76l-.41,2-6.88,7.72h5.99l-.57,2.72h-10.17ZM284.01,128.82h3.36l-.63,3.05h-3.36l.63-3.05ZM283.02,133.55h3.36l-2.6,12.45h-3.36l2.6-12.45ZM289.75,133.55h3.19l-.33,1.62c.8-.69,1.54-1.18,2.23-1.47.7-.3,1.43-.44,2.19-.44,1.02,0,1.83.29,2.41.88.59.59.89,1.36.89,2.33,0,.44-.13,1.27-.39,2.49l-1.47,7.04h-3.36l1.48-7.07c.22-1.05.33-1.68.33-1.89,0-.43-.13-.77-.39-1.01-.25-.25-.6-.38-1.06-.38-.49,0-1.04.21-1.64.62-.6.41-1.07.96-1.42,1.64-.25.48-.53,1.47-.84,2.96l-1.07,5.11h-3.36l2.6-12.45ZM166.96,174l3.6-17.18h5.87c1.27,0,2.16.04,2.67.12.84.12,1.56.35,2.14.7.59.35,1.03.82,1.34,1.41.3.59.46,1.23.46,1.94,0,.95-.27,1.78-.8,2.48-.53.7-1.35,1.22-2.46,1.58.88.24,1.57.68,2.06,1.3.5.62.75,1.32.75,2.1,0,1.03-.29,2.01-.88,2.94-.59.92-1.39,1.59-2.43,1.99-1.03.41-2.44.61-4.23.61h-8.1ZM172.63,163.76h2.7c1.21,0,2.08-.09,2.61-.26.53-.17.93-.45,1.2-.84.27-.39.4-.81.4-1.25s-.12-.8-.38-1.08c-.25-.28-.61-.47-1.07-.56-.26-.05-.88-.07-1.86-.07h-2.74l-.86,4.07ZM171.07,171.23h3.41c1.43,0,2.39-.09,2.87-.27.49-.19.88-.49,1.17-.91.3-.42.45-.87.45-1.34,0-.57-.21-1.04-.63-1.41-.42-.38-1.12-.56-2.11-.56h-4.22l-.94,4.49ZM189.05,165.08l-3.28-.28c.38-1.11,1.03-1.98,1.96-2.6.94-.62,2.18-.94,3.71-.94s2.79.32,3.55.97c.77.64,1.15,1.43,1.15,2.36,0,.38-.04.77-.11,1.19-.06.42-.29,1.53-.69,3.33-.33,1.48-.49,2.52-.49,3.12,0,.53.09,1.12.28,1.77h-3.27c-.13-.45-.21-.92-.25-1.41-.49.55-1.06.97-1.7,1.26-.64.29-1.29.43-1.93.43-1.03,0-1.88-.34-2.55-1.01-.67-.68-1.01-1.55-1.01-2.61,0-1.19.37-2.14,1.1-2.85.74-.71,2.06-1.14,3.96-1.29,1.6-.13,2.67-.29,3.21-.48.14-.47.21-.84.21-1.12,0-.36-.14-.66-.43-.9-.29-.24-.72-.36-1.29-.36-.6,0-1.08.12-1.43.38-.34.24-.58.59-.7,1.04ZM192.25,168.2c-.2.06-.47.1-.81.15-1.69.2-2.79.5-3.3.89-.37.28-.55.66-.55,1.14,0,.39.14.72.42,1,.28.27.65.4,1.11.4.51,0,.98-.12,1.43-.36.45-.25.79-.57,1.01-.95.23-.39.43-1,.6-1.82l.09-.45ZM197.23,170.52l3.26-.51c.29.69.65,1.17,1.08,1.46.43.28,1.02.42,1.76.42s1.38-.17,1.84-.52c.32-.23.48-.52.48-.86,0-.23-.08-.43-.25-.61-.17-.17-.64-.38-1.39-.63-2.03-.67-3.29-1.2-3.77-1.59-.76-.61-1.14-1.41-1.14-2.39s.37-1.83,1.1-2.54c1.02-.99,2.54-1.49,4.56-1.49,1.6,0,2.81.29,3.63.88.82.59,1.34,1.38,1.56,2.38l-3.11.54c-.16-.45-.43-.79-.8-1.02-.5-.3-1.1-.46-1.8-.46s-1.21.12-1.52.35c-.3.24-.46.5-.46.81s.16.57.47.77c.2.12.82.34,1.89.66,1.64.48,2.74.94,3.29,1.41.78.65,1.17,1.43,1.17,2.34,0,1.18-.5,2.2-1.49,3.07-.99.87-2.39,1.3-4.2,1.3s-3.19-.33-4.17-.99c-.98-.66-1.64-1.59-1.99-2.79ZM223.14,168.82h-8.44c0,.13-.01.23-.01.3,0,.83.23,1.5.7,2,.48.51,1.05.76,1.73.76,1.12,0,1.99-.58,2.61-1.73l3.01.5c-.59,1.21-1.37,2.12-2.36,2.73-.98.6-2.07.9-3.29.9-1.67,0-3.03-.53-4.08-1.58-1.05-1.06-1.57-2.47-1.57-4.21s.47-3.22,1.42-4.55c1.29-1.8,3.13-2.69,5.52-2.69,1.52,0,2.73.47,3.63,1.42.9.94,1.35,2.25,1.35,3.95,0,.81-.08,1.54-.23,2.19ZM220.3,166.77c0-.15.01-.26.01-.34,0-.92-.21-1.61-.62-2.07-.41-.46-.97-.69-1.66-.69s-1.32.26-1.88.79c-.55.52-.92,1.3-1.11,2.32h5.26ZM224.36,174l3.6-17.18h3.35l-3.59,17.18h-3.36Z"/>
      <rect class="cls-1" x="377.55" y="18.55" width="188.9" height="188.9" transform="translate(-13.3 107.2) rotate(-12.78)"/>
      <path class="cls-2" d="M446.16,184.49l-27.35-120.59,39.22-8.89c14.86-3.37,24.68-4.96,29.47-4.78,7.35.24,14.05,2.87,20.11,7.89,6.05,4.97,10.16,12.26,12.33,21.85,1.68,7.4,1.74,13.93.19,19.59-1.55,5.66-4.09,10.41-7.61,14.27-3.48,3.79-7.26,6.64-11.34,8.54-5.57,2.48-13.89,4.97-24.95,7.48l-15.93,3.61,10.32,45.49-24.44,5.54ZM447.88,78.75l7.76,34.22,13.38-3.03c9.63-2.19,15.93-4.28,18.89-6.27,2.96-2,5.04-4.55,6.25-7.64,1.26-3.11,1.49-6.45.68-10.01-1-4.39-3.11-7.71-6.34-9.98-3.23-2.26-6.91-3.3-11.04-3.12-3.04.11-8.97,1.17-17.77,3.17l-11.81,2.68Z"/>
      <path class="cls-1" d="M166,85.47h55v2h-55v-2Z"/>
    </g>
  </g>
</svg>