<?xml version="1.0" encoding="UTF-8"?>
<svg id="Layer_2" xmlns="http://www.w3.org/2000/svg" viewBox="0 0 593.76 248.09">
  <defs>
    <style>
      .cls-1 {
        fill: #010101;
      }

      .cls-2 {
        fill: #035494;
      }

      .cls-3 {
        fill: #fff;
      }

      .cls-4 {
        fill: rgba(121, 182, 227, .85);
      }

      .cls-5 {
        fill: #172d3f;
      }
    </style>
  </defs>
  <g id="Layer_1-2" data-name="Layer_1">
    <g>
      <path class="cls-5" d="M33.76,248.09l151-22-148.5-41.5-2.5,63.5Z"/>
      <rect class="cls-4" x="183.76" y="42.59" width="410" height="184"/>
      <path class="cls-3" d="M315.83,118l3.6-17.18h5.87c1.27,0,2.16.04,2.67.12.84.12,1.56.35,2.14.7.59.35,1.03.82,1.34,1.41.3.59.46,1.23.46,1.95,0,.95-.27,1.78-.8,2.49-.53.69-1.35,1.22-2.46,1.58.88.24,1.57.68,2.06,1.3.5.62.75,1.32.75,2.1,0,1.03-.29,2.01-.88,2.94-.59.92-1.39,1.59-2.43,1.99-1.03.41-2.44.61-4.23.61h-8.1ZM321.5,107.76h2.7c1.21,0,2.08-.09,2.61-.26s.93-.45,1.2-.84c.27-.39.4-.81.4-1.25s-.12-.8-.38-1.08c-.25-.28-.61-.47-1.07-.56-.26-.05-.88-.07-1.86-.07h-2.74l-.86,4.07ZM319.94,115.23h3.41c1.43,0,2.39-.09,2.87-.27.49-.19.88-.49,1.17-.91.3-.42.45-.87.45-1.34,0-.57-.21-1.04-.63-1.41-.42-.38-1.12-.56-2.11-.56h-4.22l-.94,4.49ZM336.76,100.82h3.36l-.63,3.05h-3.36l.63-3.05ZM335.77,105.55h3.36l-2.6,12.44h-3.36l2.6-12.44ZM339.42,114.52l3.26-.52c.29.69.65,1.18,1.08,1.47.43.28,1.02.42,1.76.42s1.38-.17,1.84-.52c.32-.23.48-.52.48-.85,0-.23-.08-.43-.25-.61-.17-.17-.64-.38-1.39-.63-2.03-.67-3.29-1.2-3.77-1.59-.76-.61-1.14-1.41-1.14-2.39s.37-1.83,1.1-2.54c1.02-.99,2.54-1.49,4.56-1.49,1.6,0,2.81.29,3.63.88s1.34,1.38,1.56,2.38l-3.11.54c-.16-.45-.43-.79-.8-1.02-.5-.3-1.1-.46-1.8-.46s-1.21.12-1.52.35c-.3.23-.46.5-.46.81s.16.57.47.77c.2.12.82.34,1.89.66,1.64.48,2.74.95,3.29,1.41.78.65,1.17,1.43,1.17,2.34,0,1.18-.5,2.2-1.49,3.07-.99.87-2.39,1.3-4.2,1.3s-3.19-.33-4.17-.98c-.98-.66-1.64-1.59-1.99-2.79ZM359.33,118l.48-2.27,6.82-7.55h-5.57l.55-2.62h9.76l-.41,2-6.88,7.72h5.99l-.57,2.72h-10.17ZM374.47,105.55h3.36l-1.54,7.37c-.19.88-.28,1.43-.28,1.65,0,.36.13.67.4.93.27.26.61.39,1.02.39.3,0,.59-.06.88-.16.29-.12.59-.29.89-.52.3-.23.58-.5.82-.8s.47-.69.68-1.17c.15-.36.31-.95.48-1.76l1.24-5.93h3.36l-2.6,12.44h-3.14l.35-1.69c-1.38,1.32-2.87,1.98-4.49,1.98-1.02,0-1.83-.29-2.41-.88s-.88-1.37-.88-2.35c0-.43.13-1.29.4-2.57l1.45-6.94ZM395.13,108.13l.63-3c2.9-1.27,5.14-2.74,6.73-4.42h2.05l-3.62,17.29h-3.39l2.5-11.91c-.7.45-1.52.87-2.44,1.24-.91.38-1.73.64-2.46.8ZM419.46,105.01l-3.15.26c-.06-.68-.23-1.16-.49-1.43-.26-.27-.61-.41-1.05-.41-.57,0-1.08.23-1.52.68-.63.65-1.14,1.7-1.52,3.14.73-.48,1.5-.71,2.31-.71,1.33,0,2.42.45,3.28,1.36.86.91,1.29,2.14,1.29,3.7,0,1.24-.3,2.42-.9,3.53-.6,1.1-1.35,1.91-2.25,2.41-.9.51-1.85.76-2.85.76s-1.83-.24-2.6-.72c-.77-.48-1.36-1.19-1.78-2.11-.41-.92-.62-2.16-.62-3.7,0-3.07.68-5.68,2.04-7.82,1.36-2.14,3.15-3.21,5.38-3.21,1.28,0,2.3.35,3.06,1.06s1.22,1.77,1.39,3.21ZM410.82,112.95c0,.91.18,1.57.54,2,.36.43.8.65,1.34.65.66,0,1.22-.31,1.69-.91.63-.82.95-1.92.95-3.31,0-.89-.18-1.55-.53-1.97-.35-.43-.78-.64-1.29-.64-.43,0-.86.16-1.3.49-.44.32-.78.84-1.03,1.55-.24.7-.36,1.42-.36,2.14ZM272.62,146h-2.89l-2.5-12.44h3.3l.88,5.43c.24,1.47.39,2.45.43,2.93.06-.13.33-.64.81-1.51.48-.88.78-1.41.89-1.59l3.09-5.25h3.63l-7.65,12.44ZM291.87,140.82h-8.44c0,.13-.01.24-.01.3,0,.83.24,1.5.7,2,.48.51,1.05.76,1.73.76,1.12,0,1.99-.58,2.61-1.74l3.01.5c-.59,1.21-1.37,2.12-2.36,2.73-.98.6-2.07.9-3.29.9-1.67,0-3.03-.53-4.08-1.58-1.05-1.06-1.57-2.46-1.57-4.21s.47-3.22,1.42-4.55c1.29-1.8,3.13-2.69,5.52-2.69,1.52,0,2.73.47,3.63,1.42.9.94,1.35,2.25,1.35,3.95,0,.81-.08,1.54-.23,2.19ZM289.04,138.77c0-.15.01-.26.01-.34,0-.92-.21-1.61-.62-2.07-.41-.46-.97-.69-1.66-.69s-1.32.26-1.88.79c-.55.52-.92,1.3-1.11,2.32h5.26ZM295.53,133.55h3.14l-.5,2.41c1.17-1.81,2.44-2.71,3.81-2.71.49,0,1,.12,1.56.36l-1.29,2.75c-.3-.11-.63-.16-.97-.16-.58,0-1.17.22-1.77.66-.59.44-1.06,1.02-1.4,1.76-.34.73-.67,1.88-1,3.47l-.82,3.9h-3.36l2.6-12.44ZM302.03,142.52l3.26-.52c.29.69.65,1.18,1.08,1.47.43.28,1.02.42,1.76.42s1.38-.17,1.84-.52c.32-.23.48-.52.48-.85,0-.23-.08-.43-.25-.61-.17-.17-.64-.38-1.39-.63-2.03-.67-3.29-1.2-3.77-1.59-.76-.61-1.14-1.41-1.14-2.39s.37-1.83,1.1-2.54c1.02-.99,2.54-1.49,4.56-1.49,1.6,0,2.81.29,3.63.88s1.34,1.38,1.56,2.38l-3.11.54c-.16-.45-.43-.79-.8-1.02-.5-.3-1.1-.46-1.8-.46s-1.21.12-1.52.35c-.31.23-.46.5-.46.81s.16.57.47.77c.2.12.82.34,1.89.66,1.64.48,2.74.95,3.29,1.41.78.65,1.17,1.43,1.17,2.34,0,1.18-.5,2.2-1.49,3.07-.99.87-2.39,1.3-4.2,1.3s-3.19-.33-4.17-.98c-.98-.66-1.64-1.59-1.99-2.79ZM324.26,141.31l3.27.53c-.54,1.45-1.34,2.56-2.39,3.32-1.05.76-2.28,1.14-3.67,1.14-1.59,0-2.84-.47-3.77-1.42-.93-.94-1.39-2.25-1.39-3.9,0-1.35.28-2.63.84-3.83.56-1.2,1.41-2.15,2.54-2.84,1.13-.7,2.38-1.04,3.73-1.04,1.47,0,2.64.38,3.52,1.15.88.77,1.37,1.77,1.48,3.02l-3.2.34c-.08-.7-.29-1.21-.64-1.54-.34-.33-.8-.49-1.36-.49-.65,0-1.25.24-1.82.73-.56.48-1,1.21-1.3,2.18-.3.96-.45,1.86-.45,2.71,0,.73.18,1.3.54,1.7.36.4.81.6,1.35.6s1.06-.2,1.56-.59c.5-.39.89-.98,1.17-1.76ZM332.6,146h-3.36l3.6-17.18h3.36l-1.29,6.12c.76-.59,1.46-1.02,2.12-1.28.66-.26,1.36-.4,2.11-.4,1.01,0,1.8.29,2.39.87.59.58.88,1.34.88,2.27,0,.5-.11,1.27-.33,2.32l-1.52,7.28h-3.36l1.56-7.42c.16-.8.25-1.32.25-1.55,0-.41-.13-.75-.39-1s-.61-.38-1.05-.38c-.56,0-1.1.2-1.62.59-.67.52-1.18,1.15-1.54,1.9-.2.41-.45,1.39-.77,2.92l-1.03,4.93ZM347.44,128.82h3.36l-.63,3.05h-3.36l.63-3.05ZM346.46,133.55h3.36l-2.6,12.44h-3.36l2.6-12.44ZM362.66,140.82h-8.44c0,.13-.01.24-.01.3,0,.83.23,1.5.7,2,.48.51,1.05.76,1.73.76,1.12,0,1.99-.58,2.61-1.74l3.01.5c-.59,1.21-1.37,2.12-2.36,2.73-.98.6-2.07.9-3.29.9-1.67,0-3.03-.53-4.08-1.58-1.05-1.06-1.57-2.46-1.57-4.21s.47-3.22,1.42-4.55c1.29-1.8,3.13-2.69,5.52-2.69,1.52,0,2.73.47,3.63,1.42.9.94,1.35,2.25,1.35,3.95,0,.81-.08,1.54-.23,2.19ZM359.82,138.77c0-.15.01-.26.01-.34,0-.92-.21-1.61-.62-2.07-.41-.46-.97-.69-1.66-.69s-1.32.26-1.88.79c-.55.52-.92,1.3-1.11,2.32h5.26ZM375.39,146h-3.19l.28-1.35c-.61.59-1.21,1.01-1.8,1.26-.59.25-1.25.38-1.99.38-1.29,0-2.34-.44-3.14-1.31-.8-.88-1.2-2.18-1.2-3.9,0-1.99.56-3.79,1.69-5.4,1.12-1.61,2.61-2.41,4.46-2.41,1.67,0,2.93.66,3.76,1.99l1.35-6.43h3.36l-3.59,17.18ZM367.62,140.94c0,.89.22,1.59.67,2.09.45.5,1.01.75,1.66.75.61,0,1.18-.21,1.7-.62.53-.42.95-1.06,1.27-1.92.32-.86.48-1.68.48-2.47,0-.9-.24-1.62-.73-2.18-.48-.55-1.04-.83-1.68-.83-.98,0-1.79.55-2.43,1.64-.63,1.09-.95,2.28-.95,3.55ZM390.69,140.82h-8.44c0,.13-.01.24-.01.3,0,.83.23,1.5.7,2,.48.51,1.05.76,1.73.76,1.12,0,1.99-.58,2.61-1.74l3.01.5c-.59,1.21-1.37,2.12-2.36,2.73-.98.6-2.07.9-3.29.9-1.67,0-3.03-.53-4.08-1.58-1.05-1.06-1.57-2.46-1.57-4.21s.47-3.22,1.42-4.55c1.29-1.8,3.13-2.69,5.52-2.69,1.52,0,2.73.47,3.63,1.42.9.94,1.35,2.25,1.35,3.95,0,.81-.08,1.54-.23,2.19ZM387.85,138.77c0-.15.01-.26.01-.34,0-.92-.21-1.61-.62-2.07s-.97-.69-1.66-.69-1.32.26-1.88.79c-.55.52-.92,1.3-1.11,2.32h5.26ZM394.58,133.55h3.19l-.33,1.62c.8-.69,1.54-1.18,2.23-1.46.7-.3,1.43-.44,2.19-.44,1.02,0,1.83.29,2.41.88.59.59.89,1.36.89,2.33,0,.44-.13,1.26-.39,2.48l-1.46,7.04h-3.36l1.48-7.07c.22-1.06.33-1.68.33-1.89,0-.43-.13-.77-.39-1.01-.25-.25-.6-.38-1.05-.38-.49,0-1.04.21-1.64.62-.6.41-1.07.96-1.42,1.64-.25.48-.53,1.47-.84,2.96l-1.07,5.11h-3.36l2.6-12.44ZM418.72,140.82h-8.44c0,.13-.01.24-.01.3,0,.83.23,1.5.7,2,.48.51,1.05.76,1.73.76,1.12,0,1.99-.58,2.61-1.74l3.01.5c-.59,1.21-1.37,2.12-2.36,2.73-.98.6-2.07.9-3.29.9-1.67,0-3.03-.53-4.08-1.58-1.05-1.06-1.57-2.46-1.57-4.21s.47-3.22,1.42-4.55c1.29-1.8,3.13-2.69,5.52-2.69,1.52,0,2.73.47,3.63,1.42.9.94,1.35,2.25,1.35,3.95,0,.81-.08,1.54-.23,2.19ZM415.88,138.77c0-.15.01-.26.01-.34,0-.92-.21-1.61-.62-2.07s-.97-.69-1.66-.69-1.32.26-1.88.79c-.55.52-.92,1.3-1.11,2.32h5.26ZM287.32,174h-3.54l3.6-17.18h6.98c1.24,0,2.22.15,2.94.45.73.29,1.3.77,1.72,1.45.42.67.63,1.48.63,2.41,0,.87-.17,1.71-.5,2.53-.34.82-.75,1.48-1.24,1.97-.49.49-1.01.87-1.57,1.12-.56.25-1.32.44-2.27.57-.55.08-1.59.12-3.12.12h-2.26l-1.37,6.55ZM289.27,164.6h1.09c1.87,0,3.11-.12,3.74-.35.62-.23,1.12-.61,1.48-1.12.36-.51.54-1.08.54-1.7,0-.41-.09-.75-.28-1.02-.18-.26-.44-.46-.77-.57-.33-.12-1.07-.19-2.21-.19h-2.53l-1.04,4.96ZM304.52,165.08l-3.28-.28c.38-1.11,1.03-1.98,1.96-2.6.94-.62,2.18-.94,3.71-.94s2.79.32,3.55.97c.76.64,1.15,1.43,1.15,2.35,0,.38-.04.77-.1,1.2-.06.42-.29,1.53-.69,3.33-.33,1.49-.49,2.52-.49,3.12,0,.53.09,1.12.28,1.77h-3.27c-.13-.45-.22-.92-.25-1.41-.49.55-1.06.97-1.7,1.27-.64.29-1.29.43-1.93.43-1.03,0-1.88-.34-2.55-1.01-.67-.68-1.01-1.55-1.01-2.61,0-1.19.37-2.14,1.1-2.85.74-.71,2.06-1.14,3.96-1.29,1.6-.13,2.67-.29,3.21-.48.14-.47.21-.84.21-1.12,0-.36-.15-.66-.43-.9-.29-.24-.72-.36-1.29-.36-.6,0-1.08.12-1.43.38-.34.24-.58.59-.7,1.04ZM307.72,168.2c-.2.05-.47.11-.81.15-1.69.2-2.79.5-3.3.89-.37.28-.55.66-.55,1.14,0,.39.14.72.42,1,.28.27.65.4,1.11.4.51,0,.99-.12,1.43-.36.45-.25.79-.57,1.01-.95.23-.39.43-1,.6-1.82l.09-.45ZM315.55,161.55h3.14l-.5,2.41c1.17-1.81,2.44-2.71,3.81-2.71.48,0,1,.12,1.56.36l-1.29,2.75c-.3-.11-.63-.16-.97-.16-.58,0-1.17.22-1.77.66-.59.44-1.06,1.02-1.39,1.76-.34.73-.67,1.88-1,3.47l-.82,3.9h-3.36l2.6-12.44ZM322.42,174l3.6-17.18h3.36l-1.88,8.94,4.38-4.21h4.37l-5,4.52,2.66,7.92h-3.36l-1.71-5.75-2.27,2.02-.79,3.74h-3.36ZM339.25,174h-3.36l3.6-17.18h3.36l-1.29,6.12c.76-.59,1.46-1.02,2.12-1.28.66-.26,1.36-.4,2.11-.4,1.01,0,1.8.29,2.39.87.59.58.88,1.34.88,2.27,0,.5-.11,1.27-.33,2.32l-1.52,7.28h-3.36l1.56-7.42c.16-.8.25-1.32.25-1.55,0-.41-.13-.75-.39-1s-.61-.38-1.05-.38c-.56,0-1.1.2-1.62.59-.67.52-1.18,1.15-1.54,1.9-.2.41-.45,1.39-.77,2.92l-1.03,4.93ZM355.26,165.08l-3.28-.28c.38-1.11,1.03-1.98,1.96-2.6.94-.62,2.18-.94,3.71-.94s2.79.32,3.55.97c.77.64,1.15,1.43,1.15,2.35,0,.38-.04.77-.11,1.2-.06.42-.29,1.53-.69,3.33-.33,1.49-.49,2.52-.49,3.12,0,.53.09,1.12.28,1.77h-3.27c-.13-.45-.21-.92-.25-1.41-.49.55-1.06.97-1.7,1.27-.64.29-1.29.43-1.93.43-1.03,0-1.88-.34-2.55-1.01-.67-.68-1.01-1.55-1.01-2.61,0-1.19.37-2.14,1.1-2.85.74-.71,2.06-1.14,3.96-1.29,1.6-.13,2.67-.29,3.21-.48.14-.47.21-.84.21-1.12,0-.36-.14-.66-.43-.9-.29-.24-.72-.36-1.29-.36-.6,0-1.08.12-1.43.38-.34.24-.58.59-.7,1.04ZM358.46,168.2c-.2.05-.47.11-.81.15-1.69.2-2.79.5-3.3.89-.37.28-.55.66-.55,1.14,0,.39.14.72.42,1,.28.27.65.4,1.11.4.51,0,.98-.12,1.43-.36.45-.25.79-.57,1.01-.95.23-.39.43-1,.6-1.82l.09-.45ZM355.03,156.8h2.88l-.6,2.87h-2.88l.6-2.87ZM359.96,156.8h2.88l-.6,2.87h-2.88l.6-2.87ZM366.45,161.55h3.36l-1.54,7.37c-.19.88-.28,1.43-.28,1.65,0,.36.13.67.4.93.27.26.61.39,1.02.39.3,0,.59-.06.88-.16.29-.12.59-.29.89-.52.3-.23.58-.5.82-.8.24-.3.47-.69.68-1.17.15-.36.31-.95.48-1.76l1.24-5.93h3.36l-2.6,12.44h-3.14l.35-1.69c-1.38,1.32-2.87,1.98-4.49,1.98-1.02,0-1.83-.29-2.41-.88s-.88-1.37-.88-2.35c0-.43.13-1.29.4-2.57l1.45-6.94ZM378.11,170.52l3.26-.52c.29.69.65,1.18,1.08,1.47.43.28,1.02.42,1.76.42s1.38-.17,1.84-.52c.32-.23.48-.52.48-.85,0-.23-.08-.43-.25-.61-.17-.17-.64-.38-1.39-.63-2.03-.67-3.29-1.2-3.77-1.59-.76-.61-1.14-1.41-1.14-2.39s.37-1.83,1.1-2.54c1.02-.99,2.54-1.49,4.56-1.49,1.6,0,2.81.29,3.63.88s1.34,1.38,1.56,2.38l-3.11.54c-.16-.45-.43-.79-.8-1.02-.5-.3-1.1-.46-1.8-.46s-1.21.12-1.52.35c-.3.23-.46.5-.46.81s.16.57.47.77c.2.12.82.34,1.89.66,1.64.48,2.74.95,3.29,1.41.78.65,1.17,1.43,1.17,2.34,0,1.18-.5,2.2-1.49,3.07-.99.87-2.39,1.3-4.2,1.3s-3.19-.33-4.17-.98c-.98-.66-1.64-1.59-1.99-2.79ZM404.02,168.82h-8.44c0,.13-.01.24-.01.3,0,.83.23,1.5.7,2,.48.51,1.05.76,1.73.76,1.12,0,1.99-.58,2.61-1.74l3.01.5c-.59,1.21-1.37,2.12-2.36,2.73-.98.6-2.07.9-3.29.9-1.67,0-3.03-.53-4.08-1.58-1.05-1.06-1.57-2.46-1.57-4.21s.47-3.22,1.42-4.55c1.29-1.8,3.13-2.69,5.52-2.69,1.52,0,2.73.47,3.63,1.42.9.94,1.35,2.25,1.35,3.95,0,.81-.08,1.54-.23,2.19ZM401.19,166.77c0-.15.01-.26.01-.34,0-.92-.21-1.61-.62-2.07s-.97-.69-1.66-.69-1.32.26-1.88.79c-.55.52-.92,1.3-1.11,2.32h5.26ZM407.68,161.55h3.14l-.5,2.41c1.17-1.81,2.44-2.71,3.81-2.71.48,0,1,.12,1.56.36l-1.29,2.75c-.3-.11-.63-.16-.97-.16-.58,0-1.17.22-1.77.66-.59.44-1.06,1.02-1.39,1.76-.34.73-.67,1.88-1,3.47l-.82,3.9h-3.36l2.6-12.44ZM414.05,170.75h3.33l-.68,3.25h-3.33l.68-3.25Z"/>
      <rect class="cls-3" x="18.55" y="18.55" width="188.9" height="188.9" transform="translate(-22.2 198.21) rotate(-77.22)"/>
      <path class="cls-2" d="M419,85.47h-55v2h55v-2Z"/>
      <path class="cls-1" d="M109.69,98.6l47.39,11.45c2.29.55,3.72,2.8,3.18,5.04s-2.85,3.64-5.14,3.09l-47.32-11.43-.07-.02c-2.27-.55-3.64-2.85-3.1-5.08.54-2.24,2.8-3.59,5.07-3.04ZM112.78,95.08c-.34,1.42.39,2.7,1.68,3.01l38.55,9.32c1.22.29,2.55-.49,2.89-1.91s-.48-2.72-1.7-3.02l-38.55-9.32c-1.29-.31-2.55.57-2.87,1.91ZM152.39,119.11l-42.75-10.33c-1.36-.33-2.78.54-3.09,1.83-.33,1.36.53,2.78,1.9,3.11l42.75,10.33c1.36.33,2.79-.54,3.11-1.9.31-1.29-.56-2.71-1.92-3.04ZM149.22,125.01l-39.44-9.53-25.86,61.91,20.74-8.86,9.24,16.34,15.76-10.29,14.39,17.35,5.17-66.91ZM118.34,75.36c1.41-5.85-2.67-9.42-5.05-9.99-2.73-.66-5.2.45-6.38,2.92,2.19.21,3.08,1.85,2.74,3.27-.58,2.39-2.27,2.53-3.47,2.24-3.17-.77-3.56-4.05-2.9-6.78.33-1.35,3.86-8.56,12.94-6.36,6.5,1.57,10.33,10.68,8.19,19.53-1.5,6.2-4.3,12.48-4.3,12.48l30.38,7.34c7.7-31.84-4.26-53.44-25.84-58.65-12.48-3.02-30.82,2.24-34.85,18.94-2.63,10.89,2.05,21.66,10.44,23.69,12.37,3.4,16.88-3.56,18.1-8.62Z"/>
    </g>
  </g>
</svg>