<?xml version="1.0" encoding="UTF-8"?>
<svg id="Layer_2" xmlns="http://www.w3.org/2000/svg" viewBox="0 0 1512 248.23">
  <defs>
    <style>
      .cls-1 {
        fill: #035494;
      }

      .cls-2 {
        fill: #fff;
      }

      .cls-3 {
        fill: rgba(121, 182, 227, .85);
      }

      .cls-4 {
        fill: #b5dbf4;
      }

      .cls-5 {
        fill: #172d3f;
      }
    </style>
  </defs>
  <g id="Layer_1-2" data-name="Layer_1">
    <g>
      <path class="cls-3" d="M874.82,42.42h637.18v184h-688l50.82-184Z"/>
      <path class="cls-5" d="M1367.72,248.23l-169.42-22.5,183.92-41.72-14.5,64.22Z"/>
      <rect class="cls-2" x="1174.85" y="18.56" width="188.9" height="188.9" transform="translate(6.44 283.55) rotate(-12.78)"/>
      <path class="cls-2" d="M1011.78,114.01h-3.57l-.39-12.56-6.26,12.56h-3.64l-.64-17.18h3.45l.15,12.02,5.9-12.02h3.83l.4,11.89,5.66-11.89h3.42l-8.31,17.18ZM1021.46,96.83h3.37l-.64,3.05h-3.36l.63-3.05ZM1020.48,101.57h3.36l-2.6,12.44h-3.36l2.6-12.44ZM1026.97,101.57h3.14l-.5,2.41c1.17-1.81,2.44-2.71,3.81-2.71.48,0,1,.12,1.55.36l-1.28,2.75c-.31-.11-.63-.16-.98-.16-.58,0-1.17.22-1.77.66-.59.44-1.06,1.02-1.39,1.76-.34.73-.67,1.88-1,3.47l-.82,3.9h-3.36l2.6-12.44ZM1040.15,110.53l3.26-.52c.29.69.65,1.18,1.08,1.47.43.28,1.02.42,1.76.42s1.38-.17,1.84-.52c.32-.23.48-.52.48-.85,0-.23-.08-.43-.25-.61-.17-.17-.63-.38-1.39-.63-2.03-.67-3.29-1.2-3.78-1.59-.75-.61-1.13-1.41-1.13-2.39s.36-1.83,1.1-2.54c1.02-.99,2.54-1.49,4.56-1.49,1.6,0,2.81.29,3.63.88.82.59,1.34,1.38,1.56,2.38l-3.11.54c-.16-.45-.43-.79-.79-1.02-.5-.3-1.11-.46-1.81-.46s-1.21.12-1.52.35c-.31.23-.46.5-.46.81s.16.57.47.77c.2.12.82.34,1.89.66,1.64.48,2.74.95,3.29,1.41.78.65,1.17,1.43,1.17,2.34,0,1.18-.49,2.2-1.49,3.07-.99.87-2.39,1.3-4.19,1.3s-3.19-.33-4.17-.98c-.98-.66-1.64-1.59-2-2.79ZM1056.53,101.57h3.36l-1.54,7.37c-.18.88-.28,1.43-.28,1.65,0,.36.13.67.4.93.27.26.61.39,1.02.39.3,0,.59-.06.88-.16.29-.12.58-.29.89-.52.3-.23.58-.5.82-.8.24-.3.47-.69.68-1.17.15-.36.31-.95.48-1.76l1.24-5.93h3.37l-2.61,12.44h-3.14l.35-1.69c-1.37,1.32-2.87,1.98-4.48,1.98-1.03,0-1.83-.29-2.42-.88-.58-.59-.88-1.37-.88-2.35,0-.43.14-1.29.4-2.57l1.46-6.94ZM1077.06,109.32l3.27.53c-.54,1.45-1.34,2.56-2.39,3.32-1.06.76-2.28,1.14-3.67,1.14-1.59,0-2.85-.47-3.78-1.42-.93-.94-1.39-2.25-1.39-3.9,0-1.35.28-2.63.84-3.83.57-1.2,1.41-2.15,2.55-2.84,1.13-.7,2.37-1.04,3.72-1.04,1.47,0,2.64.38,3.52,1.15.87.77,1.37,1.77,1.47,3.02l-3.19.34c-.08-.7-.3-1.21-.65-1.54-.34-.33-.8-.49-1.36-.49-.65,0-1.25.24-1.81.73-.57.48-1,1.21-1.31,2.18-.29.96-.44,1.86-.44,2.71,0,.73.18,1.3.54,1.7.36.4.81.6,1.35.6s1.05-.2,1.55-.59c.5-.39.9-.98,1.18-1.76ZM1085.39,114.01h-3.36l3.59-17.18h3.37l-1.29,6.12c.75-.59,1.46-1.02,2.12-1.28.65-.26,1.36-.4,2.11-.4,1.01,0,1.8.29,2.39.87.58.58.88,1.34.88,2.27,0,.5-.11,1.27-.33,2.32l-1.52,7.28h-3.37l1.56-7.42c.16-.8.25-1.32.25-1.55,0-.41-.13-.75-.39-1s-.61-.38-1.05-.38c-.57,0-1.11.2-1.62.59-.67.52-1.19,1.15-1.54,1.9-.19.41-.45,1.39-.77,2.92l-1.03,4.93ZM1108.77,108.83h-8.44c-.01.13-.01.23-.01.3,0,.83.23,1.5.7,2,.48.51,1.06.76,1.74.76,1.11,0,1.98-.58,2.61-1.73l3.01.5c-.59,1.21-1.37,2.12-2.35,2.73-.98.6-2.08.9-3.3.9-1.67,0-3.03-.53-4.08-1.58-1.04-1.06-1.57-2.46-1.57-4.21s.48-3.22,1.42-4.55c1.29-1.8,3.13-2.69,5.52-2.69,1.52,0,2.74.47,3.63,1.42.9.94,1.35,2.25,1.35,3.95,0,.81-.08,1.54-.23,2.19ZM1105.93,106.78c0-.15,0-.26,0-.34,0-.92-.2-1.61-.62-2.07-.41-.46-.97-.69-1.66-.69s-1.32.26-1.88.79c-.54.52-.92,1.3-1.11,2.32h5.26ZM1112.66,101.57h3.19l-.33,1.62c.79-.69,1.54-1.18,2.22-1.47.7-.3,1.43-.44,2.2-.44,1.02,0,1.82.29,2.41.88s.89,1.36.89,2.33c0,.44-.13,1.27-.39,2.48l-1.46,7.04h-3.36l1.47-7.07c.22-1.06.33-1.68.33-1.89,0-.43-.13-.77-.39-1.01-.25-.25-.6-.38-1.05-.38-.49,0-1.04.21-1.64.62-.6.42-1.08.96-1.42,1.64-.25.48-.53,1.47-.84,2.96l-1.07,5.11h-3.36l2.6-12.44ZM980.06,142.01h-3.54l3.6-17.18h6.98c1.24,0,2.22.15,2.94.45.73.29,1.3.77,1.72,1.45.42.67.63,1.48.63,2.41,0,.87-.17,1.71-.5,2.53-.34.82-.75,1.48-1.24,1.97-.48.49-1.01.87-1.57,1.12-.56.25-1.32.44-2.27.57-.55.08-1.59.12-3.12.12h-2.26l-1.37,6.55ZM982.02,132.61h1.09c1.87,0,3.11-.12,3.74-.35.62-.23,1.12-.61,1.48-1.12.36-.52.54-1.08.54-1.7,0-.41-.09-.75-.28-1.02-.18-.27-.44-.46-.77-.58-.33-.12-1.07-.19-2.21-.19h-2.53l-1.04,4.96ZM997.26,133.09l-3.28-.28c.38-1.11,1.03-1.98,1.96-2.6.94-.62,2.18-.94,3.71-.94s2.79.32,3.55.97c.77.64,1.15,1.42,1.15,2.35,0,.38-.03.77-.1,1.2-.06.42-.3,1.53-.69,3.33-.33,1.48-.5,2.52-.5,3.12,0,.53.1,1.12.29,1.77h-3.27c-.14-.45-.22-.92-.25-1.41-.49.55-1.06.97-1.7,1.27-.64.29-1.29.43-1.93.43-1.03,0-1.88-.34-2.55-1.01-.67-.68-1.01-1.55-1.01-2.61,0-1.19.37-2.14,1.1-2.85.74-.71,2.06-1.14,3.96-1.29,1.6-.13,2.67-.29,3.21-.48.14-.47.21-.84.21-1.12,0-.36-.15-.66-.43-.9-.29-.24-.72-.36-1.29-.36-.6,0-1.08.12-1.43.38-.34.24-.58.59-.7,1.04ZM1000.46,136.21c-.2.05-.47.1-.81.15-1.69.2-2.79.5-3.3.89-.37.28-.55.66-.55,1.14,0,.39.14.72.42,1,.28.27.65.4,1.11.4.51,0,.98-.12,1.43-.36.45-.25.79-.57,1.01-.95.23-.39.43-1,.6-1.82l.09-.44ZM1008.29,129.57h3.14l-.5,2.41c1.17-1.8,2.44-2.71,3.81-2.71.48,0,1,.12,1.55.36l-1.28,2.75c-.31-.11-.63-.16-.98-.16-.58,0-1.17.22-1.77.66-.59.44-1.06,1.02-1.39,1.76-.34.73-.67,1.88-1,3.47l-.82,3.9h-3.36l2.6-12.45ZM1015.17,142.01l3.6-17.18h3.36l-1.87,8.94,4.38-4.21h4.37l-5,4.52,2.66,7.92h-3.37l-1.71-5.75-2.27,2.02-.79,3.74h-3.36ZM1031.08,129.57h3.19l-.27,1.28c.68-.56,1.32-.96,1.91-1.21.6-.24,1.23-.36,1.91-.36,1.31,0,2.35.45,3.14,1.35.8.9,1.2,2.24,1.2,4.02,0,2.24-.69,4.14-2.05,5.68-1.17,1.32-2.56,1.98-4.16,1.98s-2.9-.67-3.74-2l-1.35,6.46h-3.36l3.58-17.19ZM1033.11,136.7c0,.97.24,1.72.7,2.26.48.53,1.04.8,1.68.8.55,0,1.09-.2,1.61-.6.51-.41.94-1.07,1.27-2,.35-.94.52-1.8.52-2.6,0-.93-.22-1.64-.67-2.13-.44-.5-1.01-.75-1.7-.75-.64,0-1.23.23-1.76.69-.52.45-.93,1.12-1.22,2.02-.28.88-.43,1.66-.43,2.32ZM1043.24,142.01l3.59-17.18h3.36l-3.59,17.18h-3.36ZM1054.69,133.09l-3.29-.28c.38-1.11,1.03-1.98,1.96-2.6.94-.62,2.18-.94,3.72-.94s2.78.32,3.55.97c.76.64,1.15,1.42,1.15,2.35,0,.38-.04.77-.11,1.2-.06.42-.29,1.53-.69,3.33-.33,1.48-.49,2.52-.49,3.12,0,.53.09,1.12.28,1.77h-3.27c-.14-.45-.22-.92-.25-1.41-.49.55-1.06.97-1.7,1.27-.64.29-1.28.43-1.93.43-1.03,0-1.88-.34-2.56-1.01-.67-.68-1-1.55-1-2.61,0-1.19.36-2.14,1.1-2.85.74-.71,2.06-1.14,3.96-1.29,1.6-.13,2.67-.29,3.21-.48.14-.47.21-.84.21-1.12,0-.36-.14-.66-.43-.9-.29-.24-.72-.36-1.29-.36-.6,0-1.08.12-1.43.38-.35.24-.58.59-.7,1.04ZM1057.88,136.21c-.2.05-.47.1-.8.15-1.69.2-2.79.5-3.31.89-.37.28-.55.66-.55,1.14,0,.39.14.72.42,1,.28.27.65.4,1.12.4.5,0,.98-.12,1.43-.36.45-.25.78-.57,1-.95.23-.39.43-1,.6-1.82l.09-.44ZM1054.45,124.81h2.88l-.59,2.87h-2.89l.6-2.87ZM1059.38,124.81h2.89l-.6,2.87h-2.88l.59-2.87ZM1064.14,132.06l.52-2.5h1.64l.41-1.99,3.85-2.32-.9,4.31h2.05l-.51,2.5h-2.07l-1.09,5.22c-.19.95-.29,1.48-.29,1.62,0,.26.08.46.25.61.16.14.46.21.89.21.15,0,.52-.03,1.11-.08l-.53,2.5c-.57.12-1.17.17-1.78.17-1.18,0-2.05-.23-2.59-.68-.54-.46-.81-1.1-.81-1.91,0-.38.15-1.27.44-2.65l1.04-5h-1.63ZM1070.73,142.01l.48-2.27,6.82-7.55h-5.57l.55-2.62h9.77l-.42,2-6.87,7.72h5.98l-.57,2.72h-10.17ZM1095.41,136.83h-8.44c-.01.13-.01.23-.01.3,0,.83.23,1.5.7,2,.48.51,1.06.76,1.74.76,1.11,0,1.98-.58,2.61-1.73l3.01.5c-.58,1.21-1.37,2.12-2.35,2.73-.98.6-2.08.9-3.3.9-1.67,0-3.03-.53-4.08-1.58-1.04-1.06-1.57-2.47-1.57-4.21s.48-3.22,1.42-4.55c1.29-1.8,3.13-2.7,5.52-2.7,1.53,0,2.74.47,3.63,1.42.9.94,1.35,2.25,1.35,3.95,0,.81-.08,1.54-.23,2.19ZM1092.57,134.78c.01-.15.01-.26.01-.34,0-.92-.2-1.61-.62-2.07-.41-.46-.97-.69-1.66-.69s-1.32.26-1.88.79c-.54.52-.91,1.3-1.11,2.32h5.26ZM1106.92,124.83h3.36l-.63,3.05h-3.37l.64-3.05ZM1105.93,129.57h3.36l-2.6,12.45h-3.36l2.6-12.45ZM1112.66,129.57h3.19l-.33,1.62c.79-.69,1.54-1.18,2.22-1.47.7-.3,1.43-.45,2.2-.45,1.02,0,1.82.29,2.41.88s.89,1.36.89,2.33c0,.44-.13,1.27-.39,2.48l-1.46,7.04h-3.36l1.47-7.07c.22-1.05.33-1.68.33-1.89,0-.43-.13-.77-.39-1.01-.25-.25-.6-.38-1.05-.38-.49,0-1.04.21-1.64.62-.6.42-1.08.96-1.42,1.64-.25.48-.53,1.47-.84,2.97l-1.07,5.11h-3.36l2.6-12.45ZM991.99,170.01h-3.19l.28-1.35c-.61.59-1.21,1.01-1.8,1.27-.59.25-1.25.38-1.99.38-1.29,0-2.34-.44-3.14-1.31-.8-.88-1.2-2.18-1.2-3.9,0-1.99.56-3.79,1.69-5.4s2.61-2.41,4.47-2.41c1.67,0,2.93.66,3.76,1.99l1.35-6.43h3.36l-3.59,17.18ZM984.22,164.95c0,.89.22,1.59.67,2.09.45.5,1.01.75,1.66.75.61,0,1.18-.21,1.7-.62.53-.42.95-1.06,1.27-1.92.32-.86.48-1.68.48-2.47,0-.9-.24-1.62-.73-2.18-.48-.55-1.04-.83-1.68-.83-.98,0-1.79.55-2.42,1.64-.63,1.09-.95,2.28-.95,3.55ZM1007.28,164.83h-8.44c0,.13-.01.23-.01.3,0,.83.23,1.5.7,2,.47.51,1.05.76,1.73.76,1.12,0,1.99-.58,2.61-1.73l3.02.5c-.59,1.21-1.37,2.12-2.36,2.73-.98.6-2.07.9-3.29.9-1.67,0-3.03-.53-4.08-1.58-1.05-1.06-1.57-2.47-1.57-4.21s.47-3.22,1.42-4.55c1.29-1.8,3.13-2.7,5.52-2.7,1.52,0,2.73.47,3.63,1.42.9.94,1.35,2.25,1.35,3.95,0,.81-.08,1.54-.24,2.19ZM1004.45,162.78c0-.15.01-.26.01-.34,0-.92-.21-1.61-.62-2.07-.42-.46-.97-.69-1.67-.69s-1.32.26-1.87.79c-.55.52-.92,1.3-1.11,2.32h5.27ZM1012.11,152.83h3.36l-.63,3.05h-3.36l.63-3.05ZM1011.13,157.57h3.36l-2.6,12.45h-3.36l2.6-12.45ZM1017.85,157.57h3.19l-.33,1.62c.8-.69,1.54-1.18,2.23-1.47.69-.3,1.42-.45,2.19-.45,1.02,0,1.83.29,2.41.88.6.59.9,1.36.9,2.33,0,.44-.13,1.27-.39,2.48l-1.47,7.04h-3.36l1.48-7.07c.22-1.05.33-1.68.33-1.89,0-.43-.13-.77-.39-1.01-.25-.25-.6-.38-1.06-.38-.49,0-1.04.21-1.64.62-.6.42-1.07.96-1.41,1.64-.25.48-.54,1.47-.85,2.97l-1.07,5.11h-3.36l2.6-12.45ZM1041.99,164.83h-8.43c-.01.13-.02.23-.02.3,0,.83.24,1.5.71,2s1.05.76,1.73.76c1.12,0,1.99-.58,2.62-1.73l3.01.5c-.59,1.21-1.37,2.12-2.36,2.73-.97.6-2.07.9-3.29.9-1.67,0-3.03-.53-4.08-1.58-1.05-1.06-1.57-2.47-1.57-4.21s.47-3.22,1.42-4.55c1.29-1.8,3.13-2.7,5.52-2.7,1.52,0,2.73.47,3.63,1.42.9.94,1.35,2.25,1.35,3.95,0,.81-.08,1.54-.24,2.19ZM1039.16,162.78c.01-.15.01-.26.01-.34,0-.92-.21-1.61-.62-2.07-.42-.46-.97-.69-1.67-.69s-1.32.26-1.87.79c-.55.52-.92,1.3-1.11,2.32h5.26ZM1045.65,157.57h3.14l-.5,2.41c1.17-1.8,2.44-2.71,3.81-2.71.48,0,1,.12,1.55.36l-1.29,2.75c-.3-.11-.62-.16-.97-.16-.58,0-1.17.22-1.77.66-.59.44-1.06,1.02-1.39,1.76-.34.73-.67,1.88-1,3.47l-.82,3.9h-3.36l2.6-12.45ZM1073.03,170.01h-3.3l-4.64-11.54-2.41,11.54h-3.3l3.59-17.18h3.31l4.65,11.5,2.4-11.5h3.28l-3.58,17.18ZM1081.36,161.09l-3.28-.28c.37-1.11,1.02-1.98,1.95-2.6.94-.62,2.18-.94,3.72-.94s2.78.32,3.55.97c.76.64,1.15,1.42,1.15,2.35,0,.38-.04.77-.11,1.2-.06.42-.29,1.53-.69,3.33-.33,1.48-.49,2.52-.49,3.12,0,.53.09,1.12.28,1.77h-3.27c-.13-.45-.22-.92-.25-1.41-.49.55-1.06.97-1.7,1.27-.64.29-1.28.43-1.93.43-1.03,0-1.88-.34-2.55-1.01-.68-.68-1.01-1.55-1.01-2.61,0-1.19.37-2.14,1.1-2.85.74-.71,2.06-1.14,3.96-1.29,1.6-.13,2.67-.29,3.21-.48.14-.47.21-.84.21-1.12,0-.36-.14-.66-.43-.9-.29-.24-.72-.36-1.29-.36-.6,0-1.08.12-1.43.38-.34.24-.58.59-.7,1.04ZM1084.56,164.21c-.21.05-.48.1-.81.15-1.69.2-2.79.5-3.31.89-.36.28-.55.66-.55,1.14,0,.39.14.72.42,1,.29.27.66.4,1.12.4.51,0,.98-.12,1.43-.36.45-.25.79-.57,1-.95.23-.39.43-1,.6-1.82l.1-.44ZM1081.12,152.81h2.89l-.6,2.87h-2.88l.59-2.87ZM1086.06,152.81h2.88l-.6,2.87h-2.88l.6-2.87ZM1093.38,170.01h-3.36l3.59-17.18h3.37l-1.29,6.12c.76-.59,1.46-1.02,2.12-1.28.66-.27,1.36-.4,2.11-.4,1.01,0,1.8.29,2.39.87.59.58.88,1.34.88,2.27,0,.5-.11,1.27-.33,2.32l-1.52,7.28h-3.37l1.56-7.42c.17-.8.25-1.32.25-1.55,0-.41-.13-.75-.39-1s-.61-.38-1.05-.38c-.56,0-1.1.2-1.62.59-.67.52-1.18,1.15-1.53,1.9-.2.41-.46,1.39-.78,2.92l-1.03,4.93ZM1116.76,164.83h-8.44c0,.13,0,.23,0,.3,0,.83.23,1.5.7,2,.48.51,1.06.76,1.74.76,1.11,0,1.99-.58,2.61-1.73l3.01.5c-.58,1.21-1.37,2.12-2.35,2.73-.98.6-2.08.9-3.3.9-1.67,0-3.03-.53-4.07-1.58-1.05-1.06-1.57-2.47-1.57-4.21s.47-3.22,1.41-4.55c1.29-1.8,3.13-2.7,5.52-2.7,1.53,0,2.74.47,3.64,1.42.89.94,1.34,2.25,1.34,3.95,0,.81-.07,1.54-.23,2.19ZM1113.92,162.78c.01-.15.02-.26.02-.34,0-.92-.21-1.61-.63-2.07-.41-.46-.96-.69-1.66-.69s-1.32.26-1.87.79c-.55.52-.92,1.3-1.12,2.32h5.26ZM1118.78,166.76h3.32l-.68,3.25h-3.32l.68-3.25Z"/>
      <path class="cls-1" d="M1068.72,80.01h55v2h-55v-2Z"/>
      <path class="cls-1" d="M1269.6,171.42l-17.73-47.39-43.87-19.16v-9.41l112-45.04-41.69,121h-8.71ZM1273.64,146.55l25.2-73.27-67.82,27.23,30.49,13.11,12.13,32.94Z"/>
      <path class="cls-3" d="M818.5,42.42H0v184s765.75,0,765.75,0l52.74-184Z"/>
      <path class="cls-5" d="M142.44,248.22l169.41-22.5-183.91-41.72,14.5,64.22Z"/>
      <rect class="cls-1" x="146.41" y="18.55" width="188.9" height="188.9" transform="translate(77.38 322.9) rotate(-77.22)"/>
      <path class="cls-2" d="M389.05,108.57l3.36-.18c.05,1.07.23,1.79.55,2.17.52.61,1.47.91,2.86.91,1.16,0,1.99-.21,2.51-.62.52-.41.77-.91.77-1.5,0-.51-.21-.94-.63-1.29-.3-.26-1.11-.68-2.45-1.25-1.33-.58-2.3-1.06-2.92-1.44-.61-.39-1.09-.89-1.44-1.51-.35-.62-.53-1.34-.53-2.17,0-1.45.52-2.64,1.57-3.6,1.05-.95,2.56-1.43,4.55-1.43s3.58.47,4.68,1.42c1.11.95,1.72,2.2,1.83,3.77l-3.39.15c-.09-.82-.38-1.45-.89-1.89-.51-.44-1.26-.66-2.25-.66s-1.68.17-2.1.52c-.41.34-.62.78-.62,1.3,0,.49.19.9.57,1.22.38.33,1.23.78,2.54,1.35,1.98.85,3.24,1.54,3.77,2.07.8.78,1.21,1.78,1.21,3.01,0,1.51-.6,2.81-1.8,3.89-1.2,1.07-2.86,1.61-5,1.61-1.48,0-2.76-.25-3.84-.74-1.08-.5-1.84-1.19-2.29-2.08-.44-.88-.65-1.9-.62-3.05ZM416.62,108.96h-8.44c0,.13-.01.24-.01.31,0,.83.24,1.5.7,2,.48.51,1.05.76,1.73.76,1.12,0,1.99-.58,2.61-1.73l3.01.5c-.59,1.21-1.37,2.12-2.36,2.73-.98.6-2.08.9-3.29.9-1.67,0-3.03-.53-4.08-1.58-1.05-1.06-1.57-2.46-1.57-4.21s.47-3.22,1.42-4.55c1.29-1.8,3.13-2.7,5.52-2.7,1.52,0,2.73.47,3.63,1.42.9.94,1.35,2.25,1.35,3.95,0,.81-.08,1.54-.23,2.19ZM413.78,106.91c0-.15.01-.26.01-.34,0-.92-.21-1.61-.62-2.08s-.97-.69-1.66-.69-1.32.26-1.88.79c-.55.52-.92,1.3-1.11,2.32h5.26ZM421.27,114.14h-3.36l3.6-17.18h3.36l-1.29,6.12c.76-.59,1.46-1.02,2.12-1.28.66-.27,1.36-.4,2.11-.4,1.01,0,1.8.29,2.39.87s.88,1.34.88,2.27c0,.5-.11,1.27-.33,2.32l-1.52,7.28h-3.36l1.56-7.42c.16-.81.25-1.32.25-1.55,0-.41-.13-.75-.39-1s-.61-.38-1.05-.38c-.56,0-1.1.19-1.62.59-.67.52-1.18,1.15-1.54,1.9-.2.41-.45,1.39-.77,2.92l-1.03,4.93ZM444.65,108.96h-8.44c0,.13-.01.24-.01.31,0,.83.23,1.5.7,2,.48.51,1.05.76,1.73.76,1.12,0,1.99-.58,2.61-1.73l3.01.5c-.59,1.21-1.37,2.12-2.35,2.73-.98.6-2.07.9-3.29.9-1.67,0-3.03-.53-4.08-1.58-1.05-1.06-1.57-2.46-1.57-4.21s.47-3.22,1.42-4.55c1.29-1.8,3.13-2.7,5.52-2.7,1.52,0,2.73.47,3.63,1.42.9.94,1.35,2.25,1.35,3.95,0,.81-.08,1.54-.23,2.19ZM441.81,106.91c0-.15.01-.26.01-.34,0-.92-.21-1.61-.62-2.08s-.97-.69-1.66-.69-1.32.26-1.88.79c-.55.52-.92,1.3-1.11,2.32h5.26ZM465.58,114.14h-3.16l-.61-7.92-3.8,7.92h-3.12l-1.56-12.45h2.99l.87,8.34,3.88-8.34h3.06l.42,8.34,3.86-8.34h3.38l-6.2,12.45ZM474.83,96.96h3.36l-.63,3.05h-3.36l.63-3.05ZM473.85,101.69h3.36l-2.6,12.45h-3.36l2.6-12.45ZM490.04,108.96h-8.44c0,.13-.01.24-.01.31,0,.83.24,1.5.7,2,.48.51,1.06.76,1.74.76,1.12,0,1.99-.58,2.61-1.73l3.01.5c-.59,1.21-1.37,2.12-2.36,2.73-.98.6-2.07.9-3.29.9-1.67,0-3.03-.53-4.08-1.58-1.05-1.06-1.57-2.46-1.57-4.21s.47-3.22,1.42-4.55c1.29-1.8,3.13-2.7,5.52-2.7,1.52,0,2.74.47,3.63,1.42.9.94,1.35,2.25,1.35,3.95,0,.81-.08,1.54-.24,2.19ZM487.21,106.91c0-.15.01-.26.01-.34,0-.92-.21-1.61-.62-2.08s-.97-.69-1.66-.69-1.32.26-1.88.79c-.55.52-.92,1.3-1.11,2.32h5.26ZM504.19,114.14h-2.9l-2.5-12.45h3.31l.88,5.42c.24,1.47.39,2.45.43,2.93.06-.13.33-.64.81-1.51.48-.88.78-1.41.89-1.59l3.09-5.25h3.63l-7.65,12.45ZM514.91,96.96h3.36l-.63,3.05h-3.36l.63-3.05ZM513.93,101.69h3.36l-2.6,12.45h-3.36l2.6-12.45ZM530.12,108.96h-8.44c0,.13-.01.24-.01.31,0,.83.23,1.5.7,2,.48.51,1.05.76,1.73.76,1.12,0,1.99-.58,2.61-1.73l3.01.5c-.59,1.21-1.37,2.12-2.36,2.73-.98.6-2.07.9-3.29.9-1.67,0-3.03-.53-4.08-1.58-1.05-1.06-1.57-2.46-1.57-4.21s.47-3.22,1.42-4.55c1.29-1.8,3.13-2.7,5.52-2.7,1.52,0,2.73.47,3.63,1.42.9.94,1.35,2.25,1.35,3.95,0,.81-.08,1.54-.23,2.19ZM527.29,106.91c0-.15.01-.26.01-.34,0-.92-.21-1.61-.62-2.08s-.97-.69-1.66-.69-1.32.26-1.88.79c-.55.52-.92,1.3-1.11,2.32h5.26ZM531.34,114.14l3.6-17.18h3.35l-3.59,17.18h-3.36ZM550.16,108.96h-8.44c0,.13-.01.24-.01.31,0,.83.23,1.5.7,2,.48.51,1.05.76,1.73.76,1.12,0,1.99-.58,2.61-1.73l3.01.5c-.59,1.21-1.37,2.12-2.36,2.73-.98.6-2.07.9-3.29.9-1.67,0-3.03-.53-4.08-1.58-1.05-1.06-1.57-2.46-1.57-4.21s.47-3.22,1.42-4.55c1.29-1.8,3.13-2.7,5.52-2.7,1.52,0,2.73.47,3.63,1.42.9.94,1.35,2.25,1.35,3.95,0,.81-.08,1.54-.23,2.19ZM547.33,106.91c0-.15.01-.26.01-.34,0-.92-.21-1.61-.62-2.08s-.97-.69-1.66-.69-1.32.26-1.88.79c-.55.52-.92,1.3-1.11,2.32h5.26ZM392.04,142.14h-3.54l3.6-17.18h6.98c1.24,0,2.22.15,2.94.45.73.29,1.3.77,1.72,1.45.42.67.63,1.48.63,2.41,0,.87-.17,1.71-.5,2.53s-.75,1.48-1.24,1.97c-.48.49-1.01.87-1.57,1.12-.56.25-1.32.44-2.27.57-.55.08-1.59.12-3.12.12h-2.26l-1.37,6.55ZM394,132.74h1.09c1.87,0,3.11-.12,3.74-.35s1.12-.61,1.48-1.12c.36-.52.54-1.08.54-1.7,0-.41-.09-.75-.28-1.02-.18-.27-.44-.46-.77-.57-.33-.12-1.07-.19-2.21-.19h-2.53l-1.04,4.96ZM409.24,133.22l-3.28-.28c.38-1.11,1.03-1.98,1.96-2.6.94-.62,2.18-.94,3.71-.94s2.79.32,3.55.97c.77.64,1.15,1.43,1.15,2.36,0,.38-.04.77-.1,1.2-.06.42-.29,1.53-.69,3.33-.33,1.48-.49,2.52-.49,3.12,0,.53.09,1.12.28,1.77h-3.27c-.13-.45-.22-.92-.25-1.41-.49.55-1.06.97-1.7,1.27-.64.29-1.29.43-1.93.43-1.03,0-1.88-.34-2.55-1.01-.67-.68-1.01-1.55-1.01-2.61,0-1.19.37-2.14,1.1-2.85.74-.71,2.06-1.14,3.96-1.29,1.6-.13,2.67-.29,3.21-.48.14-.47.21-.84.21-1.12,0-.36-.14-.66-.43-.9-.29-.24-.72-.36-1.29-.36-.6,0-1.08.12-1.43.38-.34.24-.58.59-.7,1.04ZM412.44,136.34c-.2.05-.47.11-.81.15-1.69.2-2.79.5-3.3.89-.37.28-.55.66-.55,1.14,0,.39.14.72.42,1,.28.27.65.4,1.11.4.51,0,.98-.12,1.43-.36.45-.25.79-.57,1.01-.95.23-.39.43-1,.6-1.82l.09-.45ZM420.27,129.69h3.14l-.5,2.41c1.17-1.8,2.44-2.71,3.81-2.71.49,0,1,.12,1.56.36l-1.29,2.75c-.3-.11-.63-.16-.97-.16-.58,0-1.17.22-1.77.66-.59.44-1.06,1.02-1.39,1.76-.34.73-.67,1.88-1,3.47l-.82,3.9h-3.36l2.6-12.45ZM427.15,142.14l3.6-17.18h3.36l-1.88,8.94,4.38-4.21h4.37l-5,4.52,2.66,7.92h-3.36l-1.71-5.75-2.27,2.02-.78,3.74h-3.36ZM443.06,129.69h3.19l-.27,1.28c.68-.56,1.32-.96,1.91-1.21.59-.24,1.23-.36,1.91-.36,1.31,0,2.35.45,3.14,1.35.8.9,1.2,2.24,1.2,4.02,0,2.24-.68,4.14-2.05,5.68-1.17,1.32-2.56,1.98-4.16,1.98s-2.89-.67-3.74-2l-1.35,6.46h-3.36l3.59-17.19ZM445.09,136.83c0,.97.24,1.72.7,2.26.48.53,1.04.8,1.68.8.56,0,1.09-.2,1.61-.6.51-.41.94-1.07,1.28-2,.34-.94.52-1.8.52-2.6,0-.93-.22-1.64-.67-2.13-.45-.5-1.01-.75-1.7-.75-.64,0-1.23.23-1.76.69-.52.45-.93,1.12-1.22,2.02-.29.88-.43,1.66-.43,2.32ZM455.22,142.14l3.6-17.18h3.35l-3.58,17.18h-3.36ZM466.67,133.22l-3.28-.28c.38-1.11,1.03-1.98,1.96-2.6.94-.62,2.18-.94,3.72-.94s2.78.32,3.55.97c.77.64,1.15,1.43,1.15,2.36,0,.38-.04.77-.1,1.2-.06.42-.29,1.53-.69,3.33-.33,1.48-.49,2.52-.49,3.12,0,.53.09,1.12.28,1.77h-3.27c-.13-.45-.21-.92-.25-1.41-.49.55-1.06.97-1.7,1.27-.64.29-1.29.43-1.93.43-1.03,0-1.88-.34-2.56-1.01-.67-.68-1.01-1.55-1.01-2.61,0-1.19.37-2.14,1.1-2.85.74-.71,2.06-1.14,3.96-1.29,1.6-.13,2.67-.29,3.21-.48.14-.47.21-.84.21-1.12,0-.36-.15-.66-.43-.9s-.72-.36-1.29-.36c-.6,0-1.08.12-1.43.38-.34.24-.58.59-.7,1.04ZM469.87,136.34c-.2.05-.47.11-.81.15-1.69.2-2.79.5-3.31.89-.37.28-.55.66-.55,1.14,0,.39.14.72.42,1,.28.27.65.4,1.11.4.51,0,.98-.12,1.43-.36.45-.25.79-.57,1.01-.95.23-.39.43-1,.6-1.82l.09-.45ZM466.43,124.94h2.88l-.6,2.87h-2.88l.6-2.87ZM471.37,124.94h2.88l-.6,2.87h-2.88l.6-2.87ZM476.12,132.19l.52-2.5h1.64l.41-1.99,3.85-2.32-.9,4.31h2.05l-.52,2.5h-2.06l-1.09,5.22c-.2.95-.29,1.48-.29,1.62,0,.26.08.46.25.61.16.14.46.21.89.21.15,0,.52-.03,1.11-.08l-.53,2.5c-.58.12-1.17.18-1.78.18-1.19,0-2.05-.23-2.59-.68-.54-.46-.81-1.1-.81-1.91,0-.38.14-1.27.43-2.65l1.04-5h-1.63ZM482.71,142.14l.48-2.27,6.82-7.55h-5.57l.55-2.62h9.76l-.41,2-6.88,7.72h5.99l-.58,2.72h-10.17ZM507.39,136.96h-8.44c0,.13-.01.23-.01.3,0,.83.23,1.5.7,2,.48.51,1.05.76,1.73.76,1.12,0,1.99-.58,2.61-1.73l3.01.5c-.59,1.21-1.37,2.12-2.35,2.73-.98.6-2.07.9-3.29.9-1.67,0-3.03-.53-4.08-1.58-1.05-1.06-1.57-2.47-1.57-4.21s.47-3.22,1.42-4.55c1.29-1.8,3.13-2.7,5.52-2.7,1.52,0,2.73.47,3.63,1.42.9.94,1.35,2.25,1.35,3.95,0,.81-.08,1.54-.23,2.19ZM504.55,134.91c0-.15.01-.26.01-.34,0-.92-.21-1.61-.62-2.08s-.97-.69-1.66-.69-1.32.26-1.88.78c-.55.52-.92,1.3-1.11,2.32h5.26ZM517.96,129.69h3.19l-.33,1.62c.8-.69,1.54-1.18,2.23-1.47.7-.3,1.43-.45,2.19-.45,1.02,0,1.83.29,2.41.88.59.59.89,1.36.89,2.33,0,.44-.13,1.27-.39,2.48l-1.47,7.04h-3.36l1.48-7.07c.22-1.06.33-1.68.33-1.89,0-.43-.13-.77-.39-1.01-.25-.25-.6-.38-1.05-.38-.49,0-1.04.21-1.64.62-.6.41-1.07.96-1.42,1.64-.25.48-.53,1.47-.84,2.97l-1.07,5.11h-3.36l2.6-12.45ZM530.47,136.97c0-2.3.65-4.14,1.95-5.51,1.3-1.38,3.02-2.06,5.13-2.06,1.84,0,3.27.51,4.3,1.52,1.03,1.01,1.55,2.37,1.55,4.08,0,2.02-.64,3.76-1.93,5.23-1.29,1.47-3.02,2.2-5.18,2.2-1.17,0-2.21-.23-3.12-.7-.91-.47-1.58-1.13-2.03-1.99-.45-.86-.67-1.78-.67-2.77ZM540.06,134.57c0-.8-.23-1.43-.7-1.91-.46-.48-1.06-.73-1.79-.73s-1.37.23-1.93.68c-.56.45-1,1.1-1.31,1.96-.31.85-.47,1.64-.47,2.35,0,.89.24,1.6.73,2.12.48.52,1.09.78,1.83.78.92,0,1.7-.39,2.32-1.18.89-1.12,1.34-2.48,1.34-4.08ZM553.09,137.45l3.27.53c-.54,1.45-1.34,2.56-2.39,3.32s-2.28,1.14-3.67,1.14c-1.59,0-2.84-.47-3.77-1.42-.93-.95-1.4-2.25-1.4-3.9,0-1.35.28-2.63.84-3.83.56-1.2,1.41-2.15,2.54-2.84,1.13-.7,2.38-1.04,3.73-1.04,1.47,0,2.64.38,3.52,1.15s1.37,1.77,1.48,3.02l-3.2.34c-.08-.7-.29-1.21-.64-1.54-.34-.33-.8-.49-1.36-.49-.65,0-1.25.24-1.82.73-.56.48-1,1.21-1.3,2.18-.3.96-.45,1.86-.45,2.71,0,.73.18,1.3.54,1.7.36.4.81.6,1.35.6s1.06-.2,1.56-.59c.5-.39.89-.98,1.17-1.76ZM561.42,142.14h-3.36l3.6-17.18h3.36l-1.29,6.12c.76-.59,1.46-1.02,2.12-1.28.66-.27,1.36-.4,2.11-.4,1.01,0,1.8.29,2.39.87s.88,1.34.88,2.27c0,.5-.11,1.27-.33,2.32l-1.52,7.28h-3.36l1.56-7.42c.16-.8.25-1.32.25-1.55,0-.41-.13-.75-.39-1s-.61-.38-1.05-.38c-.56,0-1.1.2-1.62.59-.67.52-1.18,1.15-1.54,1.9-.2.41-.45,1.39-.77,2.92l-1.03,4.93ZM397.16,157.69l-.52,2.46h-2.38l-2.09,9.98h-3.36l2.09-9.98h-1.88l.51-2.46h1.88l.27-1.28c.22-1.05.43-1.75.62-2.12.27-.5.66-.89,1.18-1.18.53-.3,1.22-.45,2.07-.45,1.03,0,2.12.19,3.26.56l-.66,2.4c-.8-.27-1.46-.41-1.96-.41-.38,0-.67.12-.85.36-.12.16-.25.57-.39,1.23l-.19.88h2.38ZM398.9,157.69h3.14l-.5,2.41c1.17-1.8,2.44-2.71,3.81-2.71.49,0,1,.12,1.56.36l-1.29,2.75c-.3-.11-.63-.16-.97-.16-.58,0-1.17.22-1.77.66-.59.44-1.06,1.02-1.39,1.76-.34.73-.67,1.88-1,3.47l-.82,3.9h-3.36l2.6-12.45ZM417.95,164.96h-8.44c0,.13-.01.23-.01.3,0,.83.24,1.5.7,2,.48.51,1.05.76,1.73.76,1.12,0,1.99-.58,2.61-1.73l3.01.5c-.59,1.21-1.37,2.12-2.36,2.73-.98.6-2.07.9-3.29.9-1.67,0-3.03-.53-4.08-1.58-1.05-1.06-1.57-2.47-1.57-4.21s.47-3.22,1.42-4.55c1.29-1.8,3.13-2.7,5.52-2.7,1.52,0,2.73.47,3.63,1.42.9.94,1.35,2.25,1.35,3.95,0,.81-.08,1.54-.23,2.19ZM415.12,162.91c0-.15.01-.26.01-.34,0-.92-.21-1.61-.62-2.08s-.97-.69-1.66-.69-1.32.26-1.88.78c-.55.52-.92,1.3-1.11,2.32h5.26ZM422.78,152.96h3.36l-.63,3.05h-3.36l.63-3.05ZM421.79,157.69h3.36l-2.6,12.45h-3.36l2.6-12.45ZM432.12,166.66l3.26-.52c.29.69.65,1.18,1.08,1.47.43.28,1.01.42,1.76.42s1.38-.17,1.84-.52c.32-.23.48-.52.48-.86,0-.23-.08-.43-.25-.61-.17-.17-.64-.38-1.39-.63-2.03-.67-3.29-1.2-3.77-1.59-.76-.61-1.14-1.41-1.14-2.39s.37-1.83,1.1-2.54c1.02-.99,2.54-1.49,4.56-1.49,1.6,0,2.81.29,3.63.88.82.59,1.34,1.38,1.56,2.38l-3.1.54c-.16-.45-.43-.79-.8-1.02-.5-.3-1.1-.46-1.81-.46s-1.21.12-1.52.35c-.31.23-.46.5-.46.81s.16.57.47.77c.2.12.82.34,1.89.66,1.64.48,2.74.95,3.29,1.41.78.65,1.17,1.43,1.17,2.34,0,1.18-.5,2.2-1.49,3.07-.99.87-2.39,1.3-4.2,1.3s-3.19-.33-4.17-.98c-.98-.67-1.64-1.59-1.99-2.79ZM449.5,152.96h3.36l-.63,3.05h-3.36l.63-3.05ZM448.51,157.69h3.36l-2.6,12.45h-3.36l2.6-12.45ZM455.24,157.69h3.19l-.33,1.62c.8-.69,1.54-1.18,2.23-1.47.7-.3,1.42-.45,2.19-.45,1.02,0,1.83.29,2.41.88.59.59.89,1.36.89,2.33,0,.44-.13,1.27-.39,2.48l-1.47,7.04h-3.36l1.48-7.07c.22-1.06.33-1.68.33-1.89,0-.43-.13-.77-.39-1.01-.25-.25-.6-.38-1.06-.38-.49,0-1.04.21-1.64.62-.6.41-1.08.96-1.42,1.64-.25.48-.53,1.47-.84,2.97l-1.07,5.11h-3.36l2.6-12.45ZM478.76,170.14h-3.19l.28-1.35c-.61.59-1.21,1.01-1.81,1.27-.59.25-1.25.38-1.99.38-1.29,0-2.34-.44-3.14-1.31-.8-.88-1.2-2.18-1.2-3.9,0-1.99.56-3.79,1.69-5.4,1.12-1.61,2.61-2.41,4.46-2.41,1.67,0,2.92.66,3.76,1.99l1.35-6.43h3.36l-3.59,17.18ZM470.99,165.08c0,.89.22,1.59.67,2.09.45.5,1.01.75,1.66.75.61,0,1.18-.21,1.7-.62.53-.42.95-1.06,1.27-1.92.32-.86.48-1.68.48-2.47,0-.9-.24-1.62-.73-2.18-.48-.55-1.04-.83-1.67-.83-.99,0-1.79.55-2.43,1.64-.63,1.09-.95,2.28-.95,3.55ZM482.71,166.89h3.33l-.68,3.25h-3.33l.68-3.25Z"/>
      <path class="cls-1" d="M387.53,81.61h55v2h-55v-2Z"/>
      <path class="cls-2" d="M197.45,105.34c-1.24-.27-2.35-.35-3.32-.24-1.72.22-3.16,1.02-4.31,2.39l-9.06-2.44,9.93-27.85,28.58,6.27-1.9,8.66-21.21-4.65-4.35,10.93c1.8-.68,3.18-1.09,4.13-1.23,1.6-.22,3.46-.1,5.58.36,4.29.94,7.72,3.21,10.28,6.79,2.56,3.59,3.24,8.13,2.03,13.64-1.05,4.79-3.53,8.74-7.43,11.83-3.9,3.09-8.92,3.97-15.05,2.62-4.94-1.08-8.7-3.3-11.29-6.64-2.59-3.34-3.53-7.49-2.82-12.43l10.16,2.23c-.08,2.31.32,4.19,1.2,5.66.88,1.44,2.42,2.41,4.61,2.89,2.53.55,4.64.09,6.34-1.38,1.73-1.5,2.89-3.59,3.48-6.29.58-2.65.45-5.01-.39-7.1-.84-2.11-2.57-3.45-5.19-4.03ZM247.58,100.03c-.9-1.72-2.48-2.83-4.74-3.33-3.1-.68-5.46.01-7.09,2.08-.94,1.19-1.78,3.23-2.54,6.12l-9.91-2.17c1.14-4.38,2.72-7.77,4.74-10.17,3.85-4.58,9.25-6.11,16.19-4.58,5.49,1.2,9.51,3.69,12.09,7.45,2.58,3.74,3.32,8.11,2.22,13.12-.84,3.84-2.74,7-5.68,9.48-1.94,1.65-4.89,3.31-8.86,4.99l-4.71,2c-2.95,1.25-4.99,2.18-6.12,2.78-1.11.61-2.1,1.38-2.98,2.31l22.64,4.97-1.97,8.98-35.52-7.79c.91-3.7,2.46-6.92,4.63-9.67,2.21-3.14,6.45-6.05,12.71-8.72,5.43-2.33,9-4.07,10.71-5.23,2.62-1.8,4.22-4.05,4.82-6.74.48-2.19.27-4.15-.62-5.87ZM276.96,106.25c-1.48,1.27-2.48,3.19-2.99,5.76l-9.52-2.09c.66-2.55,1.64-4.9,2.93-7.04,1.28-1.84,3-3.43,5.17-4.75,1.6-.92,3.39-1.51,5.37-1.75,1.98-.24,4.3-.07,6.97.52,4.96,1.09,8.67,3.25,11.14,6.49,2.49,3.22,3.27,6.99,2.32,11.31-.67,3.05-2.14,5.43-4.41,7.13-1.43,1.06-2.82,1.69-4.17,1.9.93.2,2.09,1.3,3.48,3.28,2.07,2.98,2.65,6.55,1.73,10.73-.96,4.39-3.34,7.92-7.12,10.58-3.75,2.65-8.61,3.32-14.58,2.01-7.35-1.61-11.92-5.13-13.73-10.55-.94-2.88-1.05-6.4-.31-10.57l10.02,2.2c-.46,2.07-.5,3.86-.13,5.37.69,2.78,2.67,4.52,5.94,5.24,2,.44,3.89.14,5.67-.89,1.81-1.05,2.99-2.87,3.56-5.44.75-3.41-.14-5.99-2.65-7.74-1.43-.99-3.84-1.85-7.23-2.6l1.6-7.3c3.33.68,5.71.86,7.15.56,2.48-.5,4.06-2.28,4.73-5.33.43-1.98.2-3.72-.69-5.21-.87-1.49-2.36-2.47-4.46-2.93-2.41-.53-4.34-.15-5.8,1.13Z"/>
      <polygon class="cls-4" points="874.82 42.42 891.95 42.42 891.95 42.42 818.5 42.42 765.75 226.42 824 226.42 874.82 42.42"/>
    </g>
  </g>
</svg>