<?xml version="1.0" encoding="UTF-8"?>
<svg id="Layer_2" xmlns="http://www.w3.org/2000/svg" viewBox="0 0 593.76 248.09">
  <defs>
    <style>
      .cls-1 {
        fill: #035494;
      }

      .cls-2 {
        fill: #fff;
      }

      .cls-3 {
        fill: rgba(121, 182, 227, .85);
      }

      .cls-4 {
        fill: #172d3f;
      }
    </style>
  </defs>
  <g id="Layer_1-2" data-name="Layer_1">
    <g>
      <path class="cls-4" d="M33.76,248.09l151-22-148.5-41.5-2.5,63.5Z"/>
      <rect class="cls-3" x="183.76" y="42.59" width="410" height="184"/>
      <path class="cls-2" d="M307.06,118h-3.57l-.39-12.56-6.26,12.56h-3.64l-.64-17.18h3.46l.15,12.02,5.89-12.02h3.83l.4,11.9,5.66-11.9h3.42l-8.31,17.18ZM316.74,100.82h3.36l-.63,3.05h-3.36l.63-3.05ZM315.76,105.55h3.36l-2.6,12.44h-3.36l2.6-12.44ZM322.25,105.55h3.14l-.5,2.41c1.17-1.81,2.44-2.71,3.81-2.71.48,0,1,.12,1.56.36l-1.29,2.75c-.3-.11-.63-.16-.97-.16-.58,0-1.17.22-1.77.66-.59.44-1.06,1.02-1.39,1.76-.34.73-.67,1.88-1,3.47l-.82,3.9h-3.36l2.6-12.44ZM335.43,114.52l3.26-.52c.29.69.65,1.18,1.08,1.46.43.28,1.02.42,1.76.42s1.38-.17,1.84-.52c.32-.23.48-.52.48-.85,0-.23-.08-.43-.25-.61-.17-.17-.64-.38-1.39-.63-2.03-.67-3.29-1.2-3.77-1.59-.76-.61-1.14-1.41-1.14-2.39s.37-1.83,1.1-2.54c1.02-.99,2.54-1.49,4.56-1.49,1.6,0,2.81.29,3.63.88.82.59,1.34,1.38,1.56,2.38l-3.11.54c-.16-.45-.43-.79-.8-1.02-.5-.3-1.1-.46-1.8-.46s-1.21.12-1.52.35c-.3.23-.46.5-.46.81s.16.57.47.77c.2.12.82.34,1.89.66,1.64.48,2.74.94,3.29,1.41.78.65,1.17,1.43,1.17,2.34,0,1.18-.5,2.2-1.49,3.07-.99.87-2.39,1.3-4.2,1.3s-3.19-.33-4.17-.98c-.98-.66-1.64-1.59-1.99-2.79ZM351.8,105.55h3.36l-1.54,7.37c-.19.88-.28,1.43-.28,1.65,0,.36.13.67.4.93.27.26.61.39,1.02.39.3,0,.59-.06.88-.16.29-.12.59-.29.89-.52.3-.23.58-.5.82-.8.24-.3.47-.69.68-1.17.15-.36.31-.94.48-1.76l1.24-5.93h3.36l-2.6,12.44h-3.14l.35-1.69c-1.38,1.32-2.87,1.98-4.49,1.98-1.02,0-1.83-.29-2.41-.88s-.88-1.37-.88-2.35c0-.43.13-1.29.4-2.57l1.45-6.94ZM372.34,113.31l3.27.53c-.54,1.45-1.34,2.56-2.39,3.32-1.05.76-2.28,1.14-3.67,1.14-1.59,0-2.84-.47-3.77-1.42s-1.39-2.25-1.39-3.9c0-1.35.28-2.63.84-3.83.56-1.2,1.41-2.15,2.54-2.84,1.13-.69,2.38-1.04,3.73-1.04,1.47,0,2.64.38,3.52,1.15.88.77,1.37,1.77,1.48,3.02l-3.2.34c-.08-.7-.29-1.21-.64-1.54-.34-.33-.8-.49-1.36-.49-.65,0-1.25.24-1.82.73-.56.48-1,1.21-1.3,2.18-.3.96-.45,1.86-.45,2.71,0,.73.18,1.3.54,1.7.36.4.81.6,1.35.6s1.06-.19,1.56-.59c.5-.39.89-.98,1.17-1.76ZM380.67,118h-3.36l3.6-17.18h3.36l-1.29,6.12c.76-.59,1.46-1.02,2.12-1.28.66-.26,1.36-.4,2.11-.4,1.01,0,1.8.29,2.39.87.59.58.88,1.34.88,2.27,0,.5-.11,1.27-.33,2.32l-1.52,7.28h-3.36l1.56-7.42c.16-.8.25-1.32.25-1.55,0-.41-.13-.75-.39-1s-.61-.38-1.05-.38c-.56,0-1.1.2-1.62.59-.67.52-1.18,1.15-1.54,1.9-.2.41-.45,1.39-.77,2.92l-1.03,4.93ZM404.05,112.82h-8.44c0,.13-.01.24-.01.31,0,.83.23,1.5.7,2,.48.51,1.05.76,1.73.76,1.12,0,1.99-.58,2.61-1.74l3.01.5c-.59,1.21-1.37,2.12-2.36,2.73-.98.6-2.07.9-3.29.9-1.67,0-3.03-.53-4.08-1.58-1.05-1.06-1.57-2.47-1.57-4.21s.47-3.22,1.42-4.55c1.29-1.8,3.13-2.69,5.52-2.69,1.52,0,2.73.47,3.63,1.42.9.94,1.35,2.25,1.35,3.95,0,.81-.08,1.54-.23,2.19ZM401.21,110.77c0-.15.01-.26.01-.34,0-.92-.21-1.61-.62-2.07s-.97-.69-1.66-.69-1.32.26-1.88.79c-.55.52-.92,1.3-1.11,2.32h5.26ZM407.94,105.55h3.19l-.33,1.62c.8-.69,1.54-1.18,2.23-1.47.7-.3,1.43-.44,2.19-.44,1.02,0,1.83.29,2.41.88.59.59.89,1.36.89,2.33,0,.44-.13,1.26-.39,2.48l-1.46,7.04h-3.36l1.48-7.07c.22-1.06.33-1.68.33-1.89,0-.43-.13-.77-.39-1.01-.25-.25-.6-.38-1.05-.38-.49,0-1.04.21-1.64.62s-1.07.96-1.42,1.64c-.25.48-.53,1.47-.84,2.97l-1.07,5.11h-3.36l2.6-12.44ZM275.34,146h-3.54l3.6-17.18h6.98c1.24,0,2.22.15,2.94.45.73.29,1.3.77,1.72,1.45.42.67.63,1.48.63,2.41,0,.87-.17,1.71-.5,2.53-.34.82-.75,1.48-1.24,1.97-.48.49-1.01.87-1.57,1.12-.56.25-1.32.44-2.27.57-.55.08-1.59.12-3.12.12h-2.26l-1.37,6.55ZM277.3,136.6h1.09c1.87,0,3.11-.12,3.74-.35.62-.23,1.12-.61,1.48-1.12.36-.51.54-1.08.54-1.7,0-.41-.09-.75-.28-1.02-.18-.26-.44-.46-.77-.57-.33-.12-1.07-.19-2.22-.19h-2.53l-1.04,4.96ZM292.54,137.08l-3.28-.28c.38-1.11,1.03-1.98,1.96-2.6.94-.62,2.18-.94,3.72-.94s2.78.32,3.55.97c.77.64,1.15,1.43,1.15,2.35,0,.38-.03.77-.1,1.2-.06.42-.29,1.53-.69,3.33-.33,1.49-.49,2.52-.49,3.12,0,.53.09,1.12.28,1.77h-3.27c-.13-.45-.21-.92-.25-1.41-.49.55-1.06.97-1.7,1.27-.64.29-1.28.43-1.93.43-1.03,0-1.88-.34-2.56-1.01-.67-.68-1.01-1.55-1.01-2.61,0-1.19.37-2.14,1.1-2.85.74-.71,2.06-1.14,3.96-1.29,1.6-.13,2.67-.29,3.21-.48.14-.47.21-.84.21-1.12,0-.36-.14-.66-.43-.9-.29-.24-.72-.36-1.29-.36-.6,0-1.08.12-1.43.38-.34.24-.58.59-.7,1.04ZM295.74,140.2c-.2.05-.47.11-.81.15-1.69.2-2.79.5-3.3.89-.37.28-.55.66-.55,1.14,0,.39.14.72.42,1,.28.27.65.4,1.11.4.51,0,.98-.12,1.43-.36.45-.25.79-.57,1.01-.95.23-.39.43-1,.6-1.82l.09-.45ZM303.57,133.55h3.14l-.5,2.41c1.17-1.81,2.44-2.71,3.81-2.71.49,0,1,.12,1.56.36l-1.29,2.75c-.3-.11-.63-.16-.97-.16-.58,0-1.17.22-1.77.66-.59.44-1.06,1.02-1.4,1.76-.34.73-.67,1.88-1,3.47l-.82,3.9h-3.36l2.6-12.44ZM310.45,146l3.6-17.18h3.36l-1.88,8.94,4.38-4.21h4.37l-5,4.52,2.66,7.92h-3.36l-1.71-5.75-2.27,2.02-.79,3.74h-3.36ZM326.36,133.55h3.19l-.27,1.28c.68-.56,1.32-.96,1.91-1.21.59-.24,1.23-.36,1.91-.36,1.3,0,2.35.45,3.14,1.35.8.9,1.2,2.24,1.2,4.02,0,2.24-.68,4.14-2.05,5.68-1.17,1.32-2.56,1.98-4.16,1.98s-2.89-.67-3.74-2l-1.35,6.46h-3.36l3.59-17.19ZM328.39,140.69c0,.97.23,1.72.7,2.26.48.53,1.04.8,1.68.8.55,0,1.09-.2,1.61-.6.52-.41.94-1.07,1.28-2,.34-.94.52-1.8.52-2.6,0-.93-.22-1.64-.67-2.13-.45-.5-1.01-.75-1.7-.75-.64,0-1.23.23-1.76.69-.52.45-.93,1.12-1.22,2.01-.29.88-.43,1.66-.43,2.32ZM338.51,146l3.6-17.18h3.35l-3.59,17.18h-3.36ZM349.96,137.08l-3.28-.28c.38-1.11,1.03-1.98,1.96-2.6.94-.62,2.18-.94,3.71-.94s2.79.32,3.55.97c.77.64,1.15,1.43,1.15,2.35,0,.38-.04.77-.11,1.2-.06.42-.29,1.53-.69,3.33-.33,1.49-.49,2.52-.49,3.12,0,.53.09,1.12.28,1.77h-3.27c-.13-.45-.21-.92-.25-1.41-.49.55-1.06.97-1.7,1.27-.64.29-1.29.43-1.93.43-1.03,0-1.88-.34-2.55-1.01-.67-.68-1.01-1.55-1.01-2.61,0-1.19.37-2.14,1.1-2.85.74-.71,2.06-1.14,3.96-1.29,1.6-.13,2.67-.29,3.21-.48.14-.47.21-.84.21-1.12,0-.36-.14-.66-.43-.9-.29-.24-.72-.36-1.29-.36-.6,0-1.08.12-1.43.38-.34.24-.58.59-.7,1.04ZM353.16,140.2c-.2.05-.47.11-.81.15-1.69.2-2.79.5-3.3.89-.37.28-.55.66-.55,1.14,0,.39.14.72.42,1,.28.27.65.4,1.11.4.51,0,.98-.12,1.43-.36.45-.25.79-.57,1.01-.95.23-.39.43-1,.6-1.82l.09-.45ZM349.73,128.8h2.88l-.6,2.87h-2.88l.6-2.87ZM354.66,128.8h2.88l-.6,2.87h-2.88l.6-2.87ZM359.42,136.05l.52-2.5h1.64l.41-1.99,3.86-2.32-.9,4.31h2.05l-.52,2.5h-2.06l-1.09,5.21c-.2.94-.29,1.48-.29,1.62,0,.26.08.46.25.61.16.14.46.21.89.21.15,0,.52-.03,1.11-.08l-.53,2.5c-.58.12-1.17.18-1.78.18-1.19,0-2.05-.23-2.59-.68-.54-.46-.81-1.1-.81-1.91,0-.38.14-1.26.43-2.65l1.04-5h-1.63ZM366.01,146l.48-2.27,6.82-7.55h-5.57l.55-2.62h9.76l-.41,2-6.88,7.72h5.99l-.57,2.72h-10.17ZM390.69,140.82h-8.44c0,.13-.01.24-.01.3,0,.83.23,1.5.7,2,.48.51,1.05.76,1.73.76,1.12,0,1.99-.58,2.61-1.74l3.01.5c-.59,1.21-1.37,2.12-2.36,2.73-.98.6-2.07.9-3.29.9-1.67,0-3.03-.53-4.08-1.58-1.05-1.06-1.57-2.46-1.57-4.21s.47-3.22,1.42-4.55c1.29-1.8,3.13-2.69,5.52-2.69,1.52,0,2.73.47,3.63,1.42.9.94,1.35,2.25,1.35,3.95,0,.81-.08,1.54-.23,2.19ZM387.85,138.77c0-.15.01-.26.01-.34,0-.92-.21-1.61-.62-2.07s-.97-.69-1.66-.69-1.32.26-1.88.79c-.55.52-.92,1.3-1.11,2.32h5.26ZM402.19,128.82h3.36l-.63,3.05h-3.36l.63-3.05ZM401.21,133.55h3.36l-2.6,12.44h-3.36l2.6-12.44ZM407.94,133.55h3.19l-.33,1.62c.8-.69,1.54-1.18,2.23-1.46.7-.3,1.43-.44,2.19-.44,1.02,0,1.83.29,2.41.88.59.59.89,1.36.89,2.33,0,.44-.13,1.26-.39,2.48l-1.46,7.04h-3.36l1.48-7.07c.22-1.06.33-1.68.33-1.89,0-.43-.13-.77-.39-1.01-.25-.25-.6-.38-1.05-.38-.49,0-1.04.21-1.64.62s-1.07.96-1.42,1.64c-.25.48-.53,1.47-.84,2.96l-1.07,5.11h-3.36l2.6-12.44ZM287.27,174h-3.19l.28-1.35c-.61.59-1.21,1.01-1.8,1.26-.59.25-1.25.38-1.99.38-1.29,0-2.34-.44-3.14-1.31-.8-.88-1.19-2.18-1.19-3.9,0-1.99.56-3.79,1.69-5.4,1.12-1.61,2.61-2.41,4.46-2.41,1.67,0,2.93.66,3.76,1.99l1.35-6.43h3.36l-3.59,17.18ZM279.5,168.94c0,.89.22,1.59.67,2.09.45.5,1.01.75,1.66.75.61,0,1.17-.21,1.7-.62.53-.42.95-1.06,1.26-1.92.32-.86.48-1.68.48-2.47,0-.9-.24-1.62-.73-2.18-.48-.55-1.04-.83-1.67-.83-.99,0-1.79.55-2.43,1.64-.63,1.09-.95,2.28-.95,3.55ZM302.56,168.82h-8.44c0,.13-.01.24-.01.3,0,.83.23,1.5.7,2,.48.51,1.05.76,1.73.76,1.12,0,1.99-.58,2.61-1.74l3.01.5c-.59,1.21-1.37,2.12-2.35,2.73-.98.6-2.07.9-3.29.9-1.67,0-3.03-.53-4.08-1.58-1.05-1.06-1.57-2.46-1.57-4.21s.47-3.22,1.42-4.55c1.29-1.8,3.13-2.69,5.52-2.69,1.52,0,2.73.47,3.63,1.42.9.94,1.35,2.25,1.35,3.95,0,.81-.08,1.54-.23,2.19ZM299.73,166.77c0-.15.01-.26.01-.34,0-.92-.21-1.61-.62-2.07s-.97-.69-1.66-.69-1.32.26-1.88.79c-.55.52-.92,1.3-1.11,2.32h5.26ZM307.39,156.82h3.36l-.63,3.05h-3.36l.63-3.05ZM306.41,161.55h3.36l-2.6,12.44h-3.36l2.6-12.44ZM313.13,161.55h3.19l-.33,1.62c.8-.69,1.54-1.18,2.23-1.46.7-.3,1.43-.44,2.19-.44,1.02,0,1.83.29,2.41.88.59.59.89,1.36.89,2.33,0,.44-.13,1.26-.39,2.48l-1.46,7.04h-3.36l1.48-7.07c.22-1.06.33-1.68.33-1.89,0-.43-.13-.77-.39-1.01-.25-.25-.6-.38-1.05-.38-.49,0-1.04.21-1.64.62-.6.41-1.07.96-1.42,1.64-.25.48-.53,1.47-.84,2.96l-1.07,5.11h-3.36l2.6-12.44ZM337.27,168.82h-8.44c0,.13-.01.24-.01.3,0,.83.23,1.5.7,2,.48.51,1.05.76,1.73.76,1.12,0,1.99-.58,2.61-1.74l3.01.5c-.59,1.21-1.37,2.12-2.36,2.73-.98.6-2.07.9-3.29.9-1.67,0-3.03-.53-4.08-1.58-1.05-1.06-1.57-2.46-1.57-4.21s.47-3.22,1.42-4.55c1.29-1.8,3.13-2.69,5.52-2.69,1.52,0,2.73.47,3.63,1.42.9.94,1.35,2.25,1.35,3.95,0,.81-.08,1.54-.23,2.19ZM334.44,166.77c0-.15.01-.26.01-.34,0-.92-.21-1.61-.62-2.07s-.97-.69-1.66-.69-1.32.26-1.88.79c-.55.52-.92,1.3-1.11,2.32h5.26ZM340.93,161.55h3.14l-.5,2.41c1.17-1.81,2.44-2.71,3.81-2.71.48,0,1,.12,1.56.36l-1.29,2.75c-.3-.11-.63-.16-.97-.16-.58,0-1.17.22-1.77.66-.59.44-1.06,1.02-1.39,1.76-.34.73-.67,1.88-1,3.47l-.82,3.9h-3.36l2.6-12.44ZM368.3,174h-3.29l-4.64-11.54-2.41,11.54h-3.29l3.59-17.18h3.3l4.65,11.5,2.4-11.5h3.28l-3.59,17.18ZM376.64,165.08l-3.28-.28c.38-1.11,1.03-1.98,1.96-2.6.94-.62,2.18-.94,3.71-.94s2.79.32,3.55.97c.77.64,1.15,1.43,1.15,2.35,0,.38-.04.77-.11,1.2-.06.42-.29,1.53-.69,3.33-.33,1.49-.49,2.52-.49,3.12,0,.53.09,1.12.28,1.77h-3.27c-.13-.45-.21-.92-.25-1.41-.49.55-1.06.97-1.7,1.27-.64.29-1.29.43-1.93.43-1.03,0-1.88-.34-2.55-1.01-.67-.68-1.01-1.55-1.01-2.61,0-1.19.37-2.14,1.1-2.85.74-.71,2.06-1.14,3.96-1.29,1.6-.13,2.67-.29,3.21-.48.14-.47.21-.84.21-1.12,0-.36-.14-.66-.43-.9-.29-.24-.72-.36-1.29-.36-.6,0-1.08.12-1.43.38-.34.24-.58.59-.7,1.04ZM379.84,168.2c-.2.05-.47.11-.81.15-1.69.2-2.79.5-3.3.89-.37.28-.55.66-.55,1.14,0,.39.14.72.42,1,.28.27.65.4,1.11.4.51,0,.98-.12,1.43-.36.45-.25.79-.57,1.01-.95.23-.39.43-1,.6-1.82l.09-.45ZM376.4,156.8h2.88l-.6,2.87h-2.88l.6-2.87ZM381.34,156.8h2.88l-.6,2.87h-2.88l.6-2.87ZM388.66,174h-3.36l3.6-17.18h3.36l-1.29,6.12c.76-.59,1.46-1.02,2.12-1.28.66-.26,1.36-.4,2.11-.4,1.01,0,1.8.29,2.39.87.59.58.88,1.34.88,2.27,0,.5-.11,1.27-.33,2.32l-1.52,7.28h-3.36l1.56-7.42c.16-.8.25-1.32.25-1.55,0-.41-.13-.75-.39-1-.26-.25-.61-.38-1.05-.38-.56,0-1.1.2-1.62.59-.67.52-1.18,1.15-1.54,1.9-.2.41-.45,1.39-.77,2.92l-1.03,4.93ZM412.04,168.82h-8.44c0,.13-.01.24-.01.3,0,.83.23,1.5.7,2,.48.51,1.05.76,1.73.76,1.12,0,1.99-.58,2.61-1.74l3.01.5c-.59,1.21-1.37,2.12-2.36,2.73-.98.6-2.07.9-3.29.9-1.67,0-3.03-.53-4.08-1.58-1.05-1.06-1.57-2.46-1.57-4.21s.47-3.22,1.42-4.55c1.29-1.8,3.13-2.69,5.52-2.69,1.52,0,2.73.47,3.63,1.42.9.94,1.35,2.25,1.35,3.95,0,.81-.08,1.54-.23,2.19ZM409.2,166.77c0-.15.01-.26.01-.34,0-.92-.21-1.61-.62-2.07s-.97-.69-1.66-.69-1.32.26-1.88.79c-.55.52-.92,1.3-1.11,2.32h5.26ZM414.05,170.75h3.33l-.68,3.25h-3.33l.68-3.25Z"/>
      <rect class="cls-2" x="18.55" y="18.55" width="188.9" height="188.9" transform="translate(-22.2 198.21) rotate(-77.22)"/>
      <path class="cls-1" d="M419,85.47h-55v2h55v-2Z"/>
      <path d="M128.15,168.77l-15.08-40.41-37.31-16.34v-8.03l95.25-38.41-35.45,103.18h-7.41ZM131.59,147.56l21.43-62.48-57.68,23.22,25.93,11.18,10.32,28.09Z"/>
    </g>
  </g>
</svg>