<?xml version="1.0" encoding="UTF-8"?>
<svg id="Layer_2" xmlns="http://www.w3.org/2000/svg" viewBox="0 0 585 248.22">
  <defs>
    <style>
      .cls-1 {
        fill: #035494;
      }

      .cls-2 {
        fill: #fff;
      }

      .cls-3 {
        fill: rgba(121, 182, 227, .85);
      }

      .cls-4 {
        fill: #172d3f;
      }
    </style>
  </defs>
  <g id="Layer_1-2" data-name="Layer_1">
    <g>
      <path class="cls-4" d="M553.5,248.22l-152.5-22.5,150-41,2.5,63.5Z"/>
      <rect class="cls-3" y="42.22" width="401" height="184"/>
      <path class="cls-2" d="M167.52,112.43l3.36-.18c.05,1.07.23,1.79.55,2.17.52.61,1.47.91,2.86.91,1.16,0,1.99-.21,2.51-.62.52-.42.77-.92.77-1.5,0-.51-.21-.94-.63-1.29-.3-.26-1.11-.67-2.45-1.25-1.33-.58-2.3-1.06-2.92-1.44-.61-.39-1.09-.89-1.44-1.51-.35-.62-.53-1.34-.53-2.17,0-1.44.52-2.64,1.57-3.6,1.05-.95,2.56-1.43,4.55-1.43s3.57.47,4.68,1.42c1.11.95,1.72,2.2,1.83,3.77l-3.39.15c-.09-.82-.38-1.45-.89-1.89-.51-.44-1.26-.66-2.25-.66s-1.68.17-2.1.52c-.41.34-.62.78-.62,1.3,0,.49.19.9.57,1.22.38.33,1.23.78,2.54,1.35,1.98.85,3.23,1.54,3.77,2.07.8.78,1.21,1.79,1.21,3.01,0,1.51-.6,2.81-1.8,3.89-1.2,1.07-2.86,1.61-5,1.61-1.48,0-2.76-.25-3.84-.74-1.08-.5-1.84-1.19-2.29-2.07-.45-.88-.65-1.9-.62-3.05ZM195.09,112.82h-8.44c0,.13-.01.23-.01.3,0,.83.23,1.5.7,2,.48.51,1.05.76,1.73.76,1.12,0,1.99-.58,2.61-1.73l3.01.5c-.59,1.21-1.37,2.12-2.36,2.73-.98.6-2.07.9-3.29.9-1.67,0-3.03-.53-4.08-1.58-1.05-1.06-1.57-2.47-1.57-4.21s.47-3.22,1.42-4.55c1.29-1.8,3.13-2.69,5.52-2.69,1.52,0,2.73.47,3.63,1.42.9.94,1.35,2.25,1.35,3.95,0,.81-.08,1.54-.23,2.19ZM192.25,110.77c0-.15.01-.26.01-.34,0-.92-.21-1.61-.62-2.07-.41-.46-.97-.69-1.66-.69s-1.32.26-1.88.79c-.55.52-.92,1.3-1.11,2.32h5.26ZM199.74,118h-3.36l3.6-17.18h3.36l-1.29,6.12c.76-.59,1.46-1.02,2.12-1.28.66-.27,1.36-.4,2.11-.4,1.01,0,1.8.29,2.39.87.59.58.88,1.34.88,2.27,0,.5-.11,1.27-.33,2.32l-1.52,7.28h-3.36l1.56-7.42c.16-.8.25-1.32.25-1.55,0-.41-.13-.75-.39-1-.26-.25-.61-.38-1.05-.38-.56,0-1.1.2-1.62.59-.67.52-1.18,1.15-1.54,1.9-.2.41-.45,1.39-.77,2.92l-1.03,4.93ZM223.12,112.82h-8.44c0,.13-.01.23-.01.3,0,.83.23,1.5.7,2,.48.51,1.05.76,1.73.76,1.12,0,1.99-.58,2.61-1.73l3.01.5c-.59,1.21-1.37,2.12-2.36,2.73-.98.6-2.07.9-3.29.9-1.67,0-3.03-.53-4.08-1.58-1.05-1.06-1.57-2.47-1.57-4.21s.47-3.22,1.42-4.55c1.29-1.8,3.13-2.69,5.52-2.69,1.52,0,2.73.47,3.63,1.42.9.94,1.35,2.25,1.35,3.95,0,.81-.08,1.54-.23,2.19ZM220.28,110.77c0-.15.01-.26.01-.34,0-.92-.21-1.61-.62-2.07s-.97-.69-1.66-.69-1.32.26-1.88.79c-.55.52-.92,1.3-1.11,2.32h5.26ZM244.05,118h-3.16l-.61-7.92-3.8,7.92h-3.12l-1.56-12.45h2.99l.87,8.34,3.88-8.34h3.06l.42,8.34,3.86-8.34h3.38l-6.2,12.45ZM253.31,100.82h3.36l-.63,3.05h-3.36l.63-3.05ZM252.32,105.55h3.36l-2.6,12.45h-3.36l2.6-12.45ZM268.52,112.82h-8.44c0,.13-.01.23-.01.3,0,.83.24,1.5.7,2,.48.51,1.05.76,1.73.76,1.12,0,1.99-.58,2.61-1.73l3.01.5c-.59,1.21-1.37,2.12-2.36,2.73-.98.6-2.07.9-3.29.9-1.67,0-3.03-.53-4.08-1.58-1.05-1.06-1.57-2.47-1.57-4.21s.47-3.22,1.42-4.55c1.29-1.8,3.13-2.69,5.52-2.69,1.52,0,2.73.47,3.63,1.42.9.94,1.35,2.25,1.35,3.95,0,.81-.08,1.54-.23,2.19ZM265.68,110.77c0-.15.01-.26.01-.34,0-.92-.21-1.61-.62-2.07s-.97-.69-1.66-.69-1.32.26-1.88.79c-.55.52-.92,1.3-1.11,2.32h5.26ZM282.66,118h-2.89l-2.5-12.45h3.3l.88,5.43c.24,1.47.39,2.45.43,2.93.06-.13.33-.64.81-1.51.48-.88.78-1.41.89-1.59l3.09-5.25h3.63l-7.65,12.45ZM293.38,100.82h3.36l-.63,3.05h-3.36l.63-3.05ZM292.4,105.55h3.36l-2.6,12.45h-3.36l2.6-12.45ZM308.59,112.82h-8.44c0,.13-.01.23-.01.3,0,.83.23,1.5.7,2,.48.51,1.05.76,1.73.76,1.12,0,1.99-.58,2.61-1.73l3.01.5c-.59,1.21-1.37,2.12-2.35,2.73-.98.6-2.08.9-3.29.9-1.67,0-3.03-.53-4.08-1.58-1.05-1.06-1.57-2.47-1.57-4.21s.47-3.22,1.42-4.55c1.29-1.8,3.13-2.69,5.52-2.69,1.52,0,2.73.47,3.63,1.42.9.94,1.35,2.25,1.35,3.95,0,.81-.08,1.54-.23,2.19ZM305.76,110.77c0-.15.01-.26.01-.34,0-.92-.21-1.61-.62-2.07-.41-.46-.97-.69-1.66-.69s-1.32.26-1.88.79c-.55.52-.92,1.3-1.11,2.32h5.26ZM309.81,118l3.6-17.18h3.35l-3.59,17.18h-3.36ZM328.63,112.82h-8.44c0,.13-.01.23-.01.3,0,.83.23,1.5.7,2,.48.51,1.05.76,1.73.76,1.12,0,1.99-.58,2.61-1.73l3.01.5c-.59,1.21-1.37,2.12-2.35,2.73-.98.6-2.08.9-3.29.9-1.67,0-3.03-.53-4.08-1.58-1.05-1.06-1.57-2.47-1.57-4.21s.47-3.22,1.42-4.55c1.29-1.8,3.13-2.69,5.52-2.69,1.52,0,2.73.47,3.63,1.42.9.94,1.35,2.25,1.35,3.95,0,.81-.08,1.54-.23,2.19ZM325.8,110.77c0-.15.01-.26.01-.34,0-.92-.21-1.61-.62-2.07-.42-.46-.97-.69-1.67-.69s-1.32.26-1.88.79c-.55.52-.92,1.3-1.11,2.32h5.26ZM170.51,146h-3.54l3.6-17.18h6.98c1.24,0,2.22.15,2.94.45.73.29,1.3.77,1.72,1.45.42.67.63,1.48.63,2.41,0,.87-.17,1.71-.5,2.53-.34.82-.75,1.48-1.24,1.97-.48.49-1.01.87-1.57,1.12-.56.25-1.32.44-2.27.57-.55.08-1.59.12-3.12.12h-2.26l-1.37,6.55ZM172.47,136.6h1.09c1.87,0,3.11-.12,3.74-.35.62-.23,1.12-.61,1.48-1.12.36-.52.54-1.08.54-1.7,0-.41-.09-.75-.28-1.02-.18-.27-.44-.46-.77-.57-.33-.12-1.07-.19-2.21-.19h-2.53l-1.04,4.96ZM187.71,137.08l-3.28-.28c.38-1.11,1.03-1.98,1.96-2.6.94-.62,2.18-.94,3.71-.94s2.79.32,3.55.97c.77.64,1.15,1.43,1.15,2.36,0,.38-.04.77-.11,1.19-.06.42-.29,1.53-.69,3.33-.33,1.48-.49,2.52-.49,3.12,0,.53.09,1.12.28,1.77h-3.27c-.13-.45-.21-.92-.25-1.41-.49.55-1.06.97-1.7,1.26-.64.29-1.29.43-1.93.43-1.03,0-1.88-.34-2.55-1.01-.67-.68-1.01-1.55-1.01-2.61,0-1.19.37-2.14,1.1-2.85.74-.71,2.06-1.14,3.96-1.29,1.6-.13,2.67-.29,3.21-.48.14-.47.21-.84.21-1.12,0-.36-.14-.66-.43-.9-.29-.24-.72-.36-1.29-.36-.6,0-1.08.12-1.43.38-.34.24-.58.59-.7,1.04ZM190.91,140.2c-.2.06-.47.1-.81.15-1.69.2-2.79.5-3.3.89-.37.28-.55.66-.55,1.14,0,.39.14.72.42,1,.28.27.65.4,1.11.4.51,0,.98-.12,1.43-.36.45-.25.79-.57,1.01-.95.23-.39.43-1,.6-1.82l.09-.45ZM198.74,133.55h3.14l-.5,2.42c1.17-1.81,2.44-2.71,3.81-2.71.48,0,1,.12,1.56.36l-1.29,2.75c-.3-.11-.63-.16-.97-.16-.58,0-1.17.22-1.77.66-.59.44-1.06,1.02-1.39,1.76-.34.73-.67,1.88-1,3.47l-.82,3.9h-3.36l2.6-12.45ZM205.62,146l3.6-17.18h3.36l-1.88,8.94,4.38-4.21h4.37l-5,4.52,2.66,7.92h-3.36l-1.71-5.75-2.27,2.02-.79,3.74h-3.36ZM221.54,133.55h3.19l-.27,1.28c.68-.56,1.32-.96,1.91-1.21.59-.24,1.23-.36,1.91-.36,1.3,0,2.35.45,3.14,1.35.8.9,1.2,2.24,1.2,4.02,0,2.24-.68,4.14-2.05,5.68-1.17,1.32-2.56,1.98-4.16,1.98s-2.89-.67-3.74-2l-1.35,6.46h-3.36l3.59-17.19ZM223.56,140.69c0,.97.23,1.72.7,2.26.48.53,1.04.8,1.68.8.55,0,1.09-.2,1.61-.6.52-.41.94-1.07,1.28-2,.34-.94.52-1.8.52-2.6,0-.93-.22-1.64-.67-2.13-.45-.5-1.01-.75-1.7-.75-.64,0-1.23.23-1.76.69-.52.45-.93,1.12-1.22,2.02-.29.88-.43,1.66-.43,2.32ZM233.69,146l3.6-17.18h3.35l-3.59,17.18h-3.36ZM245.14,137.08l-3.28-.28c.37-1.11,1.03-1.98,1.96-2.6.94-.62,2.17-.94,3.71-.94s2.79.32,3.55.97c.77.64,1.15,1.43,1.15,2.36,0,.38-.04.77-.11,1.19-.06.42-.29,1.53-.69,3.33-.33,1.48-.49,2.52-.49,3.12,0,.53.09,1.12.28,1.77h-3.27c-.13-.45-.21-.92-.25-1.41-.49.55-1.06.97-1.7,1.26-.64.29-1.28.43-1.93.43-1.03,0-1.88-.34-2.55-1.01-.67-.68-1.01-1.55-1.01-2.61,0-1.19.37-2.14,1.1-2.85.74-.71,2.06-1.14,3.96-1.29,1.6-.13,2.67-.29,3.21-.48.14-.47.21-.84.21-1.12,0-.36-.14-.66-.43-.9s-.72-.36-1.29-.36c-.6,0-1.08.12-1.43.38-.34.24-.58.59-.7,1.04ZM248.34,140.2c-.2.06-.47.1-.81.15-1.69.2-2.79.5-3.3.89-.37.28-.55.66-.55,1.14,0,.39.14.72.42,1,.28.27.65.4,1.11.4.51,0,.98-.12,1.43-.36.45-.25.79-.57,1.01-.95.23-.39.43-1,.6-1.82l.09-.45ZM244.9,128.8h2.88l-.6,2.87h-2.88l.6-2.87ZM249.84,128.8h2.88l-.6,2.87h-2.88l.6-2.87ZM254.59,136.05l.51-2.5h1.64l.41-1.99,3.86-2.32-.9,4.31h2.05l-.52,2.5h-2.06l-1.09,5.21c-.19.95-.29,1.48-.29,1.62,0,.26.08.46.25.61.16.14.46.21.89.21.15,0,.52-.03,1.11-.08l-.53,2.5c-.58.12-1.17.18-1.78.18-1.19,0-2.05-.23-2.59-.68-.54-.46-.81-1.1-.81-1.91,0-.38.14-1.27.43-2.65l1.04-5h-1.63ZM261.18,146l.48-2.27,6.82-7.55h-5.57l.55-2.62h9.76l-.41,2-6.88,7.72h5.99l-.57,2.72h-10.17ZM285.86,140.82h-8.44c0,.13-.01.23-.01.3,0,.83.24,1.5.7,2,.48.51,1.05.76,1.74.76,1.12,0,1.99-.58,2.61-1.73l3.01.5c-.59,1.21-1.37,2.12-2.36,2.73-.98.6-2.07.9-3.29.9-1.67,0-3.03-.53-4.08-1.58-1.05-1.06-1.57-2.47-1.57-4.21s.47-3.22,1.42-4.55c1.29-1.8,3.13-2.69,5.52-2.69,1.52,0,2.74.47,3.63,1.42.9.94,1.35,2.25,1.35,3.95,0,.81-.08,1.54-.24,2.19ZM283.02,138.77c0-.15.01-.26.01-.34,0-.92-.21-1.61-.62-2.07s-.97-.69-1.66-.69-1.32.26-1.88.79c-.55.52-.92,1.3-1.11,2.32h5.26ZM296.43,133.55h3.19l-.33,1.62c.8-.69,1.54-1.18,2.23-1.47.69-.3,1.42-.44,2.19-.44,1.02,0,1.83.29,2.41.88.59.59.89,1.36.89,2.33,0,.44-.13,1.27-.39,2.49l-1.46,7.04h-3.36l1.48-7.07c.22-1.05.33-1.68.33-1.89,0-.43-.13-.77-.39-1.01-.25-.25-.6-.38-1.05-.38-.49,0-1.04.21-1.64.62-.6.41-1.07.96-1.42,1.64-.25.48-.53,1.47-.84,2.96l-1.07,5.11h-3.36l2.6-12.45ZM308.95,140.83c0-2.3.65-4.14,1.95-5.51,1.3-1.38,3.01-2.06,5.13-2.06,1.84,0,3.27.51,4.3,1.52,1.03,1.01,1.55,2.37,1.55,4.08,0,2.02-.64,3.76-1.93,5.23-1.29,1.47-3.02,2.2-5.18,2.2-1.17,0-2.21-.24-3.12-.7-.91-.47-1.58-1.13-2.03-1.99-.45-.86-.67-1.78-.67-2.76ZM318.53,138.43c0-.8-.23-1.43-.7-1.91-.46-.48-1.06-.73-1.79-.73s-1.37.23-1.93.68c-.56.45-1,1.1-1.31,1.96-.31.85-.47,1.64-.47,2.36,0,.89.24,1.6.73,2.12.48.52,1.09.79,1.83.79.92,0,1.7-.39,2.32-1.18.89-1.12,1.34-2.48,1.34-4.08ZM331.56,141.31l3.27.53c-.54,1.45-1.34,2.56-2.39,3.32-1.05.76-2.28,1.14-3.67,1.14-1.58,0-2.84-.47-3.77-1.42-.93-.95-1.4-2.25-1.4-3.9,0-1.35.28-2.63.84-3.83.56-1.2,1.41-2.15,2.54-2.84,1.13-.69,2.38-1.04,3.73-1.04,1.47,0,2.64.38,3.51,1.15.88.77,1.37,1.77,1.48,3.02l-3.2.34c-.08-.7-.29-1.21-.64-1.54-.34-.33-.8-.49-1.36-.49-.65,0-1.25.24-1.82.73-.56.49-1,1.21-1.3,2.18-.3.96-.45,1.86-.45,2.71,0,.74.18,1.3.54,1.7.36.4.81.6,1.35.6s1.06-.19,1.56-.59.89-.98,1.17-1.76ZM339.9,146h-3.36l3.6-17.18h3.36l-1.29,6.12c.76-.59,1.46-1.02,2.12-1.28.66-.27,1.36-.4,2.11-.4,1.01,0,1.8.29,2.39.87.59.58.88,1.34.88,2.27,0,.5-.11,1.27-.33,2.32l-1.52,7.28h-3.36l1.56-7.42c.16-.8.25-1.32.25-1.55,0-.41-.13-.75-.39-1-.26-.25-.61-.38-1.05-.38-.56,0-1.1.2-1.62.59-.67.52-1.18,1.15-1.53,1.9-.2.41-.45,1.39-.77,2.92l-1.03,4.93ZM175.63,161.55l-.52,2.46h-2.38l-2.09,9.98h-3.36l2.09-9.98h-1.88l.52-2.46h1.88l.27-1.28c.22-1.05.43-1.75.62-2.12.27-.5.66-.89,1.18-1.18.53-.3,1.22-.44,2.07-.44,1.03,0,2.12.19,3.26.56l-.66,2.4c-.8-.27-1.46-.41-1.96-.41-.38,0-.67.12-.86.36-.12.16-.25.57-.39,1.23l-.19.88h2.38ZM177.37,161.55h3.14l-.5,2.42c1.17-1.81,2.44-2.71,3.81-2.71.48,0,1,.12,1.56.36l-1.29,2.75c-.3-.11-.63-.16-.97-.16-.58,0-1.17.22-1.77.66-.59.44-1.06,1.02-1.39,1.76-.34.73-.67,1.88-1,3.47l-.82,3.9h-3.36l2.6-12.45ZM196.42,168.82h-8.44c0,.13-.01.23-.01.3,0,.83.23,1.5.7,2,.48.51,1.05.76,1.73.76,1.12,0,1.99-.58,2.61-1.73l3.01.5c-.59,1.21-1.37,2.12-2.36,2.73-.98.6-2.07.9-3.29.9-1.67,0-3.03-.53-4.08-1.58-1.05-1.06-1.57-2.47-1.57-4.21s.47-3.22,1.42-4.55c1.29-1.8,3.13-2.69,5.52-2.69,1.52,0,2.73.47,3.63,1.42.9.94,1.35,2.25,1.35,3.95,0,.81-.08,1.54-.23,2.19ZM193.59,166.77c0-.15.01-.26.01-.34,0-.92-.21-1.61-.62-2.07s-.97-.69-1.66-.69-1.32.26-1.88.79c-.55.52-.92,1.3-1.11,2.32h5.26ZM201.25,156.82h3.36l-.63,3.05h-3.36l.63-3.05ZM200.27,161.55h3.36l-2.6,12.45h-3.36l2.6-12.45ZM210.59,170.52l3.26-.51c.29.69.65,1.17,1.08,1.46.43.28,1.02.42,1.76.42s1.38-.17,1.84-.52c.32-.23.48-.52.48-.86,0-.23-.08-.43-.25-.61-.17-.17-.64-.38-1.39-.63-2.03-.67-3.29-1.2-3.77-1.59-.76-.61-1.14-1.41-1.14-2.39s.37-1.83,1.1-2.54c1.02-.99,2.54-1.49,4.56-1.49,1.6,0,2.81.29,3.63.88.82.59,1.34,1.38,1.56,2.38l-3.11.54c-.16-.45-.43-.79-.8-1.02-.5-.3-1.1-.46-1.8-.46s-1.21.12-1.52.35c-.3.24-.46.5-.46.81s.16.57.47.77c.2.12.82.34,1.89.66,1.64.48,2.74.94,3.29,1.41.78.65,1.17,1.43,1.17,2.34,0,1.18-.5,2.2-1.49,3.07-.99.87-2.39,1.3-4.2,1.3s-3.19-.33-4.17-.99c-.98-.66-1.64-1.59-1.99-2.79ZM227.97,156.82h3.36l-.63,3.05h-3.36l.63-3.05ZM226.98,161.55h3.36l-2.6,12.45h-3.36l2.6-12.45ZM233.71,161.55h3.19l-.33,1.62c.8-.69,1.54-1.18,2.23-1.47.7-.3,1.43-.44,2.19-.44,1.02,0,1.83.29,2.41.88.59.59.89,1.36.89,2.33,0,.44-.13,1.27-.39,2.49l-1.46,7.04h-3.36l1.48-7.07c.22-1.05.33-1.68.33-1.89,0-.43-.13-.77-.39-1.01-.25-.25-.6-.38-1.05-.38-.49,0-1.04.21-1.64.62-.6.41-1.07.96-1.42,1.64-.25.48-.53,1.47-.84,2.96l-1.07,5.11h-3.36l2.6-12.45ZM257.23,174h-3.19l.28-1.35c-.61.59-1.21,1.01-1.8,1.27-.59.25-1.25.38-1.99.38-1.29,0-2.34-.44-3.14-1.31-.8-.88-1.2-2.18-1.2-3.9,0-1.99.56-3.79,1.69-5.4,1.12-1.61,2.61-2.41,4.47-2.41,1.67,0,2.93.66,3.76,1.99l1.35-6.43h3.36l-3.59,17.18ZM249.46,168.94c0,.89.22,1.59.67,2.09.45.5,1.01.75,1.66.75.61,0,1.18-.21,1.7-.62.53-.42.95-1.06,1.27-1.92.32-.86.48-1.68.48-2.47,0-.9-.24-1.62-.73-2.18-.49-.55-1.04-.83-1.68-.83-.98,0-1.79.55-2.43,1.64-.63,1.09-.95,2.28-.95,3.55ZM261.18,170.75h3.33l-.68,3.25h-3.33l.68-3.25Z"/>
      <rect class="cls-1" x="377.55" y="18.55" width="188.9" height="188.9" transform="translate(-13.3 107.2) rotate(-12.78)"/>
      <path class="cls-1" d="M166,85.47h55v2h-55v-2Z"/>
      <path class="cls-2" d="M437.77,120.54c-1.07.24-1.97.59-2.69,1.03-1.27.81-2.1,1.96-2.5,3.46l-8.01,1.43-2.47-25.51,24.73-5.61,1.7,7.49-18.36,4.16.62,10.18c1.16-1.2,2.09-2.03,2.79-2.49,1.17-.76,2.68-1.36,4.51-1.77,3.72-.84,7.24-.33,10.57,1.54,3.33,1.87,5.54,5.19,6.62,9.96.94,4.15.45,8.15-1.47,12.02-1.92,3.86-5.54,6.4-10.84,7.6-4.27.97-8.04.62-11.3-1.05s-5.53-4.57-6.79-8.71l8.79-1.99c.79,1.84,1.79,3.17,3.02,4,1.23.81,2.79.99,4.68.57,2.19-.5,3.68-1.64,4.46-3.42.8-1.81.94-3.88.41-6.21-.52-2.29-1.49-4.1-2.92-5.42-1.43-1.35-3.29-1.76-5.55-1.25ZM475.14,97.9c-1.34-1.02-2.99-1.31-4.95-.86-2.68.61-4.28,2.02-4.8,4.25-.3,1.28-.21,3.19.26,5.74l-8.57,1.94c-.72-3.85-.73-7.09-.02-9.73,1.34-5.01,5.01-8.2,11.01-9.56,4.75-1.08,8.82-.61,12.23,1.39,3.4,1.98,5.59,5.14,6.58,9.48.75,3.32.43,6.5-.96,9.53-.91,2.01-2.61,4.4-5.11,7.18l-2.96,3.31c-1.85,2.07-3.11,3.55-3.78,4.44-.65.89-1.14,1.85-1.49,2.91l19.59-4.44,1.76,7.77-30.73,6.97c-.65-3.24-.62-6.33.07-9.29.58-3.28,2.83-7.12,6.76-11.52,3.4-3.83,5.56-6.51,6.48-8.04,1.39-2.38,1.82-4.73,1.29-7.06-.43-1.9-1.31-3.36-2.65-4.38ZM500.47,91.96c-.69,1.54-.77,3.42-.22,5.62l-8.23,1.87c-.42-2.25-.52-4.45-.29-6.6.32-1.92,1.09-3.79,2.3-5.63.92-1.31,2.11-2.43,3.57-3.35,1.46-.92,3.35-1.64,5.66-2.16,4.29-.97,8-.64,11.13.99,3.14,1.61,5.14,4.28,5.98,8.01.6,2.64.32,5.05-.84,7.22-.73,1.36-1.59,2.37-2.57,3.02.81-.18,2.12.25,3.94,1.29,2.72,1.57,4.49,4.17,5.31,7.78.86,3.8.3,7.44-1.69,10.93-1.97,3.46-5.53,5.78-10.69,6.95-6.36,1.44-11.24.37-14.66-3.22-1.8-1.91-3.18-4.64-4.13-8.18l8.67-1.96c.41,1.79,1.03,3.21,1.88,4.26,1.57,1.92,3.76,2.56,6.59,1.92,1.73-.39,3.11-1.32,4.12-2.79,1.03-1.49,1.29-3.35.78-5.58-.67-2.95-2.31-4.65-4.93-5.1-1.49-.25-3.7-.04-6.63.62l-1.43-6.32c2.86-.69,4.8-1.42,5.82-2.2,1.76-1.31,2.35-3.29,1.75-5.93-.39-1.71-1.21-2.99-2.46-3.83-1.23-.85-2.76-1.07-4.57-.65-2.08.47-3.46,1.48-4.13,3.02Z"/>
    </g>
  </g>
</svg>