<?xml version="1.0" encoding="UTF-8"?>
<svg id="Layer_2" xmlns="http://www.w3.org/2000/svg" viewBox="0 0 226 248.22">
  <defs>
    <style>
      .cls-1 {
        fill: #035494;
      }

      .cls-2 {
        fill: #fff;
      }

      .cls-3 {
        fill: #172d3f;
      }
    </style>
  </defs>
  <g id="Layer_1-2" data-name="Layer_1">
    <g>
      <path class="cls-3" d="M194.5,248.22l-152.5-22.5,150-41,2.5,63.5Z"/>
      <rect class="cls-1" x="18.55" y="18.55" width="188.9" height="188.9" transform="translate(-22.2 27.79) rotate(-12.78)"/>
      <path class="cls-2" d="M87.16,184.49l-27.35-120.59,39.22-8.89c14.86-3.37,24.68-4.96,29.47-4.78,7.35.24,14.05,2.87,20.11,7.89,6.05,4.97,10.16,12.26,12.33,21.85,1.68,7.4,1.74,13.93.19,19.59-1.55,5.66-4.09,10.41-7.62,14.27-3.48,3.79-7.26,6.64-11.34,8.54-5.57,2.48-13.89,4.97-24.96,7.48l-15.93,3.61,10.32,45.49-24.44,5.54ZM88.88,78.75l7.76,34.22,13.38-3.03c9.63-2.19,15.93-4.28,18.89-6.27,2.96-2,5.05-4.55,6.25-7.64,1.26-3.11,1.49-6.45.68-10.01-.99-4.39-3.11-7.71-6.34-9.98-3.23-2.26-6.91-3.3-11.04-3.12-3.04.11-8.97,1.17-17.77,3.17l-11.81,2.68Z"/>
    </g>
  </g>
</svg>