<?xml version="1.0" encoding="UTF-8"?>
<svg id="Layer_2" xmlns="http://www.w3.org/2000/svg" viewBox="0 0 226 247.94">
  <defs>
    <style>
      .cls-1 {
        fill: #035494;
      }

      .cls-2 {
        fill: #fff;
      }

      .cls-3 {
        fill: #172d3f;
      }
    </style>
  </defs>
  <g id="Layer_1-2" data-name="Layer_1">
    <g>
      <path class="cls-3" d="M192.81,247.94l-151-22,148.5-41.5,2.5,63.5Z"/>
      <g>
        <rect class="cls-1" x="18.55" y="18.55" width="188.9" height="188.9" transform="translate(-22.2 27.79) rotate(-12.78)"/>
        <path class="cls-2" d="M81.43,120.73c-1.07.24-1.97.59-2.69,1.03-1.27.81-2.1,1.96-2.5,3.46l-8.01,1.43-2.47-25.51,24.73-5.61,1.7,7.49-18.36,4.16.62,10.18c1.16-1.2,2.09-2.03,2.79-2.49,1.17-.76,2.68-1.36,4.51-1.77,3.72-.84,7.24-.33,10.57,1.54,3.33,1.87,5.54,5.19,6.62,9.96.94,4.15.45,8.15-1.47,12.02-1.92,3.86-5.54,6.4-10.84,7.6-4.27.97-8.04.62-11.3-1.05s-5.53-4.57-6.79-8.71l8.79-1.99c.79,1.84,1.79,3.17,3.02,4,1.23.81,2.79.99,4.68.57,2.19-.5,3.68-1.64,4.46-3.42.8-1.81.94-3.88.41-6.21-.52-2.29-1.49-4.1-2.92-5.42-1.43-1.35-3.29-1.76-5.55-1.25ZM118.8,98.09c-1.34-1.02-2.99-1.31-4.95-.86-2.68.61-4.28,2.02-4.8,4.25-.3,1.28-.21,3.19.26,5.74l-8.57,1.94c-.72-3.85-.73-7.09-.02-9.73,1.34-5.01,5.01-8.2,11.01-9.56,4.75-1.08,8.82-.61,12.23,1.39,3.4,1.98,5.59,5.14,6.58,9.48.75,3.32.43,6.5-.96,9.53-.91,2.01-2.61,4.4-5.11,7.18l-2.96,3.31c-1.85,2.07-3.11,3.55-3.78,4.44-.65.89-1.14,1.85-1.49,2.91l19.59-4.44,1.76,7.77-30.73,6.97c-.65-3.24-.62-6.33.07-9.29.58-3.28,2.83-7.12,6.76-11.52,3.4-3.83,5.56-6.51,6.48-8.04,1.39-2.38,1.82-4.73,1.29-7.06-.43-1.9-1.31-3.36-2.65-4.38ZM144.14,92.15c-.69,1.54-.77,3.42-.22,5.62l-8.23,1.87c-.42-2.25-.52-4.45-.29-6.6.32-1.92,1.09-3.79,2.3-5.63.92-1.31,2.11-2.43,3.57-3.35,1.46-.92,3.35-1.64,5.66-2.16,4.29-.97,8-.64,11.13.99,3.14,1.61,5.14,4.28,5.98,8.01.6,2.64.32,5.05-.84,7.22-.73,1.36-1.59,2.37-2.57,3.02.81-.18,2.12.25,3.94,1.29,2.72,1.57,4.49,4.17,5.31,7.78.86,3.8.3,7.44-1.69,10.93-1.97,3.46-5.53,5.78-10.69,6.95-6.36,1.44-11.24.37-14.66-3.22-1.8-1.91-3.18-4.64-4.13-8.18l8.67-1.96c.41,1.79,1.03,3.21,1.88,4.26,1.57,1.92,3.76,2.56,6.59,1.92,1.73-.39,3.11-1.32,4.12-2.79,1.03-1.49,1.29-3.35.78-5.58-.67-2.95-2.31-4.65-4.93-5.1-1.49-.25-3.7-.04-6.63.62l-1.43-6.32c2.86-.69,4.8-1.42,5.82-2.2,1.76-1.31,2.35-3.29,1.75-5.93-.39-1.71-1.21-2.99-2.46-3.83-1.23-.85-2.76-1.07-4.57-.65-2.08.47-3.46,1.48-4.13,3.02Z"/>
      </g>
    </g>
  </g>
</svg>