<?xml version="1.0" encoding="UTF-8"?>
<svg id="Layer_2" xmlns="http://www.w3.org/2000/svg" viewBox="0 0 226 247.94">
  <defs>
    <style>
      .cls-1 {
        fill: #010101;
      }

      .cls-2 {
        fill: #fff;
      }

      .cls-3 {
        fill: #172d3f;
      }
    </style>
  </defs>
  <g id="Layer_1-2" data-name="Layer_1">
    <g>
      <path class="cls-3" d="M34.3,247.94l151-22-148.5-41.5-2.5,63.5Z"/>
      <rect class="cls-2" x="18.55" y="18.55" width="188.9" height="188.9" transform="translate(-22.2 198.21) rotate(-77.22)"/>
      <path class="cls-1" d="M114.61,100.78l47.39,11.45c2.29.55,3.72,2.8,3.18,5.04s-2.85,3.64-5.14,3.09l-47.32-11.43-.07-.02c-2.27-.55-3.64-2.85-3.1-5.08.54-2.24,2.8-3.59,5.07-3.04ZM117.7,97.26c-.34,1.42.39,2.7,1.68,3.01l38.55,9.32c1.22.29,2.55-.49,2.89-1.91s-.48-2.72-1.7-3.02l-38.55-9.32c-1.29-.31-2.55.57-2.87,1.91ZM157.31,121.29l-42.75-10.33c-1.36-.33-2.78.54-3.09,1.83-.33,1.36.53,2.78,1.9,3.11l42.75,10.33c1.36.33,2.79-.54,3.11-1.9.31-1.29-.56-2.71-1.92-3.04ZM154.14,127.2l-39.44-9.53-25.86,61.91,20.74-8.86,9.24,16.34,15.76-10.29,14.39,17.35,5.17-66.91ZM123.26,77.55c1.41-5.85-2.67-9.42-5.05-9.99-2.73-.66-5.2.45-6.38,2.92,2.19.21,3.08,1.85,2.74,3.27-.58,2.39-2.27,2.53-3.47,2.24-3.17-.77-3.56-4.05-2.9-6.78.33-1.35,3.86-8.56,12.94-6.36,6.5,1.57,10.33,10.68,8.19,19.53-1.5,6.2-4.3,12.48-4.3,12.48l30.38,7.34c7.7-31.84-4.26-53.44-25.84-58.65-12.48-3.02-30.82,2.24-34.85,18.94-2.63,10.89,2.05,21.66,10.44,23.69,12.37,3.4,16.88-3.56,18.1-8.62Z"/>
    </g>
  </g>
</svg>