<?xml version="1.0" encoding="UTF-8"?>
<svg id="Ebene_1" data-name="Ebene 1" xmlns="http://www.w3.org/2000/svg" viewBox="0 0 130.55 43">
  <defs>
    <style>
      .cls-1 {
        fill: #7f8086;
      }
    </style>
  </defs>
  <path d="M.7,31.71c.78.86,1.9,1.51,2.87,2.13l14.4,2.03h1.95s.08.09.08.09c1.32,5.65,7.2,7.92,12.53,6.74,3.05-.68,5.98-2.66,6.96-5.74l3.77.1c.26-.05.46-.78.76-.82,16.14.23,32.28.18,48.41.49,1.08.02,2.24-.4,3.31-.5,3.43,7.16,15.6,8.05,18.95.33.78-.13,1.55-.45,2.33-.59,2.8-.5,5.81-.59,8.63-1.05l4.44-1.79c-.04-.39.05-.79.06-1.16.04-1-.03-2.11.05-3.1.05-.56.28-1.15.33-1.71.04-.44-.03-.92,0-1.36-.13-.55-.27-.82-.68-1.2-.08-.07-.21-.08-.25-.15-.09-.17-.18-.73-.26-.98-.48-1.46-1.59-3.74-2.63-4.88-1.25-1.37-5.9-2.45-7.78-2.88-7.19-1.64-14.65-2.43-21.99-3.08-4.78-2.87-9.69-5.52-14.71-7.97-2.8-1.36-5.6-2.87-8.66-3.52C69.16.21,64.46.09,59.93.05c-.49,0-.98,0-1.47,0-3.27-.02-6.55.04-9.82,0-.09,0-.24.03-.3-.06h-3.05c-3.42.11-6.96.49-10.35,1.05-7.87,1.3-14.69,5.5-21.86,8.7l-9.36,1.25c-1.47.41-1.88,3.83-2.01,5.11-.21,2.07-.19,4.16-.22,6.24-1.02.42-1.22,1.54-1.42,2.51l.48,4.73C.53,29.83,0,30.31,0,30.51c0,.29.5.97.7,1.2ZM120.19,20.56c.34-.51.82-.65,1.4-.72,1.02-.13,2.13-.09,3.16-.22.17-.01.29.1.4.19,1.17.94,2.11,2.36,2.72,3.72l-9.08-.05,1.4-2.92ZM105.71,24.99c3.91,0,7.08,3.17,7.08,7.08s-3.17,7.08-7.08,7.08-7.08-3.17-7.08-7.08,3.17-7.08,7.08-7.08ZM67.9,17.72c-1.31.15-2.9-.11-4.24,0-.67-.06-.82-.93-.21-1.18h4.66c.58.08.63,1.09-.21,1.18ZM63.55,2.06c2.97.14,5.97.42,8.85,1.21,4.45,1.23,8.53,3.55,12.06,6.48-2.43-.57-4.29,2.52-1.96,3.99-.06.13-.33,0-.46,0-5.28-.21-10.56-.33-15.83-.65-1.24-.08-2.08-.12-2.77-1.31l-3.45-9.84c1.19.08,2.38.05,3.56.11ZM38.31,17.01c-1,.1-3.07.09-4.08,0-.17-.01-.42-.06-.55-.18-.34-.33-.15-.96.33-1.02,1.39-.16,3.09.12,4.51,0,.73.29.59,1.11-.22,1.19ZM42.89,2.51c4.46-.61,9-.62,13.5-.6l1.69,9.48c.21,1.5-1.2,1.4-2.26,1.39-4.32-.06-8.67-.33-13-.49-.73-.03-1.47,0-2.2-.05l-1.09-9.13c1.11-.21,2.23-.44,3.35-.59ZM31.22,6.34c2.28-1.43,4.85-2.41,7.47-3.02l1.12,8.85c-.95-.02-1.91-.02-2.86-.05-1.19-.04-2.39-.12-3.59-.17-1.53-.06-2.9.2-3.85-1.32-1.33-2.13-.01-3.23,1.7-4.3ZM29.92,25.89c3.91,0,7.08,3.17,7.08,7.08s-3.17,7.08-7.08,7.08-7.08-3.17-7.08-7.08,3.17-7.08,7.08-7.08ZM2.56,15.2c.12-.88.32-2.09.8-2.84.14-.22.51-.7.79-.55,1.5.75,2.35,1.91,2.63,3.57.25,1.48.12,3.14.02,4.63l-4.52.05c.05-1.62.06-3.25.28-4.86Z"/>
  <path class="cls-1" d="M48.65.06c3.27.03,6.55-.02,9.82,0v-.05h-10.12c.06.09.21.05.3.06Z"/>
  <path class="cls-1" d="M59.93.05v-.05h-1.47v.05c.49,0,.98,0,1.47,0Z"/>
</svg>