<?xml version="1.0" encoding="UTF-8"?>
<svg id="Ebene_1" data-name="Ebene 1" xmlns="http://www.w3.org/2000/svg" viewBox="0 0 138.7233886719 47.1489257813">
  <defs>
    <style>
      .cls-1 {
        fill: #7f8086;
      }
    </style>
  </defs>
  <path class="cls-1" d="M42.6522216797,17.8712768555c-1.4219970703.1170043945-3.1244506836-.166809082-4.5126953125-.0043334961-.4824829102.0564575195-.6743164062.6813354492-.3338012695,1.0153808594.1275634766.1251220703.376159668.1684570312.55078125.1832885742,1.0103759766.0858764648,3.0823364258.0985717773,4.0804443359-.0026245117.8048095703-.0815429688.9437866211-.9041748047.2152709961-1.1917114258Z"/>
  <path class="cls-1" d="M60.5173950195,3.9614868164c-4.504699707-.0205688477-9.0386962891-.0096435547-13.5029907227.5996704102-1.1244506836.153503418-2.2401123047.377746582-3.3530273438.5903320312l1.0906982422,9.126953125c.7316894531.0532226562,1.4699707031.0269165039,2.2024536133.0549926758,4.3206176758.1658935547,8.6736450195.4290161133,12.9951171875.4935913086,1.0587158203.0158691406,2.4645996094.1125488281,2.2586669922-1.3871459961l-1.6909179688-9.4783935547Z"/>
  <path class="cls-1" d="M35.3442382812,8.389465332c-1.7122192383,1.0726928711-3.0270996094,2.1719360352-1.7012939453,4.2991943359.9467773438,1.5192871094,2.3153686523,1.2576904297,3.8474121094,1.3187255859,1.1914672852.0474243164,2.3939208984.1291503906,3.5853271484.1675415039.9511108398.0305786133,1.9069213867.0344848633,2.8580322266.0520019531l-1.1220092773-8.8541259766c-2.6157836914.6077880859-5.1921386719,1.5910644531-7.4674682617,3.0166625977Z"/>
  <path class="cls-1" d="M8.2703857422,13.8533935547c-.2835693359-.1421508789-.6489257812.3300170898-.7899169922.5532836914-.4747314453.7514648438-.6780395508,1.9652099609-.7976074219,2.8442382812-.2181396484,1.6034545898-.2312011719,3.2395629883-.2799682617,4.8565063477l4.5150146484-.0543212891c.1063232422-1.4948730469.233581543-3.1468505859-.0161132812-4.6309814453-.2784423828-1.6555175781-1.1265869141-2.8146972656-2.6314086914-3.5687255859Z"/>
  <ellipse class="cls-1" cx="34.047744751" cy="35.0256347656" rx="7.0776367091" ry="7.0836334326" transform="translate(-1.021160985 69.0288090857) rotate(-89.9271356309)"/>
  <path class="cls-1" d="M129.2747192383,21.862121582c-.1193847656-.0955810547-.2386474609-.2078857422-.4049072266-.1931762695-1.0294189453.1350097656-2.1370849609.0927124023-3.1574707031.2215576172-.5757446289.0726928711-1.0630493164.2145385742-1.3983764648.7222900391l-1.403503418,2.9176025391,9.0831298828.0545654297c-.6040649414-1.3591308594-1.5504760742-2.7875366211-2.7188720703-3.7228393555Z"/>
  <path class="cls-1" d="M0,0v47.1489257813h138.7233886719V0H0ZM134.6590576172,29.2264404297c-.0457763672.5638427734-.2769775391,1.1525878906-.3255004883,1.7127685547-.0854492188.9877929688-.0171508789,2.0974121094-.0529785156,3.0990600586-.0133056641.3703613281-.0998535156.7719726562-.0629272461,1.1602172852l-4.4401245117,1.785949707c-2.8229370117.4602661133-5.8258056641.5550537109-8.6283569336,1.0524902344-.7793579102.1383056641-1.5475463867.4603271484-2.3316650391.5918579102-3.3509521484,7.7172851562-15.521484375,6.8262939453-18.9509277344-.3304443359-1.0756225586.1002807617-2.2365722656.5162353516-3.311706543.4954223633-16.130065918-.3117675781-32.2661132812-.2677001953-48.409362793-.494934082-.2966308594.035949707-.4984741211.7667236328-.7590942383.817565918l-3.7716674805-.1001586914c-.9766845703,3.0736694336-3.9106445312,5.0582885742-6.9594116211,5.7362060547-5.328918457,1.1849365234-11.210144043-1.0897827148-12.5307617188-6.7388305664l-.0782470703-.0848388672-1.9504394531-.0076904297-14.399597168-2.0250244141c-.9736328125-.6198730469-2.0918579102-1.2702026367-2.8690185547-2.1331787109-.2005615234-.2227172852-.7073974609-.9099121094-.7030639648-1.1955566406.003112793-.2076416016.5276489258-.6791992188.5870361328-.9194335938l-.4844970703-4.7287597656c.19921875-.9692993164.3961181641-2.0931396484,1.4170532227-2.5115356445.0257568359-2.0775756836.0081787109-4.1729736328.2156982422-6.240234375.1291503906-1.2858276367.5434570312-4.6961669922,2.0099487305-5.1110839844l9.3551025391-1.2502441406c7.1702880859-3.2022705078,13.987121582-7.4061279297,21.8567504883-8.7041015625,3.3869018555-.55859375,6.9259033203-.9418334961,10.3457641602-1.0484008789h14.6314086914v.0543823242c4.5264892578.0400390625,9.2265625.1568603516,13.6627807617,1.1036987305,3.0582885742.6527099609,5.8598632812,2.1587524414,8.657409668,3.5233764648,5.0139770508,2.4457397461,9.927734375,5.0941772461,14.7055664062,7.9690551758,7.34375.6491088867,14.801940918,1.4444580078,21.9901123047,3.0819091797,1.8803710938.4283447266,6.5232543945,1.5093383789,7.7757568359,2.8825683594,1.0341186523,1.1337890625,2.1478881836,3.4147949219,2.6268310547,4.8750610352.0805053711.2453613281.1654052734.8081054688.2568359375.9799804688.0365600586.0687866211.1707763672.079284668.2459716797.1478271484.4094238281.3735351562.5534667969.6492919922.6793212891,1.1964111328-.0260620117.4423217773.0355224609.9213867188,0,1.3586425781Z"/>
  <ellipse class="cls-1" cx="109.8387908936" cy="34.1229095459" rx="7.0836029149" ry="7.0775909328" transform="translate(-.0431961415 .1393566699) rotate(-.0726790433)"/>
  <path class="cls-1" d="M67.6777954102,4.1164550781c-1.1864013672-.0573730469-2.3795776367-.0269775391-3.5646972656-.1061401367l3.4546508789,9.8352661133c.6944580078,1.1879882812,1.536315918,1.2305908203,2.7724609375,1.305847168,5.2666015625.3208007812,10.5529785156.4437255859,15.8308105469.6493530273.1270141602.0049438477.4007568359.1292114258.4596557617.0029296875-2.3298950195-1.4705200195-.4720458984-4.5681762695,1.9573974609-3.9945678711-3.5291137695-2.9317626953-7.6135864258-5.251953125-12.0621337891-6.4793701172-2.8732910156-.7928466797-5.8778076172-1.0696411133-8.8481445312-1.2133178711Z"/>
  <path class="cls-1" d="M72.2413330078,18.5777587891l-4.6630859375.0083618164c-.6122436523.25390625-.4545898438,1.1185302734.2108764648,1.1793823242,1.3421020508-.1013183594,2.9247436523.1521606445,4.2379150391.0049438477.8467407227-.0949707031.7931518555-1.1013793945.2142944336-1.1926879883Z"/>
  <path class="cls-1" d="M52.7714233398,2.1088256836c3.2718505859.0343017578,6.546875-.0198974609,9.8184814453-.0009155273v-.0543823242h-10.1168823242c.0565795898.0900268555.2064819336.0543823242.2984008789.0552978516Z"/>
  <path class="cls-1" d="M64.0584716797,2.1079101562v-.0543823242h-1.4685668945v.0543823242c.4887695312.0028076172.9798583984-.0043334961,1.4685668945,0Z"/>
</svg>